<?xml version="1.0" encoding="UTF-8"?>
<svg version="1.1" xmlns="http://www.w3.org/2000/svg" width="225" height="225">
<path d="M0 0 C1.95486328 -0.02416992 1.95486328 -0.02416992 3.94921875 -0.04882812 C31.81614698 -0.06263731 59.80959289 11.73653897 79.75 31.3125 C105.18766988 57.77248759 113.6679013 87.61145191 112.98699951 123.4932251 C112.7593215 131.59418655 111.37246802 138.64933801 108.75 146.3125 C108.43651611 147.29911621 108.43651611 147.29911621 108.11669922 148.30566406 C99.65047523 174.87755808 80.75014979 197.33439078 56.75 211.3125 C55.64269531 211.95832031 54.53539062 212.60414063 53.39453125 213.26953125 C37.53400815 221.80409175 20.70891871 225.50145979 2.80126953 225.55273438 C0.78244279 225.56234555 -1.23532151 225.59339016 -3.25390625 225.625 C-29.32581858 225.72694296 -55.03398298 215.68818416 -74.515625 198.2890625 C-76.14309924 196.66866423 -77.70523793 195.01129817 -79.25 193.3125 C-80.075 192.508125 -80.9 191.70375 -81.75 190.875 C-88.81862398 183.62966042 -94.20233699 176.11752362 -99.25 167.3125 C-100.05630859 165.92611328 -100.05630859 165.92611328 -100.87890625 164.51171875 C-113.67193403 140.8963907 -116.76685299 108.92921277 -109.44921875 83.046875 C-107.61756775 77.34310187 -105.6794968 71.7913359 -103.25 66.3125 C-102.82074219 65.33152344 -102.39148438 64.35054688 -101.94921875 63.33984375 C-92.30690726 42.72431018 -75.94528274 25.57302912 -56.25 14.3125 C-55.67040527 13.97927734 -55.09081055 13.64605469 -54.49365234 13.30273438 C-37.36361857 3.66316645 -19.51070993 -0.04768013 0 0 Z M-41.25 39.3125 C-41.25 87.8225 -41.25 136.3325 -41.25 186.3125 C-1.88344763 189.13447181 -1.88344763 189.13447181 36.125 179.5 C36.8041748 179.14744141 37.48334961 178.79488281 38.18310547 178.43164062 C50.04065465 172.11449332 57.48696283 162.58639511 61.9375 149.9375 C64.73964142 137.43563826 63.70483768 126.63392253 57.59765625 115.21484375 C53.64893603 109.0120972 48.75935484 103.56799336 42.75 99.3125 C44.07083266 96.55465033 45.55273458 94.04072354 47.25 91.5 C52.58248944 82.89565864 53.18741955 73.0778399 51.09765625 63.2421875 C47.8960425 53.37627044 41.83467638 47.05822647 32.75 42.3125 C9.10421087 35.21876326 -16.56307138 39.3125 -41.25 39.3125 Z " fill="#0C976E" transform="translate(112.25,-0.3125)"/>
<path d="M0 0 C6.21462435 5.09188051 11.98373977 13.07367838 13.125 21.0625 C13.96454175 29.79644239 12.80683901 37.09732768 7.5 44.25390625 C0.39618316 52.05330516 -9.4708077 56.71762316 -19.875 58.0625 C-25.23304612 58.2912697 -30.57625678 58.25236609 -35.9375 58.1875 C-37.38996778 58.17744832 -38.8424423 58.16832635 -40.29492188 58.16015625 C-43.82175682 58.13832017 -47.3483342 58.10391149 -50.875 58.0625 C-50.99987892 54.09749829 -51.08992849 50.13327909 -51.1496582 46.16674805 C-51.18676249 44.16479199 -51.25034137 42.16338258 -51.31445312 40.16210938 C-51.4317007 30.85265169 -50.39463368 25.04311765 -44.10131836 18.10791016 C-39.36955716 13.57949244 -34.35565117 11.19313713 -28.25 9 C-26.48215529 8.33969114 -24.71523068 7.67691387 -22.94921875 7.01171875 C-22.0886084 6.68993652 -21.22799805 6.3681543 -20.34130859 6.03662109 C-17.4272389 4.88564722 -14.6436122 3.54178073 -11.83300781 2.16210938 C-4.87136717 -1.17855657 -4.87136717 -1.17855657 0 0 Z " fill="#0C976E" transform="translate(141.875,109.9375)"/>
<path d="M0 0 C6.27 -0.0825 12.54 -0.165 19 -0.25 C20.96324219 -0.28641602 22.92648438 -0.32283203 24.94921875 -0.36035156 C26.52863476 -0.3720486 28.10806295 -0.38223801 29.6875 -0.390625 C30.88922852 -0.4213208 30.88922852 -0.4213208 32.11523438 -0.45263672 C38.4642089 -0.45651751 43.85856471 1.02286521 48.56494141 5.48309326 C52.25102506 9.72467929 53.38878492 13.21017917 53.265625 18.82421875 C52.38952508 26.0005078 47.9043662 30.72072146 42.52734375 35.19140625 C36.46166244 39.53207154 29.62245642 41.80496619 22.61962891 44.17626953 C21.5085376 44.55307861 21.5085376 44.55307861 20.375 44.9375 C19.64071777 45.18612793 18.90643555 45.43475586 18.14990234 45.69091797 C12.46665779 47.68101465 7.76062052 50.28984504 3 54 C2.01 54.66 1.02 55.32 0 56 C0 37.52 0 19.04 0 0 Z " fill="#0C986E" transform="translate(91,57)"/>
<path d="M0 0 C12.87 0 25.74 0 39 0 C39 0.33 39 0.66 39 1 C26.46 1 13.92 1 1 1 C1.33 17.5 1.66 34 2 51 C4.475 50.505 4.475 50.505 7 50 C2.25 54.875 2.25 54.875 0 56 C0 37.52 0 19.04 0 0 Z " fill="#2B7A63" transform="translate(91,57)"/>
<path d="M0 0 C4.03087945 3.29051383 4.03087945 3.29051383 5.0625 6.5 C4.44375 6.149375 3.825 5.79875 3.1875 5.4375 C2.135625 4.9734375 2.135625 4.9734375 1.0625 4.5 C-0.88479537 5.34188612 -0.88479537 5.34188612 -1.9375 6.5 C-2.9275 6.83 -3.9175 7.16 -4.9375 7.5 C-4.9375 6.84 -4.9375 6.18 -4.9375 5.5 C-6.071875 5.37625 -7.20625 5.2525 -8.375 5.125 C-9.550625 4.91875 -10.72625 4.7125 -11.9375 4.5 C-12.2675 3.84 -12.5975 3.18 -12.9375 2.5 C-4.50539092 -2.47131148 -4.50539092 -2.47131148 0 0 Z " fill="#158B68" transform="translate(141.9375,110.5)"/>
<path d="M0 0 C0.33 0 0.66 0 1 0 C0.57405357 13.20433929 -4.51687231 26.58281052 -11 38 C-12 35 -12 35 -10.890625 32.21484375 C-10.34921875 31.13332031 -9.8078125 30.05179688 -9.25 28.9375 C-5.31464123 20.71981347 -2.83975955 13.06940317 -2 4 C-1.34 4 -0.68 4 0 4 C0 2.68 0 1.36 0 0 Z " fill="#1D8265" transform="translate(223,129)"/>
<path d="M0 0 C5.72911572 -0.09913284 11.45772839 -0.1715934 17.1875 -0.21972656 C19.13517966 -0.23979906 21.08279937 -0.26706332 23.03027344 -0.30175781 C25.83543721 -0.35046852 28.63980187 -0.37301241 31.4453125 -0.390625 C32.74409836 -0.42159271 32.74409836 -0.42159271 34.06912231 -0.45318604 C39.6782961 -0.4552517 42.69467456 0.33164784 47 4 C47.495 4.99 47.495 4.99 48 6 C46.68 5.67 45.36 5.34 44 5 C44 4.34 44 3.68 44 3 C43.01 3 42.02 3 41 3 C40.67 3.66 40.34 4.32 40 5 C39.34 3.68 38.68 2.36 38 1 C25.46 1 12.92 1 0 1 C0 0.67 0 0.34 0 0 Z " fill="#138967" transform="translate(92,58)"/>
<path d="M0 0 C0.99 0.33 1.98 0.66 3 1 C3 1.66 3 2.32 3 3 C2.34 3 1.68 3 1 3 C1 3.66 1 4.32 1 5 C0.01 5 -0.98 5 -2 5 C-1.67 5.99 -1.34 6.98 -1 8 C-2.40656804 12.1317936 -3.95935817 14.25003478 -7.6875 16.375 C-8.780625 16.91125 -9.87375 17.4475 -11 18 C-9.48103632 13.56829827 -7.07360191 9.96975924 -4.375 6.1875 C-3.95476563 5.59001953 -3.53453125 4.99253906 -3.1015625 4.37695312 C-2.07220272 2.91479435 -1.0367177 1.45695101 0 0 Z " fill="#188C6A" transform="translate(25,40)"/>
<path d="M0 0 C3.70313796 5.55470694 3.64397509 11.47438574 3 18 C2.00465515 21.50965199 0.79424429 24.8175083 -1 28 C-1.66 28.33 -2.32 28.66 -3 29 C-3.33 27.68 -3.66 26.36 -4 25 C-3.01 24.67 -2.02 24.34 -1 24 C-1 22.68 -1 21.36 -1 20 C-0.34 20 0.32 20 1 20 C0.67 13.4 0.34 6.8 0 0 Z " fill="#1C8162" transform="translate(152,124)"/>
<path d="M0 0 C0.99 0.495 0.99 0.495 2 1 C2.34342449 2.33076989 2.67619874 3.66431979 3 5 C3.66 5.66 4.32 6.32 5 7 C6.25 9.9375 6.25 9.9375 7 13 C6.01 14.485 6.01 14.485 5 16 C4.36707617 18.11280345 4.36707617 18.11280345 4 20 C3.32331051 17.79471728 2.65906502 15.58561391 2 13.375 C1.62875 12.14523438 1.2575 10.91546875 0.875 9.6484375 C0.06272281 6.26153174 -0.17041013 3.46145571 0 0 Z " fill="#168A67" transform="translate(1,129)"/>
<path d="M0 0 C5.88029563 -0.42765786 9.41777284 0.39144066 14.6796875 2.9765625 C18.31956342 4.58202966 22.09960935 5.29922059 26 6 C26 6.33 26 6.66 26 7 C16.83404773 6.75763107 8.60321558 3.89264444 0 1 C0 0.67 0 0.34 0 0 Z " fill="#1E8669" transform="translate(70,217)"/>
<path d="M0 0 C0 3 0 3 -2.1875 5.25 C-3.115625 6.1575 -4.04375 7.065 -5 8 C-5.73832828 9.24461053 -6.46730781 10.49480789 -7.1875 11.75 C-8.85288477 14.22658832 -9.60694399 14.89659603 -12.5390625 15.66796875 C-15.04420979 15.91142673 -17.48426221 16.03419449 -20 16 C-17.26325139 13.90244665 -14.46433245 11.98579377 -11.5625 10.125 C-7.89914967 7.70285061 -4.96121356 5.2304148 -2 2 C-1.34 1.34 -0.68 0.68 0 0 Z " fill="#178061" transform="translate(165,165)"/>
<path d="M0 0 C3.30291019 3.01570061 3.92927659 5.16546371 4.3125 9.6875 C4.28594049 14.45935895 2.40063496 17.97036275 0 22 C-1 19 -1 19 0 16 C0.66 16 1.32 16 2 16 C2.26897354 9.71372607 2.26897354 9.71372607 0 4 C0 2.68 0 1.36 0 0 Z " fill="#1A7E63" transform="translate(140,64)"/>
<path d="M0 0 C1.04449911 3.13349732 0.93423645 3.98968256 0 7 C-1.48199902 6.55090939 -2.96055236 6.09043436 -4.4375 5.625 C-5.26121094 5.36976563 -6.08492187 5.11453125 -6.93359375 4.8515625 C-9 4 -9 4 -10 2 C-8.66666667 1.66666667 -7.33333333 1.33333333 -6 1 C-5.29875 0.814375 -4.5975 0.62875 -3.875 0.4375 C-2 0 -2 0 0 0 Z " fill="#168E6A" transform="translate(70,210)"/>
<path d="M0 0 C0.33 0 0.66 0 1 0 C1 6.01549124 0.93558858 8.25414318 -3 13 C-3.70885894 14.31138904 -4.39456452 15.63777017 -5 17 C-6 15 -6 15 -5.0390625 12.03125 C-4.57242187 10.8659375 -4.10578125 9.700625 -3.625 8.5 C-3.16351563 7.3346875 -2.70203125 6.169375 -2.2265625 4.96875 C-1.53352687 3.29133891 -0.81166574 1.62333148 0 0 Z " fill="#188766" transform="translate(10,64)"/>
<path d="M0 0 C5.00600922 0.54681024 8.97181067 2.24140333 13.375 4.5625 C14.01566406 4.89185547 14.65632812 5.22121094 15.31640625 5.56054688 C16.88138632 6.36639482 18.44124021 7.18218493 20 8 C18.14453125 8.58203125 18.14453125 8.58203125 16 9 C14.30963442 8.04060332 12.64605826 7.03357147 11 6 C8.68308546 5.27833809 6.35151077 4.59940471 4 4 C4 3.34 4 2.68 4 2 C2.68 1.34 1.36 0.68 0 0 Z " fill="#1A8365" transform="translate(149,6)"/>
<path d="M0 0 C4.92307692 4.30769231 4.92307692 4.30769231 5.3125 7.8125 C5.209375 8.534375 5.10625 9.25625 5 10 C3.68 9.34 2.36 8.68 1 8 C1 7.34 1 6.68 1 6 C0.34 6 -0.32 6 -1 6 C-1.33 5.01 -1.66 4.02 -2 3 C-1.34 2.01 -0.68 1.02 0 0 Z " fill="#108F68" transform="translate(147,117)"/>
<path d="M0 0 C10.52631579 5.05263158 10.52631579 5.05263158 12 8 C13.32 8 14.64 8 16 8 C16 9.32 16 10.64 16 12 C11.95775915 10.60411827 9.05851515 8.69435964 5.75 6 C4.87859375 5.29875 4.0071875 4.5975 3.109375 3.875 C1 2 1 2 0 0 Z " fill="#1C7F63" transform="translate(37,196)"/>
<path d="M0 0 C-1.32 1.32 -2.64 2.64 -4 4 C-4.99 3.67 -5.98 3.34 -7 3 C-7.99 3.33 -8.98 3.66 -10 4 C-12.1875 3.0625 -12.1875 3.0625 -14 2 C-14 1.67 -14 1.34 -14 1 C-9.23692563 0.04738513 -4.8333472 -0.08333357 0 0 Z " fill="#108B66" transform="translate(105,0)"/>
<path d="M0 0 C0.78375 0.9075 1.5675 1.815 2.375 2.75 C2.973125 3.348125 3.57125 3.94625 4.1875 4.5625 C4.579375 4.954375 4.97125 5.34625 5.375 5.75 C5.045 6.41 4.715 7.07 4.375 7.75 C3.50875 6.986875 2.6425 6.22375 1.75 5.4375 C-1.16100655 2.99779927 -4.15443561 1.32001723 -7.625 -0.25 C-7.625 -0.58 -7.625 -0.91 -7.625 -1.25 C-3.90805028 -2.63058132 -3.10194852 -2.65881302 0 0 Z " fill="#188563" transform="translate(150.625,42.25)"/>
<path d="M0 0 C5.4185766 -0.22577402 9.77487721 0.53329887 15 2 C11.25 4 11.25 4 9 4 C9 3.34 9 2.68 9 2 C8.01 2 7.02 2 6 2 C5.67 2.99 5.34 3.98 5 5 C4.01 4.67 3.02 4.34 2 4 C2.33 3.34 2.66 2.68 3 2 C2.01 1.34 1.02 0.68 0 0 Z " fill="#1E8B6B" transform="translate(128,1)"/>
<path d="M0 0 C0.66 0.33 1.32 0.66 2 1 C1.67 1.66 1.34 2.32 1 3 C0.34 3 -0.32 3 -1 3 C-1.66 4.98 -2.32 6.96 -3 9 C-3.66 9 -4.32 9 -5 9 C-5 9.66 -5 10.32 -5 11 C-5.66 11 -6.32 11 -7 11 C-5.72278474 6.00724943 -3.82669043 3.42388092 0 0 Z " fill="#1B8665" transform="translate(100,126)"/>
<path d="M0 0 C-0.30618405 3.67420866 -0.75771784 4.78135513 -3.5625 7.3125 C-4.366875 7.869375 -5.17125 8.42625 -6 9 C-6.66 8.01 -7.32 7.02 -8 6 C-7.34 6 -6.68 6 -6 6 C-5.67 5.01 -5.34 4.02 -5 3 C-2.44444444 0 -2.44444444 0 0 0 Z " fill="#0D8D66" transform="translate(139,83)"/>
<path d="M0 0 C2.33944736 0.28730055 4.6739143 0.61936779 7 1 C4.3401439 4.44216672 1.09711714 4.99504674 -3 6 C-1.125 1.125 -1.125 1.125 0 0 Z " fill="#198566" transform="translate(158,211)"/>
<path d="M0 0 C0.99 0.33 1.98 0.66 3 1 C1.3790787 2.17232685 -0.24686833 3.3377077 -1.875 4.5 C-2.77992188 5.1496875 -3.68484375 5.799375 -4.6171875 6.46875 C-7 8 -7 8 -9 8 C-8.8125 6.125 -8.8125 6.125 -8 4 C-5.625 2.875 -5.625 2.875 -3 2 C-2.01 1.34 -1.02 0.68 0 0 Z " fill="#197D5F" transform="translate(181,200)"/>
<path d="M0 0 C0.66 0.33 1.32 0.66 2 1 C0.02 3.97 -1.96 6.94 -4 10 C-4.92538169 6.29847322 -5.08174162 5.36541838 -4 2 C-2.68 2 -1.36 2 0 2 C0 1.34 0 0.68 0 0 Z " fill="#188665" transform="translate(209,168)"/>
<path d="M0 0 C0.33 1.98 0.66 3.96 1 6 C-0.65 6 -2.3 6 -4 6 C-4.66 4.68 -5.32 3.36 -6 2 C-2.25 0 -2.25 0 0 0 Z " fill="#0F8966" transform="translate(110,121)"/>
<path d="M0 0 C1.85486952 2.78230428 2.72462112 4.84363607 3.6875 8 C3.95949219 8.86625 4.23148438 9.7325 4.51171875 10.625 C5 13 5 13 4 16 C2.74335022 13.09399739 2 11.20395416 2 8 C1.34 8 0.68 8 0 8 C0 5.36 0 2.72 0 0 Z " fill="#1B8464" transform="translate(217,70)"/>
<path d="M0 0 C-1 3 -1 3 -2.70703125 3.87890625 C-3.40183594 4.10449219 -4.09664062 4.33007812 -4.8125 4.5625 C-7.13224272 5.34541317 -9.15162505 6.08195949 -11.3125 7.25 C-13 8 -13 8 -16 7 C-13.71070947 5.82845707 -11.41881638 4.66261926 -9.125 3.5 C-8.47402344 3.16613281 -7.82304688 2.83226562 -7.15234375 2.48828125 C-2.2265625 0 -2.2265625 0 0 0 Z " fill="#1B8165" transform="translate(70,8)"/>
<path d="M0 0 C0.99 0.33 1.98 0.66 3 1 C3.33 1.99 3.66 2.98 4 4 C2.35 4 0.7 4 -1 4 C-1.33 5.32 -1.66 6.64 -2 8 C-2.66 8 -3.32 8 -4 8 C-3.40138258 5.64828869 -2.73075648 3.3140622 -2 1 C-1.34 0.67 -0.68 0.34 0 0 Z " fill="#108C67" transform="translate(164,83)"/>
<path d="M0 0 C1.04005517 3.7041965 1.11721356 6.24935449 0 10 C-2.5625 11.875 -2.5625 11.875 -5 13 C-4.731875 12.34 -4.46375 11.68 -4.1875 11 C-2.74294953 7.35060933 -1.37128822 3.67754567 0 0 Z " fill="#1B8264" transform="translate(173,150)"/>
<path d="M0 0 C-1.43011973 0.86646667 -2.86940619 1.71781829 -4.3125 2.5625 C-5.51326172 3.27599609 -5.51326172 3.27599609 -6.73828125 4.00390625 C-9 5 -9 5 -12 4 C-8.59914501 0.59914501 -4.67235329 -1.5574511 0 0 Z " fill="#1D8367" transform="translate(132,93)"/>
<path d="M0 0 C3.75 0.1875 3.75 0.1875 7 1 C3.31265242 3.45823172 0.30300029 4.01242616 -4 5 C-2.4375 2.4375 -2.4375 2.4375 0 0 Z " fill="#1A8163" transform="translate(148,216)"/>
<path d="M0 0 C0.66 0 1.32 0 2 0 C2.53229326 1.26607607 3.05044544 2.53810412 3.5625 3.8125 C3.85253906 4.52019531 4.14257812 5.22789062 4.44140625 5.95703125 C5 8 5 8 4 11 C3.32591692 9.73308493 2.66099503 8.46129251 2 7.1875 C1.62875 6.47980469 1.2575 5.77210938 0.875 5.04296875 C0 3 0 3 0 0 Z " fill="#198364" transform="translate(7,152)"/>
<path d="M0 0 C0.99 0.33 1.98 0.66 3 1 C3 1.66 3 2.32 3 3 C2.34 3 1.68 3 1 3 C1 3.66 1 4.32 1 5 C0.01 5 -0.98 5 -2 5 C-2 5.66 -2 6.32 -2 7 C-2.66 7 -3.32 7 -4 7 C-2.79618552 4.50638429 -1.54571278 2.31856917 0 0 Z " fill="#168764" transform="translate(25,40)"/>
</svg>
