<?xml version="1.0" encoding="UTF-8"?>
<svg version="1.1" xmlns="http://www.w3.org/2000/svg" width="225" height="225">
<path d="M0 0 C0.92095459 0.00491455 1.84190918 0.0098291 2.79077148 0.01489258 C10.09678894 0.13985297 16.7855628 1.00353564 23.75 3.3125 C24.72710937 3.62960938 25.70421875 3.94671875 26.7109375 4.2734375 C44.44632476 10.83692727 60.14836351 25.0318086 68.06640625 42.16015625 C70.75 48.65875436 70.75 48.65875436 70.75 51.3125 C71.33265625 51.38726562 71.9153125 51.46203125 72.515625 51.5390625 C85.08426575 53.5547879 96.0892589 59.75381062 103.75390625 69.98828125 C111.77406433 82.09386432 114.17066963 94.17592234 112.4765625 108.6484375 C109.88346505 120.63539741 102.15123217 130.69745747 92.3125 137.75 C87.75126083 140.59473044 82.95284685 142.07424417 77.75 143.3125 C76.43295197 132.23067161 76.43295197 132.23067161 77.75 127.3125 C80.30262838 124.60870074 82.58940291 123.31346189 85.953125 121.76953125 C91.09259811 119.09212417 93.48482038 114.49005342 95.75 109.3125 C98.29390704 100.98698605 97.16477051 91.65707948 93.6328125 83.83984375 C89.4680002 76.03964445 83.94907134 70.98583531 75.4609375 68.25390625 C72.23235278 67.47830371 69.02689083 66.8444628 65.75 66.3125 C64.96367187 66.18230469 64.17734375 66.05210938 63.3671875 65.91796875 C61.83253453 65.68497488 60.29185044 65.49178493 58.75 65.3125 C58.60304687 64.65765625 58.45609375 64.0028125 58.3046875 63.328125 C54.58215587 48.18127217 46.61578818 33.50563367 32.94091797 25.21582031 C18.24878228 16.93130001 3.26232209 13.71987214 -13.5 17.4375 C-20.8240523 19.54578791 -28.01564616 22.70923959 -33.97265625 27.50390625 C-36.25 29.3125 -36.25 29.3125 -38.25 29.3125 C-38.745 30.7975 -38.745 30.7975 -39.25 32.3125 C-40.91666667 33.97916667 -42.58333333 35.64583333 -44.25 37.3125 C-46.56962226 40.16152554 -48.76884708 42.944615 -49.99609375 46.43359375 C-50.84502746 48.8308418 -51.54287159 50.41088861 -53.25 52.3125 C-56.45582412 53.48309138 -59.58091744 54.08843039 -62.9375 54.6953125 C-72.20525005 56.42208668 -79.07466461 61.24749765 -85.25 68.3125 C-91.85378642 78.72616321 -94.18865968 90.24815509 -91.5625 102.4375 C-88.51013223 112.58399148 -83.10478199 120.40931201 -74.25 126.3125 C-74.0291436 129.26314148 -73.96939011 131.99618231 -74.0625 134.9375 C-74.08280273 136.14019531 -74.08280273 136.14019531 -74.10351562 137.3671875 C-74.13890949 139.34924378 -74.19271766 141.33095551 -74.25 143.3125 C-88.11340385 138.14182505 -97.66355596 128.38247489 -104.25 115.3125 C-109.23417618 103.41667325 -110.77975119 87.56709475 -106.25 75.3125 C-99.9314329 60.12639839 -90.12073218 48.80965584 -75.25 41.3125 C-73.19713439 40.69611796 -71.13404871 40.11283625 -69.0625 39.5625 C-63.18094007 37.74701849 -61.08856003 35.19038589 -57.9453125 30.03515625 C-52.71018649 21.62759213 -45.6018509 15.47138421 -37.25 10.3125 C-36.48558594 9.83941406 -35.72117187 9.36632813 -34.93359375 8.87890625 C-29.91934074 5.94011797 -24.8645271 3.8114401 -19.25 2.3125 C-18.61481445 2.14258545 -17.97962891 1.9726709 -17.32519531 1.79760742 C-11.50629543 0.35955184 -5.98213393 -0.03799754 0 0 Z " fill="#3246C3" transform="translate(110.25,39.6875)"/>
<path d="M0 0 C2.69566999 1.32598526 4.4442946 3.0474664 6.56494141 5.17626953 C7.40927734 6.02125 8.25361328 6.86623047 9.12353516 7.73681641 C9.99623047 8.625625 10.86892578 9.51443359 11.76806641 10.43017578 C12.65623047 11.31511719 13.54439453 12.20005859 14.45947266 13.11181641 C21.01806641 19.7258207 21.01806641 19.7258207 21.01806641 21.99267578 C19.03806641 21.99267578 17.05806641 21.99267578 15.01806641 21.99267578 C15.059764 28.86160507 15.1321184 35.72972597 15.22558594 42.59814453 C15.2537757 44.93368223 15.27500011 47.26931498 15.2890625 49.60498047 C15.31051886 52.96647737 15.35718547 56.32683385 15.40869141 59.68798828 C15.40992004 60.72883575 15.41114868 61.76968323 15.41241455 62.84207153 C15.53508773 68.94233697 16.14823026 72.25011971 20.01806641 76.99267578 C20.34806641 77.98267578 20.67806641 78.97267578 21.01806641 79.99267578 C16.97972851 80.09192598 12.94186768 80.1643214 8.90258789 80.21240234 C7.53006617 80.23245568 6.15762924 80.25970606 4.78540039 80.29443359 C2.80734597 80.3432213 0.82865522 80.36356455 -1.14990234 80.38330078 C-2.33865967 80.40424805 -3.52741699 80.42519531 -4.75219727 80.44677734 C-8.64320314 79.89970115 -10.20911767 78.72144942 -12.98193359 75.99267578 C-16.6290993 70.52192722 -16.1293831 64.82319739 -16.11474609 58.45751953 C-16.11570282 57.54184708 -16.11665955 56.62617462 -16.11764526 55.68275452 C-16.11832416 53.75212536 -16.11649015 51.82149388 -16.11230469 49.89086914 C-16.1069462 46.93712238 -16.11226269 43.98352725 -16.11865234 41.02978516 C-16.11799163 39.15152961 -16.11671061 37.27327416 -16.11474609 35.39501953 C-16.11778244 34.07146706 -16.11778244 34.07146706 -16.12088013 32.72117615 C-16.11615189 31.48452965 -16.11615189 31.48452965 -16.11132812 30.22290039 C-16.11013474 29.13965736 -16.11013474 29.13965736 -16.10891724 28.03453064 C-15.97704375 25.91404878 -15.56021319 24.03301365 -14.98193359 21.99267578 C-17.29193359 21.99267578 -19.60193359 21.99267578 -21.98193359 21.99267578 C-19.61871254 16.55357723 -15.22646054 12.82871348 -11.10693359 8.68017578 C-10.29095703 7.83132812 -9.47498047 6.98248047 -8.63427734 6.10791016 C-7.84408203 5.310625 -7.05388672 4.51333984 -6.23974609 3.69189453 C-5.51932129 2.95801514 -4.79889648 2.22413574 -4.05664062 1.46801758 C-1.98193359 -0.00732422 -1.98193359 -0.00732422 0 0 Z " fill="#3247C4" transform="translate(66.98193359375,105.00732421875)"/>
<path d="M0 0 C2.99059507 1.19400624 4.63928202 2.64375009 6.91210938 4.92236328 C7.70810547 5.71771484 8.50410156 6.51306641 9.32421875 7.33251953 C10.14083984 8.16912109 10.95746094 9.00572266 11.79882812 9.86767578 C12.63478516 10.69654297 13.47074219 11.52541016 14.33203125 12.37939453 C20.48632812 18.59900231 20.48632812 18.59900231 20.48632812 21.99267578 C18.50632813 21.99267578 16.52632812 21.99267578 14.48632812 21.99267578 C14.53059485 27.15280219 14.60054622 32.3117182 14.69384766 37.47119141 C14.72199396 39.2246739 14.74323998 40.97828177 14.75732422 42.73193359 C14.77884239 45.25960177 14.82553514 47.78577262 14.87695312 50.31298828 C14.87818176 51.0913504 14.8794104 51.86971252 14.88067627 52.67166138 C15.02055376 57.92321094 16.2144797 60.71780774 19.48632812 64.99267578 C19.81632812 65.98267578 20.14632812 66.97267578 20.48632812 67.99267578 C16.46638966 68.11693677 12.44720533 68.2073199 8.42578125 68.26733398 C7.06002309 68.29236858 5.69439745 68.32640796 4.32910156 68.36987305 C-8.48645998 68.76743609 -8.48645998 68.76743609 -12.38085938 65.59814453 C-15.84451286 61.36690484 -15.73274068 58.06533808 -15.86523438 52.77392578 C-15.88838715 51.96024536 -15.91153992 51.14656494 -15.93539429 50.30822754 C-15.98303933 48.58673327 -16.02827274 46.86517083 -16.07128906 45.14355469 C-16.13840547 42.50315645 -16.2161578 39.86321801 -16.29492188 37.22314453 C-16.33983553 35.55258877 -16.38412733 33.88201616 -16.42773438 32.21142578 C-16.45163239 31.41869263 -16.4755304 30.62595947 -16.50015259 29.8092041 C-16.62851947 24.22237097 -16.62851947 24.22237097 -15.51367188 21.99267578 C-17.49367188 21.99267578 -19.47367187 21.99267578 -21.51367188 21.99267578 C-21.51367188 16.48470625 -16.04275282 12.96738929 -12.32617188 9.24267578 C-11.46185547 8.34162109 -10.59753906 7.44056641 -9.70703125 6.51220703 C-8.86591797 5.66529297 -8.02480469 4.81837891 -7.15820312 3.94580078 C-6.38839111 3.16366211 -5.6185791 2.38152344 -4.82543945 1.57568359 C-2.51367188 -0.00732422 -2.51367188 -0.00732422 0 0 Z " fill="#3347C5" transform="translate(112.513671875,117.00732421875)"/>
<path d="M0 0 C3.43605181 1.48229451 5.68701591 3.4295174 8.328125 6.0625 C9.12734375 6.85914063 9.9265625 7.65578125 10.75 8.4765625 C11.575 9.30929688 12.4 10.14203125 13.25 11 C14.09046875 11.83273438 14.9309375 12.66546875 15.796875 13.5234375 C16.5909375 14.32007813 17.385 15.11671875 18.203125 15.9375 C18.93176758 16.66839844 19.66041016 17.39929688 20.41113281 18.15234375 C22 20 22 20 22 22 C20.02 22 18.04 22 16 22 C16.0520224 26.20932938 16.14713868 30.41663019 16.25 34.625 C16.26417969 35.81480469 16.27835938 37.00460938 16.29296875 38.23046875 C16.47654471 44.8024881 16.67508238 48.95426278 21 54 C21.33 54.99 21.66 55.98 22 57 C17.99848192 57.14935324 13.99806236 57.2576761 9.99438477 57.32958984 C8.63537303 57.35959295 7.27655219 57.40041185 5.91821289 57.45263672 C-6.81495118 57.9296043 -6.81495118 57.9296043 -11.37109375 54.1640625 C-14.96273 50.46261314 -15.12206155 47.02261726 -15.09765625 42.01953125 C-15.09443359 40.85615234 -15.09121094 39.69277344 -15.08789062 38.49414062 C-15.07951172 37.27919922 -15.07113281 36.06425781 -15.0625 34.8125 C-15.05798828 33.58595703 -15.05347656 32.35941406 -15.04882812 31.09570312 C-15.03703065 28.06375332 -15.02056921 25.03190094 -15 22 C-16.98 22 -18.96 22 -21 22 C-16.61557474 16.74825074 -11.99157907 11.86777527 -7.125 7.0625 C-6.43664062 6.37865234 -5.74828125 5.69480469 -5.0390625 4.99023438 C-3.36166489 3.32448536 -1.68196209 1.6611378 0 0 Z " fill="#3246C3" transform="translate(156,128)"/>
<path d="M0 0 C2.75546819 2.59801287 2.94016294 4.35244412 3.1875 8.0625 C2.5275 8.0625 1.8675 8.0625 1.1875 8.0625 C1.1875 8.7225 1.1875 9.3825 1.1875 10.0625 C0.1975 10.5575 0.1975 10.5575 -0.8125 11.0625 C-0.8125 11.7225 -0.8125 12.3825 -0.8125 13.0625 C-1.4725 13.7225 -2.1325 14.3825 -2.8125 15.0625 C-4.01611337 18.29721094 -4.93662777 21.53573713 -5.8125 24.875 C-6.1425 25.926875 -6.4725 26.97875 -6.8125 28.0625 C-7.4725 28.3925 -8.1325 28.7225 -8.8125 29.0625 C-8.48946238 37.51717418 -8.03846601 45.16217509 -4.8125 53.0625 C-3.8125 56.0625 -3.8125 56.0625 -2.8125 59.0625 C-4.2975 59.5575 -4.2975 59.5575 -5.8125 60.0625 C-5.1525 61.0525 -4.4925 62.0425 -3.8125 63.0625 C-5.2975 63.5575 -5.2975 63.5575 -6.8125 64.0625 C-7.4725 63.7325 -8.1325 63.4025 -8.8125 63.0625 C-8.4825 64.0525 -8.1525 65.0425 -7.8125 66.0625 C-8.75 68.25 -8.75 68.25 -9.8125 70.0625 C-13.26452766 64.58686992 -15.10520636 59.28270357 -16.8125 53.0625 C-17.3075 51.5775 -17.3075 51.5775 -17.8125 50.0625 C-17.4825 49.4025 -17.1525 48.7425 -16.8125 48.0625 C-17.8025 47.4025 -18.7925 46.7425 -19.8125 46.0625 C-20.06200462 43.47240446 -20.13969737 41.1437871 -20.0625 38.5625 C-20.05734375 37.87285156 -20.0521875 37.18320313 -20.046875 36.47265625 C-19.96733526 31.37217052 -19.96733526 31.37217052 -18.8125 29.0625 C-18.709375 27.9075 -18.60625 26.7525 -18.5 25.5625 C-17.62640464 18.0686898 -14.68121835 11.77065254 -9.8125 6.0625 C-9.68875 5.36125 -9.565 4.66 -9.4375 3.9375 C-8.8125 2.0625 -8.8125 2.0625 -6.0625 0.125 C-2.8125 -0.9375 -2.8125 -0.9375 0 0 Z " fill="#3347C5" transform="translate(23.8125,94.9375)"/>
<path d="M0 0 C3.22001446 1.01470795 4.69878927 2.38145797 7.07617188 4.76489258 C7.87216797 5.56024414 8.66816406 6.3555957 9.48828125 7.17504883 C10.30490234 8.01165039 11.12152344 8.84825195 11.96289062 9.71020508 C12.79884766 10.53907227 13.63480469 11.36793945 14.49609375 12.22192383 C20.65039062 18.44153161 20.65039062 18.44153161 20.65039062 21.83520508 C18.67039063 21.83520508 16.69039062 21.83520508 14.65039062 21.83520508 C14.69465735 26.99533148 14.76460872 32.1542475 14.85791016 37.3137207 C14.88605646 39.0672032 14.90730248 40.82081107 14.92138672 42.57446289 C14.94290489 45.10213106 14.98959764 47.62830192 15.04101562 50.15551758 C15.04224426 50.9338797 15.0434729 51.71224182 15.04473877 52.51419067 C15.18461626 57.76574024 16.3785422 60.56033703 19.65039062 64.83520508 C19.98039062 65.82520508 20.31039062 66.81520508 20.65039062 67.83520508 C16.63045216 67.95946606 12.61126783 68.04984919 8.58984375 68.10986328 C7.22408559 68.13489787 5.85845995 68.16893725 4.49316406 68.21240234 C-8.32239748 68.60996538 -8.32239748 68.60996538 -12.21679688 65.44067383 C-15.68045036 61.20943413 -15.56867818 57.90786737 -15.70117188 52.61645508 C-15.72432465 51.80277466 -15.74747742 50.98909424 -15.77133179 50.15075684 C-15.81897683 48.42926257 -15.86421024 46.70770013 -15.90722656 44.98608398 C-15.97434297 42.34568575 -16.0520953 39.7057473 -16.13085938 37.06567383 C-16.17577303 35.39511807 -16.22006483 33.72454545 -16.26367188 32.05395508 C-16.28756989 31.26122192 -16.3114679 30.46848877 -16.33609009 29.6517334 C-16.46445697 24.06490026 -16.46445697 24.06490026 -15.34960938 21.83520508 C-17.32960938 21.83520508 -19.30960937 21.83520508 -21.34960938 21.83520508 C-21.34960938 18.83520508 -21.34960938 18.83520508 -19.16210938 16.35473633 C-18.23398438 15.46141602 -17.30585937 14.5680957 -16.34960938 13.64770508 C-15.42148438 12.74665039 -14.49335937 11.8455957 -13.53710938 10.91723633 C-12.81523438 10.23016602 -12.09335938 9.5430957 -11.34960938 8.83520508 C-10.68960938 9.16520508 -10.02960938 9.49520508 -9.34960938 9.83520508 C-11.56889131 12.74322969 -13.27930081 14.7883327 -16.34960938 16.83520508 C-16.67960937 17.82520508 -17.00960937 18.81520508 -17.34960938 19.83520508 C-16.02960938 19.83520508 -14.70960937 19.83520508 -13.34960938 19.83520508 C-13.15370493 23.31395265 -12.96929345 26.79321412 -12.78710938 30.27270508 C-12.73103516 31.26592773 -12.67496094 32.25915039 -12.6171875 33.2824707 C-12.56884766 34.22670898 -12.52050781 35.17094727 -12.47070312 36.14379883 C-12.42357178 37.01834717 -12.37644043 37.89289551 -12.32788086 38.79394531 C-12.34960938 40.83520508 -12.34960938 40.83520508 -13.34960938 41.83520508 C-14.12705697 53.28166669 -14.12705697 53.28166669 -10.34960938 63.83520508 C-8.57470392 65.61011054 -5.97176035 65.0702048 -3.56445312 65.15161133 C-2.39462891 65.19350586 -1.22480469 65.23540039 -0.01953125 65.27856445 C1.21216797 65.31788086 2.44386719 65.35719727 3.71289062 65.39770508 C4.94845703 65.44088867 6.18402344 65.48407227 7.45703125 65.52856445 C10.52136398 65.63504706 13.58578136 65.73705932 16.65039062 65.83520508 C15.99039063 64.84520508 15.33039063 63.85520508 14.65039062 62.83520508 C14.65039062 61.84520508 14.65039062 60.85520508 14.65039062 59.83520508 C13.99039063 59.83520508 13.33039063 59.83520508 12.65039062 59.83520508 C12.60103553 54.46005603 12.56469261 49.08503823 12.54052734 43.7097168 C12.53045578 41.88026635 12.51679787 40.05083205 12.49951172 38.22143555 C12.47531386 35.59525574 12.4639193 32.96928833 12.45507812 30.34301758 C12.44475555 29.52213654 12.43443298 28.70125549 12.42379761 27.85549927 C12.42339878 25.84731365 12.52789523 23.83965126 12.65039062 21.83520508 C13.31039062 21.17520508 13.97039062 20.51520508 14.65039062 19.83520508 C15.64039063 19.83520508 16.63039062 19.83520508 17.65039062 19.83520508 C17.21726563 19.40208008 16.78414062 18.96895508 16.33789062 18.52270508 C10.77539062 12.96020508 5.21289062 7.39770508 -0.34960938 1.83520508 C-2.65960938 3.81520508 -4.96960938 5.79520508 -7.34960938 7.83520508 C-8.00960937 7.50520508 -8.66960937 7.17520508 -9.34960938 6.83520508 C-8.30692998 5.63026434 -7.23956647 4.44665087 -6.16210938 3.27270508 C-5.57042969 2.61141602 -4.97875 1.95012695 -4.36914062 1.26879883 C-2.34960938 -0.16479492 -2.34960938 -0.16479492 0 0 Z " fill="#29399F" transform="translate(112.349609375,117.164794921875)"/>
<path d="M0 0 C2.69566999 1.32598526 4.4442946 3.0474664 6.56494141 5.17626953 C7.40927734 6.02125 8.25361328 6.86623047 9.12353516 7.73681641 C9.99623047 8.625625 10.86892578 9.51443359 11.76806641 10.43017578 C12.65623047 11.31511719 13.54439453 12.20005859 14.45947266 13.11181641 C21.01806641 19.7258207 21.01806641 19.7258207 21.01806641 21.99267578 C19.03806641 21.99267578 17.05806641 21.99267578 15.01806641 21.99267578 C15.059764 28.86160507 15.1321184 35.72972597 15.22558594 42.59814453 C15.2537757 44.93368223 15.27500011 47.26931498 15.2890625 49.60498047 C15.31051886 52.96647737 15.35718547 56.32683385 15.40869141 59.68798828 C15.40992004 60.72883575 15.41114868 61.76968323 15.41241455 62.84207153 C15.53508773 68.94233697 16.14823026 72.25011971 20.01806641 76.99267578 C20.34806641 77.98267578 20.67806641 78.97267578 21.01806641 79.99267578 C16.97972851 80.09192598 12.94186768 80.1643214 8.90258789 80.21240234 C7.53006617 80.23245568 6.15762924 80.25970606 4.78540039 80.29443359 C2.80734597 80.3432213 0.82865522 80.36356455 -1.14990234 80.38330078 C-2.33865967 80.40424805 -3.52741699 80.42519531 -4.75219727 80.44677734 C-8.64320314 79.89970115 -10.20911767 78.72144942 -12.98193359 75.99267578 C-15.13387729 72.76476023 -15.18279802 71.70866769 -14.98193359 67.99267578 C-14.32193359 67.99267578 -13.66193359 67.99267578 -12.98193359 67.99267578 C-11.99193359 71.45767578 -11.99193359 71.45767578 -10.98193359 74.99267578 C-10.48693359 74.00267578 -10.48693359 74.00267578 -9.98193359 72.99267578 C-8.66193359 73.32267578 -7.34193359 73.65267578 -5.98193359 73.99267578 C-5.65193359 75.31267578 -5.32193359 76.63267578 -4.98193359 77.99267578 C5.41306641 77.49767578 5.41306641 77.49767578 16.01806641 76.99267578 C15.02806641 74.68267578 14.03806641 72.37267578 13.01806641 69.99267578 C12.65730286 67.31758118 12.65730286 67.31758118 12.67749023 64.76342773 C12.67783012 63.31206169 12.67783012 63.31206169 12.67817688 61.83137512 C12.69366074 60.80823715 12.70914459 59.78509918 12.72509766 58.73095703 C12.7293425 57.66274216 12.73358734 56.59452728 12.73796082 55.49394226 C12.75467683 52.09742447 12.7922863 48.70151216 12.83056641 45.30517578 C12.8456251 43.01026259 12.85931143 40.71533995 12.87158203 38.42041016 C12.90100064 33.37570722 12.94357021 28.33131351 12.99787903 23.28681946 C13.04446428 17.99275542 12.96128816 15.17002063 9.39697266 11.17626953 C8.79755859 10.60005859 8.19814453 10.02384766 7.58056641 9.43017578 C6.6853125 8.56199219 6.6853125 8.56199219 5.77197266 7.67626953 C5.19318359 7.12068359 4.61439453 6.56509766 4.01806641 5.99267578 C3.53208984 5.40615234 3.04611328 4.81962891 2.54541016 4.21533203 C1.08696987 2.77348561 1.08696987 2.77348561 -0.95458984 3.07470703 C-3.47228886 4.21470562 -4.66395984 5.55171453 -6.41943359 7.68017578 C-7.02142578 8.39560547 -7.62341797 9.11103516 -8.24365234 9.84814453 C-9.31950939 11.17543783 -10.3864981 12.51004112 -11.43896484 13.85595703 C-12.56438337 15.28058048 -13.76741364 16.64320917 -14.98193359 17.99267578 C-15.97193359 17.99267578 -16.96193359 17.99267578 -17.98193359 17.99267578 C-17.98193359 18.98267578 -17.98193359 19.97267578 -17.98193359 20.99267578 C-16.66193359 20.99267578 -15.34193359 20.99267578 -13.98193359 20.99267578 C-13.98193359 23.30267578 -13.98193359 25.61267578 -13.98193359 27.99267578 C-14.64193359 28.32267578 -15.30193359 28.65267578 -15.98193359 28.99267578 C-15.65193359 26.68267578 -15.32193359 24.37267578 -14.98193359 21.99267578 C-17.29193359 21.99267578 -19.60193359 21.99267578 -21.98193359 21.99267578 C-19.61871254 16.55357723 -15.22646054 12.82871348 -11.10693359 8.68017578 C-10.29095703 7.83132812 -9.47498047 6.98248047 -8.63427734 6.10791016 C-7.84408203 5.310625 -7.05388672 4.51333984 -6.23974609 3.69189453 C-5.51932129 2.95801514 -4.79889648 2.22413574 -4.05664062 1.46801758 C-1.98193359 -0.00732422 -1.98193359 -0.00732422 0 0 Z " fill="#2D3E9E" transform="translate(66.98193359375,105.00732421875)"/>
<path d="M0 0 C0.75 1.6875 0.75 1.6875 1 4 C-0.32732954 5.67145202 -1.66226218 7.33686649 -3 9 C-6.17065536 15.27525541 -7.44733032 21.03636201 -8 28 C-8.33 28.33 -8.66 28.66 -9 29 C-9.15313272 31.4942965 -9.23156517 33.94188493 -9.25 36.4375 C-9.270625 37.13166016 -9.29125 37.82582031 -9.3125 38.54101562 C-9.36450458 40.79999047 -9.36450458 40.79999047 -9 44 C-8.01 44.66 -7.02 45.32 -6 46 C-6.66 47.32 -7.32 48.64 -8 50 C-7.34 50.33 -6.68 50.66 -6 51 C-5.25390625 53.328125 -5.25390625 53.328125 -4.5625 56.25 C-3.13382971 62.02460203 -3.13382971 62.02460203 0 67 C1.32 67 2.64 67 4 67 C4.433125 68.093125 4.86625 69.18625 5.3125 70.3125 C6.49495641 73.09408793 7.60800043 75.06361939 10 77 C9.67 77.66 9.34 78.32 9 79 C-1.4188156 70.92010219 -9.34018425 58.92281157 -11.5390625 45.77734375 C-13.55777784 29.23414261 -11.03134876 15.27302694 -1.27734375 1.58203125 C-0.85582031 1.05996094 -0.43429687 0.53789063 0 0 Z " fill="#2E3EAE" transform="translate(14,97)"/>
<path d="M0 0 C-0.556875 0.61875 -1.11375 1.2375 -1.6875 1.875 C-9.30073248 12.16315201 -11.29442895 22.57060105 -9.7265625 35.203125 C-7.37788165 46.10454931 -1.23646572 54.84235619 8 61 C8.2208564 63.95064148 8.28060989 66.68368231 8.1875 69.625 C8.16719727 70.82769531 8.16719727 70.82769531 8.14648438 72.0546875 C8.11109051 74.03674378 8.05728234 76.01845551 8 78 C3.70816541 76.35442612 -0.04580299 74.32599824 -4 72 C-2.234375 71.34765625 -2.234375 71.34765625 0 71 C2.61939855 72.3576151 4.66862374 74.16179949 7 76 C7 71.38 7 66.76 7 62 C4.07367399 60.5346443 4.07367399 60.5346443 1.11328125 59.140625 C-0.76090974 58.21369323 -2.3815086 57.32886662 -4 56 C-4.9375 52.75 -4.9375 52.75 -5 50 C-5.66 50 -6.32 50 -7 50 C-9.07384877 45.38097319 -10.65600564 40.89597947 -12 36 C-12.33 35.34 -12.66 34.68 -13 34 C-13.12444602 31.6065847 -13.17567069 29.20911922 -13.1875 26.8125 C-13.20167969 25.51957031 -13.21585938 24.22664063 -13.23046875 22.89453125 C-12.98937284 18.82041894 -12.38216915 15.81672674 -11 12 C-10.34 11.67 -9.68 11.34 -9 11 C-8.59270772 8.67843403 -8.25561323 6.3431213 -8 4 C-7.01 3.67 -6.02 3.34 -5 3 C-5.33 2.01 -5.66 1.02 -6 0 C-2.25 -1.125 -2.25 -1.125 0 0 Z " fill="#2E3EA2" transform="translate(28,105)"/>
<path d="M0 0 C10.00677813 -0.5246272 10.00677813 -0.5246272 15 3 C16.32 3 17.64 3 19 3 C19.3403125 3.928125 19.3403125 3.928125 19.6875 4.875 C20.84804335 7.24389129 20.84804335 7.24389129 23.5625 7.9375 C24.366875 8.288125 25.17125 8.63875 26 9 C26.8125 11.625 26.8125 11.625 27 14 C27.66 14 28.32 14 29 14 C29 15.32 29 16.64 29 18 C29.66 18.33 30.32 18.66 31 19 C33.81158954 23.50401473 33.36787779 28.10064507 33.375 33.25 C33.39949219 34.16652344 33.42398438 35.08304688 33.44921875 36.02734375 C33.47670951 42.45101887 32.28261359 46.4727534 29 52 C28.34 52 27.68 52 27 52 C27.433125 50.7315625 27.433125 50.7315625 27.875 49.4375 C28.24625 48.303125 28.6175 47.16875 29 46 C29.556875 44.39125 29.556875 44.39125 30.125 42.75 C32.35455112 33.19478092 31.08810392 24.53047429 26.5 15.9375 C21.42871636 7.99452562 14.9498587 4.19543741 5.875 2.0625 C3.92090102 1.68567029 1.96368533 1.32317705 0 1 C0 0.67 0 0.34 0 0 Z " fill="#2E3DA6" transform="translate(176,105)"/>
<path d="M0 0 C0 3 0 3 -1.35546875 4.53515625 C-4.75531914 7.3695731 -7.68736476 9.69314084 -12 11 C-11.67 14.3 -11.34 17.6 -11 21 C-6.59005682 20.48721591 -3.67499951 19.48310778 0 17 C0.99 16.34 1.98 15.68 3 15 C3.99 15.33 4.98 15.66 6 16 C-0.38338008 20.9573058 -6.08093944 24.23084817 -14 26 C-15.3186771 14.90446443 -15.3186771 14.90446443 -14 10 C-10.79026943 6.55488919 -7.21352684 4.96956464 -3 3 C-1.19785276 1.45174521 -1.19785276 1.45174521 0 0 Z " fill="#2937A7" transform="translate(202,157)"/>
<path d="M0 0 C5.92509497 1.16178333 9.4607769 4.91823886 12.97265625 9.66796875 C18.25270728 17.70188623 18.25270728 17.70188623 19 23 C18.37351563 22.65066406 17.74703125 22.30132812 17.1015625 21.94140625 C16.28429687 21.48636719 15.46703125 21.03132813 14.625 20.5625 C13.81289062 20.11003906 13.00078125 19.65757813 12.1640625 19.19140625 C10.79003378 18.4349464 9.40290739 17.70145369 8 17 C8 15.68 8 14.36 8 13 C7.34 12.67 6.68 12.34 6 12 C6.66 11.01 7.32 10.02 8 9 C6.49407198 4.78340155 3.68077406 3.32048799 0 1 C0 0.67 0 0.34 0 0 Z " fill="#2F40B2" transform="translate(201,100)"/>
<path d="M0 0 C0.66 1.32 1.32 2.64 2 4 C1.01 4.495 1.01 4.495 0 5 C0.48895752 5.79519043 0.48895752 5.79519043 0.98779297 6.60644531 C2.2717306 9.64255833 2.22637696 12.00404184 2.1953125 15.296875 C2.18886719 16.50214844 2.18242187 17.70742187 2.17578125 18.94921875 C2.15902344 20.20347656 2.14226562 21.45773438 2.125 22.75 C2.11597656 24.01972656 2.10695312 25.28945312 2.09765625 26.59765625 C2.07409005 29.73196093 2.04118832 32.86588541 2 36 C1.34 36 0.68 36 0 36 C-1.35700647 33.28598706 -1.1123861 31.15153684 -1.09765625 28.1171875 C-1.09443359 26.95058594 -1.09121094 25.78398437 -1.08789062 24.58203125 C-1.07951172 23.35871094 -1.07113281 22.13539063 -1.0625 20.875 C-1.05798828 19.64394531 -1.05347656 18.41289062 -1.04882812 17.14453125 C-1.0370133 14.09630608 -1.02054028 11.04817686 -1 8 C-2.98 8 -4.96 8 -7 8 C-6.02133662 6.85373678 -5.04205413 5.70800212 -4.0625 4.5625 C-3.51722656 3.92441406 -2.97195312 3.28632813 -2.41015625 2.62890625 C-1.63204305 1.73008851 -0.84063472 0.84063472 0 0 Z " fill="#3341A7" transform="translate(142,142)"/>
<path d="M0 0 C0.66 0.33 1.32 0.66 2 1 C-0.21928194 3.90802461 -1.92969143 5.95312762 -5 8 C-5.33 8.99 -5.66 9.98 -6 11 C-4.68 11 -3.36 11 -2 11 C-1.67 17.93 -1.34 24.86 -1 32 C-1.99 31.67 -2.98 31.34 -4 31 C-4.19430855 28.3753399 -4.38073238 25.75053235 -4.5625 23.125 C-4.61857422 22.37863281 -4.67464844 21.63226563 -4.73242188 20.86328125 C-5.11328125 15.2265625 -5.11328125 15.2265625 -4 13 C-5.98 13 -7.96 13 -10 13 C-10 10 -10 10 -7.8125 7.51953125 C-6.884375 6.62621094 -5.95625 5.73289063 -5 4.8125 C-4.071875 3.91144531 -3.14375 3.01039063 -2.1875 2.08203125 C-1.1046875 1.05142578 -1.1046875 1.05142578 0 0 Z " fill="#2639C1" transform="translate(101,126)"/>
<path d="M0 0 C3.53133073 1.76566537 5.21342643 2.97493331 7.890625 5.6953125 C8.95410156 6.76845703 8.95410156 6.76845703 10.0390625 7.86328125 C10.76867187 8.60964844 11.49828125 9.35601562 12.25 10.125 C12.99507812 10.87910156 13.74015625 11.63320312 14.5078125 12.41015625 C16.3431342 14.26900772 18.1736191 16.13237005 20 18 C19.01 18.33 18.02 18.66 17 19 C17 18.34 17 17.68 17 17 C16.38125 16.7525 15.7625 16.505 15.125 16.25 C12.59641373 14.76259631 12.28160996 13.56321991 11 11 C9.15028304 9.94978897 9.15028304 9.94978897 7 9 C4.51254129 7.10479336 2.21106147 5.21106147 0 3 C-0.37511719 3.45890625 -0.75023437 3.9178125 -1.13671875 4.390625 C-4.17454948 8.03296109 -7.15380993 11.17191907 -11 14 C-11.66 13.67 -12.32 13.34 -13 13 C-8.71 8.71 -4.42 4.42 0 0 Z " fill="#2E3BA4" transform="translate(156,128)"/>
<path d="M0 0 C2.78211944 0.37596209 4.5879284 0.67318459 6.8125 2.4375 C8 4 8 4 8 6 C6.02 6.33 4.04 6.66 2 7 C1.67 22.51 1.34 38.02 1 54 C0.67 54 0.34 54 0 54 C0 36 0 18 0 0 Z " fill="#263BBA" transform="translate(80,121)"/>
<path d="M0 0 C4.62065566 6.93098348 3.76714961 17.47303577 2.65625 25.4765625 C1.69599086 29.62168111 0.04356722 33.28442324 -2 37 C-2.66 36.34 -3.32 35.68 -4 35 C-3.34 34.01 -2.68 33.02 -2 32 C-1.79502899 29.19872957 -1.73727116 27.52545768 -3 25 C-2.34 24.34 -1.68 23.68 -1 23 C-0.34 23.33 0.32 23.66 1 24 C0.88618103 21.06167355 0.75943449 18.1248935 0.625 15.1875 C0.5940625 14.35412109 0.563125 13.52074219 0.53125 12.66210938 C0.49257812 11.85966797 0.45390625 11.05722656 0.4140625 10.23046875 C0.3826416 9.49207764 0.3512207 8.75368652 0.31884766 7.99291992 C0.09165386 5.68650412 0.09165386 5.68650412 -2 3 C-1.34 2.01 -0.68 1.02 0 0 Z " fill="#2C3CA2" transform="translate(220,123)"/>
<path d="M0 0 C1.70884005 1.62339805 3.37446717 3.29319053 5 5 C5 5.66 5 6.32 5 7 C0.98006153 7.12426099 -3.03912279 7.21464411 -7.06054688 7.2746582 C-8.42630503 7.2996928 -9.79193067 7.33373218 -11.15722656 7.37719727 C-23.97640306 7.77487245 -23.97640306 7.77487245 -27.9296875 4.48046875 C-28.61289063 3.66191406 -29.29609375 2.84335938 -30 2 C-29.34 1.67 -28.68 1.34 -28 1 C-27.62834717 1.4844458 -27.25669434 1.9688916 -26.8737793 2.46801758 C-24.25593588 4.60833906 -22.37290273 4.4299292 -19.01953125 4.51171875 C-17.27446289 4.56489258 -17.27446289 4.56489258 -15.49414062 4.61914062 C-14.27919922 4.64169922 -13.06425781 4.66425781 -11.8125 4.6875 C-10.58595703 4.72166016 -9.35941406 4.75582031 -8.09570312 4.79101562 C-5.06389322 4.8735941 -2.03237621 4.94271369 1 5 C0.67 3.35 0.34 1.7 0 0 Z " fill="#2D399B" transform="translate(173,178)"/>
<path d="M0 0 C1.98 0 3.96 0 6 0 C4.14989044 3.70021912 -0.67572733 5.40756223 -4.375 7.0625 C-6.35764383 7.96674867 -6.35764383 7.96674867 -7 11 C-8.66666667 12.66666667 -10.33333333 14.33333333 -12 16 C-13.43551056 17.95082205 -14.71052471 19.94639121 -16 22 C-17 19 -17 19 -16 16 C-15.34 15.67 -14.68 15.34 -14 15 C-13.34786708 12.97536745 -13.34786708 12.97536745 -13 11 C-12.34 11 -11.68 11 -11 11 C-10.814375 10.4225 -10.62875 9.845 -10.4375 9.25 C-8.26871285 5.85537664 -5.59005374 4.79502687 -2 3 C-1.34 3 -0.68 3 0 3 C0 2.01 0 1.02 0 0 Z " fill="#2B3CAA" transform="translate(78,61)"/>
<path d="M0 0 C16.08990494 -0.43312805 30.38456241 0.36469381 45 8 C45.495 8.99 45.495 8.99 46 10 C41.76751873 9.65682584 38.52459758 8.3828733 34.75 6.5625 C23.60935473 1.39431296 12.08400878 1.47145003 0 1 C0 0.67 0 0.34 0 0 Z " fill="#2D3FA1" transform="translate(101,40)"/>
<path d="M0 0 C0.66 0.33 1.32 0.66 2 1 C0.93406385 4.42221607 0.31359279 6.35514279 -2 9 C-5.20435212 10.19282888 -8.30236121 10.77011038 -11.66796875 11.359375 C-18.01302584 12.57929219 -23.5966589 15.51397349 -29 19 C-26.59474968 12.98687421 -20.61978502 11.14615594 -15 8.6875 C-10.96865212 7.76364944 -7.11605632 7.83535775 -3 8 C-2.67 6.02 -2.34 4.04 -2 2 C-1.34 2 -0.68 2 0 2 C0 1.34 0 0.68 0 0 Z " fill="#2C3AA4" transform="translate(59,83)"/>
<path d="M0 0 C9.71357453 4.85678726 17.16370248 12.69231394 24 21 C23.67 21.66 23.34 22.32 23 23 C19.9777399 20.84124278 17.75078646 18.78279333 15.75 15.6875 C12.69824595 11.18299403 8.54561241 7.93812668 4 5 C3.34 5 2.68 5 2 5 C1.34 3.35 0.68 1.7 0 0 Z " fill="#2C3BA7" transform="translate(148,50)"/>
<path d="M0 0 C0.75 1.6875 0.75 1.6875 1 4 C-0.32732954 5.67145202 -1.66226218 7.33686649 -3 9 C-4.49413733 12.27502829 -5.76590534 15.61936834 -7 19 C-7.66 19 -8.32 19 -9 19 C-9.33 21.31 -9.66 23.62 -10 26 C-10.33 26 -10.66 26 -11 26 C-10.81366973 16.68348661 -5.79703269 7.18405278 0 0 Z " fill="#313DA1" transform="translate(14,97)"/>
<path d="M0 0 C0.66 0.33 1.32 0.66 2 1 C1.01 1.33 0.02 1.66 -1 2 C-1.69520323 3.31867915 -2.35909286 4.654095 -3 6 C-6.7737453 10.06552973 -10.54814227 12.6702786 -16 14 C-11.38427208 8.04814032 -6.2989904 4.09558862 0 0 Z " fill="#2C3EAD" transform="translate(31,83)"/>
<path d="M0 0 C4.26546416 1.52338006 5.82076842 4.13362139 8 8 C8.88384666 10.36213886 9.66244066 12.72892219 10.38671875 15.14453125 C10.84366589 16.99349045 10.84366589 16.99349045 12 18 C12.04092937 20.33297433 12.04241723 22.66705225 12 25 C11.67 25 11.34 25 11 25 C10.84144531 24.46632813 10.68289062 23.93265625 10.51953125 23.3828125 C8.59671836 17.24255919 5.97641851 11.69276162 3 6 C2.39295579 4.79310973 1.78824768 3.58503679 1.1875 2.375 C0.795625 1.59125 0.40375 0.8075 0 0 Z " fill="#2B3B9E" transform="translate(157,76)"/>
<path d="M0 0 C0.99 0.33 1.98 0.66 3 1 C2.67 1.33 2.34 1.66 2 2 C4.64 2.66 7.28 3.32 10 4 C10 4.66 10 5.32 10 6 C10.99 6.33 11.98 6.66 13 7 C8.71 7 4.42 7 0 7 C-1 3 -1 3 0 0 Z " fill="#253CB7" transform="translate(169,98)"/>
<path d="M0 0 C0 0.66 0 1.32 0 2 C-0.83402344 2.17015625 -1.66804688 2.3403125 -2.52734375 2.515625 C-8.81052159 3.86870339 -14.48063911 5.35218188 -20.1953125 8.328125 C-22 9 -22 9 -25 8 C-17.31686105 3.2593398 -9.15854396 0 0 0 Z " fill="#2B39A0" transform="translate(100,41)"/>
<path d="M0 0 C1.70884005 1.62339805 3.37446717 3.29319053 5 5 C5 5.66 5 6.32 5 7 C-4.57 7 -14.14 7 -24 7 C-24 6.67 -24 6.34 -24 6 C-15.42 6 -6.84 6 2 6 C1.34 5.01 0.68 4.02 0 3 C0 2.01 0 1.02 0 0 Z " fill="#303C91" transform="translate(128,178)"/>
<path d="M0 0 C0.66 0 1.32 0 2 0 C2.66 2.31 3.32 4.62 4 7 C4.33 6.34 4.66 5.68 5 5 C6.32 5.33 7.64 5.66 9 6 C9.33 7.32 9.66 8.64 10 10 C7.25 10.3125 7.25 10.3125 4 10 C1.22128766 7.44065969 0.08686138 5.97719051 -0.25 2.1875 C-0.1675 1.465625 -0.085 0.74375 0 0 Z " fill="#2F40B4" transform="translate(52,173)"/>
<path d="M0 0 C6.98426892 1.51383169 13.00164161 3.04653652 19 7 C18.34 7.66 17.68 8.32 17 9 C15.68 9 14.36 9 13 9 C12.67 8.01 12.34 7.02 12 6 C9.21473551 4.74674715 9.21473551 4.74674715 5.9375 3.8125 C4.83277344 3.46832031 3.72804687 3.12414062 2.58984375 2.76953125 C1.30787109 2.38861328 1.30787109 2.38861328 0 2 C0 1.34 0 0.68 0 0 Z " fill="#2F3CA7" transform="translate(182,91)"/>
<path d="M0 0 C0.66 0.33 1.32 0.66 2 1 C0.37982158 2.33918806 -1.24629343 3.6711969 -2.875 5 C-3.77992187 5.7425 -4.68484375 6.485 -5.6171875 7.25 C-8 9 -8 9 -10 9 C-10.33 9.99 -10.66 10.98 -11 12 C-12.9375 14.1875 -12.9375 14.1875 -15 16 C-15.66 16 -16.32 16 -17 16 C-14.00116722 8.85384529 -6.4307128 3.95736173 0 0 Z " fill="#303C9E" transform="translate(73,50)"/>
<path d="M0 0 C1.32 0.33 2.64 0.66 4 1 C3.50269348 5.97306516 2.44697666 9.63799813 0 14 C-0.66 13.34 -1.32 12.68 -2 12 C-1.34 11.01 -0.68 10.02 0 9 C0.20497101 6.19872957 0.26272884 4.52545768 -1 2 C-0.67 1.34 -0.34 0.68 0 0 Z " fill="#3041BE" transform="translate(218,146)"/>
<path d="M0 0 C5.489611 4.70538086 8.2859059 10.85905899 9 18 C5.70273748 16.35136874 4.84209148 12.79189039 3.375 9.5625 C2.88773438 8.52125977 2.88773438 8.52125977 2.390625 7.45898438 C0 2.27092634 0 2.27092634 0 0 Z " fill="#2D3BA1" transform="translate(172,73)"/>
<path d="M0 0 C0.66 0.33 1.32 0.66 2 1 C-0.68988892 4.58651856 -3.4814365 7.24220698 -7 10 C-7.33 10.66 -7.66 11.32 -8 12 C-6.68 12.33 -5.36 12.66 -4 13 C-5.98 13 -7.96 13 -10 13 C-10 10 -10 10 -7.8125 7.51953125 C-6.884375 6.62621094 -5.95625 5.73289063 -5 4.8125 C-4.071875 3.91144531 -3.14375 3.01039063 -2.1875 2.08203125 C-1.1046875 1.05142578 -1.1046875 1.05142578 0 0 Z " fill="#2A3796" transform="translate(101,126)"/>
<path d="M0 0 C0.66 1.32 1.32 2.64 2 4 C0.02 4.99 0.02 4.99 -2 6 C-1.34 6.66 -0.68 7.32 0 8 C-2.31 8 -4.62 8 -7 8 C-6.02133662 6.85373678 -5.04205413 5.70800212 -4.0625 4.5625 C-3.51722656 3.92441406 -2.97195312 3.28632813 -2.41015625 2.62890625 C-1.63204305 1.73008851 -0.84063472 0.84063472 0 0 Z " fill="#2636A4" transform="translate(142,142)"/>
<path d="M0 0 C0 3 0 3 -1.3203125 4.5703125 C-5.13740322 7.85862875 -7.76919965 9.74483901 -13 10 C-10.96678062 8.47394321 -8.93237612 6.94956438 -6.89453125 5.4296875 C-6.20746094 4.91664063 -5.52039063 4.40359375 -4.8125 3.875 C-4.11769531 3.35679687 -3.42289063 2.83859375 -2.70703125 2.3046875 C-1.06593783 1.11007661 -1.06593783 1.11007661 0 0 Z " fill="#2C3A9E" transform="translate(202,157)"/>
<path d="M0 0 C0.33 0.66 0.66 1.32 1 2 C2.32 2 3.64 2 5 2 C4.67 4.97 4.34 7.94 4 11 C3.34 11 2.68 11 2 11 C2.33 8.36 2.66 5.72 3 3 C1.68 3 0.36 3 -1 3 C-0.67 2.01 -0.34 1.02 0 0 Z " fill="#2B3FB8" transform="translate(94,135)"/>
<path d="M0 0 C5.96351455 1.27789598 8.48417174 4.33716394 12 9 C11.67 9.66 11.34 10.32 11 11 C7.33333333 7.33333333 3.66666667 3.66666667 0 0 Z " fill="#27389B" transform="translate(145,65)"/>
<path d="M0 0 C1.9375 0.75 1.9375 0.75 4 2 C4.75 4.125 4.75 4.125 5 6 C2.5625 5.1875 2.5625 5.1875 0 4 C-0.33 3.01 -0.66 2.02 -1 1 C-0.67 0.67 -0.34 0.34 0 0 Z " fill="#2D3DAE" transform="translate(24,157)"/>
<path d="M0 0 C-1.26418246 0.69965443 -2.53665402 1.38434763 -3.8125 2.0625 C-4.52019531 2.44535156 -5.22789063 2.82820313 -5.95703125 3.22265625 C-8 4 -8 4 -11 3 C-10 1 -10 1 -7.1875 -0.1875 C-4.02095982 -0.9946573 -2.98482205 -0.91292822 0 0 Z " fill="#2D3DA2" transform="translate(45,80)"/>
<path d="M0 0 C3.26296197 0.22503186 4.04203745 1.04787598 6.25 3.5625 C7.11625 4.7690625 7.11625 4.7690625 8 6 C4.54074837 4.7508258 1.85306797 3.32472205 -1 1 C-0.67 0.67 -0.34 0.34 0 0 Z " fill="#2E3CA3" transform="translate(137,59)"/>
<path d="M0 0 C1.7074998 1.28062485 3.37373596 2.61767557 5 4 C5 4.66 5 5.32 5 6 C3.02 6 1.04 6 -1 6 C-0.34 5.34 0.32 4.68 1 4 C0.6814823 1.89179203 0.6814823 1.89179203 0 0 Z " fill="#2F399A" transform="translate(83,121)"/>
<path d="M0 0 C2.62113708 0 4.50935112 0.31292445 7 1 C4 3 4 3 1 3 C1 3.66 1 4.32 1 5 C0.01 4.67 -0.98 4.34 -2 4 C-1.34 4 -0.68 4 0 4 C-0.33 3.01 -0.66 2.02 -1 1 C-0.67 0.67 -0.34 0.34 0 0 Z " fill="#2D42BD" transform="translate(83,56)"/>
<path d="M0 0 C0.66 0.33 1.32 0.66 2 1 C0.68 3.64 -0.64 6.28 -2 9 C-2.66 8.34 -3.32 7.68 -4 7 C-2.68 4.69 -1.36 2.38 0 0 Z " fill="#313FA3" transform="translate(220,151)"/>
<path d="M0 0 C1.98 1.65 3.96 3.3 6 5 C5.67 5.99 5.34 6.98 5 8 C2.27573689 5.64722731 1.1858237 3.37503669 0 0 Z " fill="#2333AE" transform="translate(114,118)"/>
</svg>
