<?xml version="1.0" encoding="UTF-8"?>
<svg version="1.1" xmlns="http://www.w3.org/2000/svg" width="225" height="225">
<path d="M0 0 C2.9375 0.8125 2.9375 0.8125 4.9375 3.8125 C4.90606707 6.55240408 4.38271663 9.09667854 3.9375 11.8125 C7.5675 11.8125 11.1975 11.8125 14.9375 11.8125 C16.9375 15.8125 16.9375 15.8125 16.9375 17.8125 C17.86433594 18.05484375 18.79117188 18.2971875 19.74609375 18.546875 C21.54240234 19.04960938 21.54240234 19.04960938 23.375 19.5625 C24.56996094 19.88734375 25.76492187 20.2121875 26.99609375 20.546875 C29.9375 21.8125 29.9375 21.8125 30.84765625 23.953125 C30.87730469 24.56671875 30.90695313 25.1803125 30.9375 25.8125 C31.659375 25.915625 32.38125 26.01875 33.125 26.125 C35.9375 26.8125 35.9375 26.8125 38.1171875 28.17578125 C42.18125641 30.53429216 46.5220575 31.90098887 50.96679688 33.38671875 C55.84529944 35.11615947 59.2533624 37.13412788 62.9375 40.8125 C62.9375 41.8025 62.9375 42.7925 62.9375 43.8125 C57.5903725 44.006941 53.01095534 43.55218218 47.8203125 42.25 C45.9349792 41.73705495 45.9349792 41.73705495 43.9375 41.8125 C45.85883766 79.0560955 48.25576352 108.96175962 76.47265625 136.265625 C87.61966235 145.71917943 100.92231348 151.22793528 114.9375 154.8125 C115.9996875 155.09996094 117.061875 155.38742188 118.15625 155.68359375 C121.01045125 156.11687998 121.01045125 156.11687998 123.02734375 154.1953125 C123.63707031 153.45023438 124.24679688 152.70515625 124.875 151.9375 C129.07104925 147.29678272 129.07104925 147.29678272 132.9375 146.8125 C133.9275 146.8125 134.9175 146.8125 135.9375 146.8125 C136.6875 148.4375 136.6875 148.4375 136.9375 150.8125 C135 154.0625 135 154.0625 132.9375 156.8125 C134.0925 156.791875 135.2475 156.77125 136.4375 156.75 C139.41474706 156.73944239 142.24272743 156.94324763 145.1875 157.375 C148.63799653 158.01372945 148.63799653 158.01372945 150.73046875 157.32421875 C153.88325885 156.59321786 156.77762509 156.85919559 160 157.0625 C161.22847656 157.12953125 162.45695313 157.1965625 163.72265625 157.265625 C166.98719064 157.82095284 168.01910627 158.19842503 169.9375 160.8125 C169.33984375 163.171875 169.33984375 163.171875 167.9375 165.8125 C160.99782163 169.02269135 153.1362908 170.22586203 145.53515625 170.5390625 C142.7980226 170.74836769 142.7980226 170.74836769 139.71264648 171.76049805 C128.72559467 174.82220705 117.27791912 175.17563979 105.9375 175.125 C105.2717395 175.12284485 104.605979 175.1206897 103.92004395 175.11846924 C71.27827002 174.95049295 43.29505747 168.27820834 18.9375 145.8125 C18.22464844 145.19246094 17.51179688 144.57242188 16.77734375 143.93359375 C-4.19993667 124.67929324 -14.71949449 95.74935323 -21.6159668 68.94702148 C-22.81705544 64.2936388 -24.0116088 59.73761855 -25.7734375 55.26171875 C-27.30169281 51.17247801 -27.24548618 48.99238449 -26.0625 44.8125 C-24.34969452 42.30038529 -22.64086034 40.32659808 -20.375 38.3125 C-18.61000326 36.29536087 -18.52927301 34.4130925 -18.0625 31.8125 C-15.4159665 29.1659665 -12.50028736 28.21308003 -9.0625 26.8125 C-9.0625 26.049375 -9.0625 25.28625 -9.0625 24.5 C-9.0625 18.8125 -9.0625 18.8125 -7.75 17.42578125 C-5.40625 15.61914062 -5.40625 15.61914062 -3.0625 13.8125 C-4.26631448 11.31888429 -5.51678722 9.13106917 -7.0625 6.8125 C-6.875 4.25 -6.875 4.25 -6.0625 1.8125 C-3.0625 -0.1875 -3.0625 -0.1875 0 0 Z M-3.0625 1.8125 C-3.3925 2.8025 -3.7225 3.7925 -4.0625 4.8125 C-2.0825 4.8125 -0.1025 4.8125 1.9375 4.8125 C1.2775 3.8225 0.6175 2.8325 -0.0625 1.8125 C-1.0525 1.8125 -2.0425 1.8125 -3.0625 1.8125 Z M7.9375 20.8125 C8.64089566 23.32215614 8.64089566 23.32215614 9.9375 25.8125 C11.97855639 26.69943303 11.97855639 26.69943303 13.9375 26.8125 C13.9375 25.1625 13.9375 23.5125 13.9375 21.8125 C10.9675 21.3175 10.9675 21.3175 7.9375 20.8125 Z M4.9375 23.8125 C4.9375 24.4725 4.9375 25.1325 4.9375 25.8125 C5.9275 25.4825 6.9175 25.1525 7.9375 24.8125 C6.9475 24.4825 5.9575 24.1525 4.9375 23.8125 Z M11.9375 28.8125 C14.73170492 32.72853304 14.73170492 32.72853304 18.9375 34.8125 C19.9275 32.1725 20.9175 29.5325 21.9375 26.8125 C18.32720831 26.8125 15.37943324 27.77342582 11.9375 28.8125 Z M6.9375 29.8125 C9.61392489 31.99740007 9.61392489 31.99740007 11.9375 31.8125 C11.9375 31.1525 11.9375 30.4925 11.9375 29.8125 C10.2875 29.8125 8.6375 29.8125 6.9375 29.8125 Z M36.9375 32.8125 C37.5975 33.1425 38.2575 33.4725 38.9375 33.8125 C36.96329865 36.33509061 35.97004358 36.8054808 32.75 37.5 C31.3578125 37.6546875 31.3578125 37.6546875 29.9375 37.8125 C29.2775 36.4925 28.6175 35.1725 27.9375 33.8125 C23.6475 34.8025 19.3575 35.7925 14.9375 36.8125 C14.9375 37.1425 14.9375 37.4725 14.9375 37.8125 C17.2475 37.8125 19.5575 37.8125 21.9375 37.8125 C21.9375 38.4725 21.9375 39.1325 21.9375 39.8125 C10.9375 39.8125 10.9375 39.8125 7.9375 38.8125 C4.74972062 39.27537788 4.74972062 39.27537788 1.3125 40.125 C-0.43933594 40.52138672 -0.43933594 40.52138672 -2.2265625 40.92578125 C-3.16242187 41.21839844 -4.09828125 41.51101562 -5.0625 41.8125 C-5.3925 42.4725 -5.7225 43.1325 -6.0625 43.8125 C-5.4025 44.1425 -4.7425 44.4725 -4.0625 44.8125 C-4.3925 45.4725 -4.7225 46.1325 -5.0625 46.8125 C-4.4025 47.4725 -3.7425 48.1325 -3.0625 48.8125 C-6.4375 48.5 -6.4375 48.5 -10.0625 47.8125 C-10.7225 46.8225 -11.3825 45.8325 -12.0625 44.8125 C-14.0425 45.1425 -16.0225 45.4725 -18.0625 45.8125 C-16.0825 46.8025 -16.0825 46.8025 -14.0625 47.8125 C-14.3925 49.1325 -14.7225 50.4525 -15.0625 51.8125 C-12.10872502 54.18230013 -12.10872502 54.18230013 -8.0625 53.8125 C-8.0625 53.1525 -8.0625 52.4925 -8.0625 51.8125 C-4.5975 51.3175 -4.5975 51.3175 -1.0625 50.8125 C-0.7325 51.4725 -0.4025 52.1325 -0.0625 52.8125 C0.71609375 52.41417969 1.4946875 52.01585938 2.296875 51.60546875 C10.38825232 47.77418295 17.84235733 45.86101301 26.74316406 44.83862305 C36.6386695 43.6957638 36.6386695 43.6957638 45.0625 38.875 C46.11443396 36.39544138 45.90863178 35.28447179 44.9375 32.8125 C42.2975 32.8125 39.6575 32.8125 36.9375 32.8125 Z M32.9375 33.8125 C33.2675 34.8025 33.5975 35.7925 33.9375 36.8125 C34.2675 36.1525 34.5975 35.4925 34.9375 34.8125 C35.5975 34.4825 36.2575 34.1525 36.9375 33.8125 C35.6175 33.8125 34.2975 33.8125 32.9375 33.8125 Z M-20.0625 46.8125 C-20.7225 47.4725 -21.3825 48.1325 -22.0625 48.8125 C-21.73923447 52.40929066 -21.73923447 52.40929066 -21.0625 55.8125 C-20.7325 55.8125 -20.4025 55.8125 -20.0625 55.8125 C-19.4025 52.8425 -18.7425 49.8725 -18.0625 46.8125 C-18.7225 46.8125 -19.3825 46.8125 -20.0625 46.8125 Z M31.1875 47.25 C30.20265625 47.53746094 29.2178125 47.82492188 28.203125 48.12109375 C27.08164063 48.46333984 27.08164063 48.46333984 25.9375 48.8125 C26.5975 49.4725 27.2575 50.1325 27.9375 50.8125 C26.3596875 50.750625 26.3596875 50.750625 24.75 50.6875 C21.13292897 50.80609249 19.09447045 51.14632115 15.9375 52.8125 C15.48375 53.328125 15.03 53.84375 14.5625 54.375 C12.05044639 56.59720127 9.18586505 56.39141564 5.9375 56.8125 C5.6075 57.4725 5.2775 58.1325 4.9375 58.8125 C5.246875 59.410625 5.55625 60.00875 5.875 60.625 C7.12031989 63.1888939 7.09386602 64.99791165 6.9375 67.8125 C5.2875 67.8125 3.6375 67.8125 1.9375 67.8125 C1.2775 69.1325 0.6175 70.4525 -0.0625 71.8125 C-0.7225 71.8125 -1.3825 71.8125 -2.0625 71.8125 C-1.7325 73.1325 -1.4025 74.4525 -1.0625 75.8125 C1.31179296 76.06319913 1.31179296 76.06319913 3.9375 75.8125 C5.54161246 74.45844139 5.54161246 74.45844139 6.9375 72.8125 C9.125 71.625 9.125 71.625 10.9375 70.8125 C10.6075 70.1525 10.2775 69.4925 9.9375 68.8125 C11.9175 68.4825 13.8975 68.1525 15.9375 67.8125 C15.2775 67.4825 14.6175 67.1525 13.9375 66.8125 C13.9375 65.1625 13.9375 63.5125 13.9375 61.8125 C15.9375 63.0625 15.9375 63.0625 17.9375 64.8125 C17.9375 66.1325 17.9375 67.4525 17.9375 68.8125 C18.5975 69.1425 19.2575 69.4725 19.9375 69.8125 C19.9375 70.4725 19.9375 71.1325 19.9375 71.8125 C18.6175 71.4825 17.2975 71.1525 15.9375 70.8125 C16.2675 71.4725 16.5975 72.1325 16.9375 72.8125 C17.5975 72.8125 18.2575 72.8125 18.9375 72.8125 C18.9375 73.4725 18.9375 74.1325 18.9375 74.8125 C16.6275 74.1525 14.3175 73.4925 11.9375 72.8125 C12.2675 73.4725 12.5975 74.1325 12.9375 74.8125 C12.2775 75.4725 11.6175 76.1325 10.9375 76.8125 C11.2675 77.1425 11.5975 77.4725 11.9375 77.8125 C11.6075 78.4725 11.2775 79.1325 10.9375 79.8125 C9.9475 79.8125 8.9575 79.8125 7.9375 79.8125 C8.2675 81.1325 8.5975 82.4525 8.9375 83.8125 C9.4325 83.3175 9.4325 83.3175 9.9375 82.8125 C10.2675 85.1225 10.5975 87.4325 10.9375 89.8125 C12.6449998 88.53187515 14.31123596 87.19482443 15.9375 85.8125 C15.9375 85.1525 15.9375 84.4925 15.9375 83.8125 C16.5975 83.8125 17.2575 83.8125 17.9375 83.8125 C17.4425 81.3375 17.4425 81.3375 16.9375 78.8125 C17.5975 78.8125 18.2575 78.8125 18.9375 78.8125 C18.9375 79.4725 18.9375 80.1325 18.9375 80.8125 C19.535625 81.06 20.13375 81.3075 20.75 81.5625 C23.30263531 83.02114875 24.50482558 84.24876682 25.9375 86.8125 C25.625 89.0625 25.625 89.0625 24.9375 90.8125 C23.2875 90.4825 21.6375 90.1525 19.9375 89.8125 C19.834375 90.451875 19.73125 91.09125 19.625 91.75 C19.398125 92.430625 19.17125 93.11125 18.9375 93.8125 C17.4525 94.3075 17.4525 94.3075 15.9375 94.8125 C16.576875 95.34875 17.21625 95.885 17.875 96.4375 C20.32279404 99.25617193 20.60464612 101.15110732 20.9375 104.8125 C22.5875 104.8125 24.2375 104.8125 25.9375 104.8125 C26.2675 105.4725 26.5975 106.1325 26.9375 106.8125 C26.9375 105.8225 26.9375 104.8325 26.9375 103.8125 C27.72125 104.1425 28.505 104.4725 29.3125 104.8125 C31.78082497 105.93116511 31.78082497 105.93116511 33.9375 105.8125 C36.54796448 108.66027943 38.36426569 110.94316838 38.9375 114.8125 C36.4625 115.3075 36.4625 115.3075 33.9375 115.8125 C36.19707108 118.33279082 38.0072961 119.84739805 41.0625 121.375 C43.9375 122.8125 43.9375 122.8125 45.9375 125.8125 C45.5625 128.5 45.5625 128.5 44.9375 130.8125 C46.47470703 131.57433594 46.47470703 131.57433594 48.04296875 132.3515625 C49.40400961 133.04616266 50.76466655 133.74151544 52.125 134.4375 C52.79853516 134.76878906 53.47207031 135.10007812 54.16601562 135.44140625 C58.96150544 137.92102537 61.6190428 140.57797874 64.9375 144.8125 C65.5975 144.8125 66.2575 144.8125 66.9375 144.8125 C66.9375 145.4725 66.9375 146.1325 66.9375 146.8125 C65.2875 146.8125 63.6375 146.8125 61.9375 146.8125 C61.9375 147.1425 61.9375 147.4725 61.9375 147.8125 C64.2475 147.8125 66.5575 147.8125 68.9375 147.8125 C68.6075 149.7925 68.2775 151.7725 67.9375 153.8125 C69.608125 154.2146875 69.608125 154.2146875 71.3125 154.625 C74.9375 155.8125 74.9375 155.8125 76.9375 158.8125 C77.535625 158.503125 78.13375 158.19375 78.75 157.875 C84.70017529 154.98491486 89.67416873 156.4071092 95.9375 157.8125 C98.36770807 158.6751144 100.59709504 159.71394257 102.9375 160.8125 C106.96032709 161.91877745 110.77747199 161.89406918 114.9375 161.8125 C112.81303654 159.68803654 111.82058001 159.31176823 109.015625 158.48046875 C107.84773438 158.11791992 107.84773438 158.11791992 106.65625 157.74804688 C105.02796742 157.25466695 103.39777503 156.76754063 101.765625 156.28710938 C96.36618461 154.59534392 93.14998973 152.56090188 88.9375 148.8125 C86.20375137 147.34459603 86.20375137 147.34459603 83.4375 146.25 C76.41564042 143.16304952 72.16041916 140.99230594 69 133.89453125 C67.53307963 131.02001449 65.53903285 128.8509998 63.3828125 126.47265625 C61.31140237 124.09333381 59.68546282 121.43444423 57.9375 118.8125 C55.52710075 116.10993115 54.39900426 114.96633475 50.9375 113.8125 C50.9375 114.4725 50.9375 115.1325 50.9375 115.8125 C50.2775 115.8125 49.6175 115.8125 48.9375 115.8125 C49.4325 113.8325 49.4325 113.8325 49.9375 111.8125 C49.2775 111.8125 48.6175 111.8125 47.9375 111.8125 C48.50597656 110.87857422 48.50597656 110.87857422 49.0859375 109.92578125 C50.36615637 105.24534804 48.91047764 101.56474246 47.5625 97 C47.315 96.11634766 47.0675 95.23269531 46.8125 94.32226562 C46.20135113 92.147986 45.57606494 89.97885537 44.9375 87.8125 C43.9475 88.4725 42.9575 89.1325 41.9375 89.8125 C41.9375 88.1625 41.9375 86.5125 41.9375 84.8125 C42.5975 84.4825 43.2575 84.1525 43.9375 83.8125 C43.9375 83.1525 43.9375 82.4925 43.9375 81.8125 C42.6175 81.8125 41.2975 81.8125 39.9375 81.8125 C39.4425 79.8325 39.4425 79.8325 38.9375 77.8125 C39.9275 77.8125 40.9175 77.8125 41.9375 77.8125 C42.2675 78.4725 42.5975 79.1325 42.9375 79.8125 C42.6075 73.5425 42.2775 67.2725 41.9375 60.8125 C40.2875 61.4725 38.6375 62.1325 36.9375 62.8125 C35.98725021 59.11708414 35.98725021 56.50791586 36.9375 52.8125 C37.5975 52.8125 38.2575 52.8125 38.9375 52.8125 C39.4325 54.2975 39.4325 54.2975 39.9375 55.8125 C41.14311184 54.82982141 41.14311184 54.82982141 41.03515625 52.96484375 C41.02355469 52.23394531 41.01195312 51.50304687 41 50.75 C40.979375 49.450625 40.95875 48.15125 40.9375 46.8125 C37.27892468 45.49715506 34.85723519 46.15781691 31.1875 47.25 Z M0.9375 59.8125 C1.5975 60.4725 2.2575 61.1325 2.9375 61.8125 C2.9375 61.1525 2.9375 60.4925 2.9375 59.8125 C2.2775 59.8125 1.6175 59.8125 0.9375 59.8125 Z M0.9375 78.8125 C0.2775 80.1325 -0.3825 81.4525 -1.0625 82.8125 C0.9175 83.8025 0.9175 83.8025 2.9375 84.8125 C3.5975 83.1625 4.2575 81.5125 4.9375 79.8125 C3.6175 79.4825 2.2975 79.1525 0.9375 78.8125 Z M-14.0625 81.8125 C-13.0625 83.8125 -13.0625 83.8125 -13.0625 83.8125 Z M-11.0625 82.8125 C-10.0625 84.8125 -10.0625 84.8125 -10.0625 84.8125 Z M-13.0625 83.8125 C-12.0625 85.8125 -12.0625 85.8125 -12.0625 85.8125 Z M2.9375 84.8125 C3.28194881 87.28516765 3.28194881 87.28516765 3.9375 89.8125 C4.5975 90.1425 5.2575 90.4725 5.9375 90.8125 C5.9375 90.1525 5.9375 89.4925 5.9375 88.8125 C6.9275 88.8125 7.9175 88.8125 8.9375 88.8125 C8.6075 88.1525 8.2775 87.4925 7.9375 86.8125 C6.9475 86.8125 5.9575 86.8125 4.9375 86.8125 C4.2775 86.1525 3.6175 85.4925 2.9375 84.8125 Z M-12.0625 85.8125 C-11.0625 87.8125 -11.0625 87.8125 -11.0625 87.8125 Z M-10.0625 85.8125 C-9.0625 87.8125 -9.0625 87.8125 -9.0625 87.8125 Z M17.9375 85.8125 C18.2675 87.1325 18.5975 88.4525 18.9375 89.8125 C19.2675 89.1525 19.5975 88.4925 19.9375 87.8125 C19.2775 87.1525 18.6175 86.4925 17.9375 85.8125 Z M-10.0625 89.8125 C-9.0625 91.8125 -9.0625 91.8125 -9.0625 91.8125 Z M5.9375 90.8125 C6.5975 93.1225 7.2575 95.4325 7.9375 97.8125 C8.9275 96.8225 9.9175 95.8325 10.9375 94.8125 C9.2875 93.4925 7.6375 92.1725 5.9375 90.8125 Z M-9.0625 91.8125 C-8.7325 93.4625 -8.4025 95.1125 -8.0625 96.8125 C-7.7325 95.8225 -7.4025 94.8325 -7.0625 93.8125 C-7.7225 93.1525 -8.3825 92.4925 -9.0625 91.8125 Z M-7.0625 96.8125 C-6.0625 98.8125 -6.0625 98.8125 -6.0625 98.8125 Z M15.9375 96.8125 C16.9375 98.8125 16.9375 98.8125 16.9375 98.8125 Z M7.9375 98.8125 C8.01395509 101.22983965 8.01395509 101.22983965 8.9375 103.8125 C11.37395249 105.54200062 11.37395249 105.54200062 14.375 106.6875 C15.36371094 107.11804688 16.35242188 107.54859375 17.37109375 107.9921875 C19.89083982 109.12678824 19.89083982 109.12678824 21.9375 107.8125 C21.256875 107.19375 21.256875 107.19375 20.5625 106.5625 C18.9375 104.8125 18.9375 104.8125 18.125 102.6875 C17.02863761 100.47200861 17.02863761 100.47200861 14 100.125 C12.989375 100.021875 11.97875 99.91875 10.9375 99.8125 C9.9475 99.4825 8.9575 99.1525 7.9375 98.8125 Z M-6.0625 103.8125 C-5.0625 105.8125 -5.0625 105.8125 -5.0625 105.8125 Z M-5.0625 105.8125 C-4.0625 107.8125 -4.0625 107.8125 -4.0625 107.8125 Z M32.9375 108.8125 C33.9375 110.8125 33.9375 110.8125 33.9375 110.8125 Z M18.625 114.25 C18.068125 114.765625 17.51125 115.28125 16.9375 115.8125 C20.31238659 120.86099838 22.96735531 124.82245177 28.9375 126.8125 C28.9375 122.80155773 27.17649001 121.06921275 24.9375 117.8125 C24.6075 116.8225 24.2775 115.8325 23.9375 114.8125 C24.5975 114.4825 25.2575 114.1525 25.9375 113.8125 C22.14014921 112.63870426 22.14014921 112.63870426 18.625 114.25 Z M-0.0625 113.8125 C0.2675 114.8025 0.5975 115.7925 0.9375 116.8125 C0.9375 115.8225 0.9375 114.8325 0.9375 113.8125 C0.6075 113.8125 0.2775 113.8125 -0.0625 113.8125 Z M1.9375 116.8125 C2.2675 117.8025 2.5975 118.7925 2.9375 119.8125 C2.9375 118.8225 2.9375 117.8325 2.9375 116.8125 C2.6075 116.8125 2.2775 116.8125 1.9375 116.8125 Z M3.9375 119.8125 C5.2464572 122.93447478 5.2464572 122.93447478 7.9375 124.8125 C6.6285428 121.69052522 6.6285428 121.69052522 3.9375 119.8125 Z M7.9375 124.8125 C8.2675 126.4625 8.5975 128.1125 8.9375 129.8125 C9.2675 128.8225 9.5975 127.8325 9.9375 126.8125 C9.2775 126.1525 8.6175 125.4925 7.9375 124.8125 Z M11.9375 132.8125 C14.35149321 137.43504019 17.52371956 140.58091797 21.3125 144.0625 C21.87710938 144.60390625 22.44171875 145.1453125 23.0234375 145.703125 C26.20143953 148.64571947 28.43293501 150.50882146 32.9375 150.8125 C30.44767809 148.25154032 27.98519994 145.85044313 25.1875 143.625 C22.9375 141.8125 22.9375 141.8125 21.9375 139.8125 C20.9475 139.4825 19.9575 139.1525 18.9375 138.8125 C18.2259375 137.575 18.2259375 137.575 17.5 136.3125 C16.19197976 133.65377915 16.19197976 133.65377915 13.75 133 C13.151875 132.938125 12.55375 132.87625 11.9375 132.8125 Z M24.9375 132.8125 C26.65976496 136.06099977 26.65976496 136.06099977 29.9375 136.8125 C31.33189664 136.87915376 32.72919875 136.89788199 34.125 136.875 C35.383125 136.854375 36.64125 136.83375 37.9375 136.8125 C34.84326832 133.71826832 31.3851188 132.87543995 27.0625 132.6875 C26.010625 132.749375 26.010625 132.749375 24.9375 132.8125 Z M54.9375 142.8125 C55.2675 143.8025 55.5975 144.7925 55.9375 145.8125 C56.5975 145.8125 57.2575 145.8125 57.9375 145.8125 C57.9375 144.8225 57.9375 143.8325 57.9375 142.8125 C56.9475 142.8125 55.9575 142.8125 54.9375 142.8125 Z M89.9375 158.8125 C89.6075 159.4725 89.2775 160.1325 88.9375 160.8125 C89.2675 161.4725 89.5975 162.1325 89.9375 162.8125 C90.5975 162.8125 91.2575 162.8125 91.9375 162.8125 C91.9375 161.4925 91.9375 160.1725 91.9375 158.8125 C91.2775 158.8125 90.6175 158.8125 89.9375 158.8125 Z M120.9375 161.8125 C125.8875 161.8125 130.8375 161.8125 135.9375 161.8125 C135.9375 161.4825 135.9375 161.1525 135.9375 160.8125 C134.00153108 160.59038884 132.06360672 160.38527008 130.125 160.1875 C129.04605469 160.07148438 127.96710938 159.95546875 126.85546875 159.8359375 C123.74125668 159.53789844 123.74125668 159.53789844 120.9375 161.8125 Z M53.9375 162.8125 C53.6075 163.4725 53.2775 164.1325 52.9375 164.8125 C54.84947039 165.51295456 56.76730435 166.197419 58.6875 166.875 C59.75484375 167.25785156 60.8221875 167.64070312 61.921875 168.03515625 C64.86030042 168.79260011 66.16098948 168.88401741 68.9375 167.8125 C66.8140984 166.97510219 64.6887272 166.14269717 62.5625 165.3125 C61.37914063 164.8484375 60.19578125 164.384375 58.9765625 163.90625 C56.1621756 162.69962206 56.1621756 162.69962206 53.9375 162.8125 Z M68.9375 165.8125 C72.9375 166.8125 72.9375 166.8125 72.9375 166.8125 Z M83.9375 170.8125 C83.9375 171.1425 83.9375 171.4725 83.9375 171.8125 C91.62681285 172.87309488 99.18256486 172.91178082 106.9375 172.8125 C106.9375 172.4825 106.9375 172.1525 106.9375 171.8125 C99.244859 170.96449233 91.67458326 170.69097513 83.9375 170.8125 Z " fill="#020202" transform="translate(46.0625,21.1875)"/>
<path d="M0 0 C3.04577607 2.45627102 3.9400232 3.7324112 4.8125 7.625 C5 11 5 11 4 13 C1 12 1 12 -0.1875 10.3125 C-1.2048517 7.41696054 -1.19886794 5.04930835 -1 2 C-0.67 1.34 -0.34 0.68 0 0 Z " fill="#020202" transform="translate(79,99)"/>
<path d="M0 0 C2 0 2 0 4.125 1.8125 C6 4 6 4 6 7 C3.83125748 6.49396008 2.00032373 6.00016187 0 5 C0 3.35 0 1.7 0 0 Z " fill="#040404" transform="translate(47,63)"/>
<path d="M0 0 C3.16115776 1.36983503 3.9927092 1.9890638 6 5 C5.67 5.99 5.34 6.98 5 8 C2.74754119 5.31158141 1.11786042 3.35358125 0 0 Z " fill="#040404" transform="translate(105,148)"/>
<path d="M0 0 C1.32 0.33 2.64 0.66 4 1 C4 1.66 4 2.32 4 3 C2.68 2.67 1.36 2.34 0 2 C0 1.34 0 0.68 0 0 Z " fill="#050505" transform="translate(51,63)"/>
<path d="M0 0 C0.99 0.495 0.99 0.495 2 1 C2 2.65 2 4.3 2 6 C1.34 5.34 0.68 4.68 0 4 C0 2.68 0 1.36 0 0 Z " fill="#080808" transform="translate(92,124)"/>
<path d="M0 0 C0.99 0.495 0.99 0.495 2 1 C2.625 4.0625 2.625 4.0625 3 7 C0.64046906 4.64046906 0.50858587 3.22104383 0 0 Z " fill="#050505" transform="translate(79,86)"/>
<path d="M0 0 C1.485 0.99 1.485 0.99 3 2 C3 2.66 3 3.32 3 4 C2.01 3.67 1.02 3.34 0 3 C0 2.01 0 1.02 0 0 Z " fill="#070707" transform="translate(101,141)"/>
<path d="M0 0 C0.66 0 1.32 0 2 0 C2 0.99 2 1.98 2 3 C1.34 3 0.68 3 0 3 C0 2.01 0 1.02 0 0 Z " fill="#070606" transform="translate(58,103)"/>
<path d="M0 0 C0.66 0 1.32 0 2 0 C2 0.99 2 1.98 2 3 C1.34 3 0.68 3 0 3 C0 2.01 0 1.02 0 0 Z " fill="#040404" transform="translate(74,99)"/>
<path d="M0 0 C0.66 0 1.32 0 2 0 C2 0.99 2 1.98 2 3 C1.34 3 0.68 3 0 3 C0 2.01 0 1.02 0 0 Z " fill="#030303" transform="translate(64,82)"/>
<path d="M0 0 C0.99 0.495 0.99 0.495 2 1 C2 1.66 2 2.32 2 3 C1.34 3 0.68 3 0 3 C0 2.01 0 1.02 0 0 Z " fill="#070607" transform="translate(60,98)"/>
<path d="M0 0 C0.66 0 1.32 0 2 0 C2 0.66 2 1.32 2 2 C1.34 2 0.68 2 0 2 C0 1.34 0 0.68 0 0 Z " fill="#030303" transform="translate(70,122)"/>
<path d="M0 0 C0 3 0 3 0 3 Z " fill="#080808" transform="translate(90,113)"/>
<path d="M0 0 C0.66 0.66 1.32 1.32 2 2 C1.34 2 0.68 2 0 2 C0 1.34 0 0.68 0 0 Z " fill="#080808" transform="translate(77,122)"/>
<path d="" fill="#000000" transform="translate(0,0)"/>
<path d="" fill="#090909" transform="translate(0,0)"/>
<path d="" fill="#000000" transform="translate(0,0)"/>
</svg>
