<?xml version="1.0" encoding="UTF-8"?>
<svg version="1.1" xmlns="http://www.w3.org/2000/svg" width="225" height="225">
<path d="M0 0 C1.06283203 -0.00322266 2.12566406 -0.00644531 3.22070312 -0.00976562 C20.73136389 0.10906057 34.55438462 7.02819449 48.3125 17.3125 C47.81571948 21.36954092 47.01716048 23.04455248 43.8125 25.5625 C40.50687732 28.28231613 37.40792296 31.1017824 34.375 34.125 C33.62347656 34.87394531 32.87195313 35.62289062 32.09765625 36.39453125 C30.25388867 38.19470438 30.25388867 38.19470438 29.3125 40.3125 C25.79220314 39.98247217 23.63425411 38.92827143 20.8125 36.9375 C11.54783953 30.88388663 0.05274992 30.19680418 -10.5 32.375 C-20.31066085 35.02586038 -29.12012749 40.70459238 -34.6875 49.3125 C-41.26749078 61.6667684 -43.33338018 72.71336693 -39.6875 86.3125 C-35.48846941 97.85983411 -27.59679686 105.90384355 -16.6875 111.3125 C-6.23281716 115.6173694 5.38947155 115.46692501 15.82421875 111.3125 C26.85757751 106.17598995 31.55851765 99.92590084 38.3125 89.3125 C18.5125 88.8175 18.5125 88.8175 -1.6875 88.3125 C-2.54324654 84.88951383 -2.81610553 82.42928148 -2.8203125 78.9609375 C-2.82160156 77.94515625 -2.82289062 76.929375 -2.82421875 75.8828125 C-2.82035156 74.82835938 -2.81648438 73.77390625 -2.8125 72.6875 C-2.81636719 71.6253125 -2.82023437 70.563125 -2.82421875 69.46875 C-2.82292969 68.45554687 -2.82164063 67.44234375 -2.8203125 66.3984375 C-2.81918457 65.4707959 -2.81805664 64.5431543 -2.81689453 63.58740234 C-2.6875 61.3125 -2.6875 61.3125 -1.6875 59.3125 C22.0725 59.3125 45.8325 59.3125 70.3125 59.3125 C75.38763881 72.00034703 72.19014471 89.12811668 67.5 101.6875 C65.26029492 106.77223586 62.63564841 111.84998643 59.3125 116.3125 C58.6525 116.3125 57.9925 116.3125 57.3125 116.3125 C56.94125 117.488125 56.94125 117.488125 56.5625 118.6875 C55.15860901 121.63567108 54.30574263 122.2149777 51.3125 123.3125 C51.3125 123.9725 51.3125 124.6325 51.3125 125.3125 C44.26763869 131.89791384 36.43437844 137.9954533 27.3125 141.3125 C26.68472656 141.56644531 26.05695313 141.82039062 25.41015625 142.08203125 C9.61775535 148.05197051 -11.07364094 148.2394847 -26.65917969 141.45410156 C-33.59866022 138.24559347 -40.53030921 134.87797119 -46.6875 130.3125 C-46.6875 129.6525 -46.6875 128.9925 -46.6875 128.3125 C-48.0075 127.6525 -49.3275 126.9925 -50.6875 126.3125 C-50.6875 125.6525 -50.6875 124.9925 -50.6875 124.3125 C-51.26757812 124.08304687 -51.84765625 123.85359375 -52.4453125 123.6171875 C-60.4525592 118.95791851 -65.03124254 107.44010416 -68.6875 99.3125 C-69.03039062 98.57773438 -69.37328125 97.84296875 -69.7265625 97.0859375 C-72.33778355 89.5494865 -73.05183578 81.99485527 -73 74.0625 C-72.99436035 73.14791016 -72.9887207 72.23332031 -72.98291016 71.29101562 C-72.6225382 51.0102809 -64.46069574 34.04661638 -50.6875 19.3125 C-50.0275 19.3125 -49.3675 19.3125 -48.6875 19.3125 C-48.6875 18.6525 -48.6875 17.9925 -48.6875 17.3125 C-34.87286443 5.24856709 -18.05886668 -0.27680666 0 0 Z " fill="#FD8D1F" transform="translate(112.6875,39.6875)"/>
<path d="M0 0 C23.76 0 47.52 0 72 0 C77.07513881 12.68784703 73.87764471 29.81561668 69.1875 42.375 C66.94779492 47.45973586 64.32314841 52.53748643 61 57 C60.34 57 59.68 57 59 57 C58.7525 57.78375 58.505 58.5675 58.25 59.375 C56.84610901 62.32317108 55.99324263 62.9024777 53 64 C53 64.66 53 65.32 53 66 C45.95513869 72.58541384 38.12187844 78.6829533 29 82 C28.37222656 82.25394531 27.74445313 82.50789063 27.09765625 82.76953125 C9.97538543 89.24219601 -10.18948824 88.17890049 -27.0625 81.5 C-30.50177225 79.74377587 -32.38939587 78.5499951 -33.8125 74.9375 C-35.57484972 72.0620873 -37.8451787 71.82299686 -41 71 C-39.51114845 67.0748459 -37.53524258 66.08900698 -34 64 C-29.2359025 60.18403984 -27.19632788 56.98163941 -26 51 C-20.62973466 50.6497653 -16.52194357 51.62986852 -11.4140625 53.265625 C-0.69883109 56.52527468 10.02080479 55.48734739 20.0625 50.8125 C29.76408352 45.63131375 33.85676899 39.65364873 40 30 C20.2 29.505 20.2 29.505 0 29 C-0.85574654 25.57701383 -1.12860553 23.11678148 -1.1328125 19.6484375 C-1.13410156 18.63265625 -1.13539062 17.616875 -1.13671875 16.5703125 C-1.13285156 15.51585938 -1.12898438 14.46140625 -1.125 13.375 C-1.13080078 11.78171875 -1.13080078 11.78171875 -1.13671875 10.15625 C-1.13542969 9.14304687 -1.13414063 8.12984375 -1.1328125 7.0859375 C-1.13168457 6.1582959 -1.13055664 5.2306543 -1.12939453 4.27490234 C-1 2 -1 2 0 0 Z " fill="#1E9FB4" transform="translate(111,99)"/>
<path d="M0 0 C23.76 0 47.52 0 72 0 C77.46807804 13.67019509 73.45874744 32.06108548 67.96484375 45.27734375 C67 47 67 47 65 48 C65 43 65 38 65 33 C65.66 33 66.32 33 67 33 C67.185625 31.700625 67.185625 31.700625 67.375 30.375 C68 27 68 27 69.125 23.875 C70.00891603 20.97070448 70.06822446 19.77738361 69 17 C69.66 17 70.32 17 71 17 C71 13.04 71 9.08 71 5 C69.02 5 67.04 5 65 5 C64.01 4.01 64.01 4.01 63 3 C60.93125966 2.3574765 60.93125966 2.3574765 59 2 C59 2.66 59 3.32 59 4 C58.25838623 3.96447021 57.51677246 3.92894043 56.75268555 3.89233398 C53.39786801 3.73488388 50.0427211 3.58609098 46.6875 3.4375 C44.93663086 3.35338867 44.93663086 3.35338867 43.15039062 3.26757812 C42.03212891 3.21923828 40.91386719 3.17089844 39.76171875 3.12109375 C38.73006592 3.0739624 37.69841309 3.02683105 36.63549805 2.97827148 C33.88969463 2.86543745 33.88969463 2.86543745 31 4 C30.34 3.67 29.68 3.34 29 3 C29 3.66 29 4.32 29 5 C27.68 5 26.36 5 25 5 C25 6.32 25 7.64 25 9 C24.34 9.66 23.68 10.32 23 11 C25.97411124 12.23921302 28.85262818 13.30058404 32 14 C31.67 14.66 31.34 15.32 31 16 C31.7425 15.484375 32.485 14.96875 33.25 14.4375 C36 13 36 13 38.3125 13.3125 C38.869375 13.539375 39.42625 13.76625 40 14 C40 15.66666667 40 17.33333333 40 19 C42.96687001 20.64826111 45.65626525 21.44271087 49 22 C48 25 48 25 47 26 C47.66 26.33 48.32 26.66 49 27 C48.06093007 29.41475126 47.14667138 31.73925087 45.875 34 C44.82384685 36.01812662 44.82384685 36.01812662 45.0625 38.5 C45 41 45 41 44 43.3125 C40.83674507 45.98149635 38.04679006 45.26536328 34 45 C33.34 46.32 32.68 47.64 32 49 C29.69 49 27.38 49 25 49 C25.99 48.071875 25.99 48.071875 27 47.125 C32.08178247 42.04321753 36.78514879 36.42970243 40 30 C20.2 29.505 20.2 29.505 0 29 C-0.85574654 25.57701383 -1.12860553 23.11678148 -1.1328125 19.6484375 C-1.13410156 18.63265625 -1.13539062 17.616875 -1.13671875 16.5703125 C-1.13285156 15.51585938 -1.12898438 14.46140625 -1.125 13.375 C-1.12886719 12.3128125 -1.13273437 11.250625 -1.13671875 10.15625 C-1.13542969 9.14304687 -1.13414063 8.12984375 -1.1328125 7.0859375 C-1.13168457 6.1582959 -1.13055664 5.2306543 -1.12939453 4.27490234 C-1 2 -1 2 0 0 Z " fill="#318CEB" transform="translate(111,99)"/>
<path d="M0 0 C0 4.04710474 -0.75802557 7.60277876 -3.5 10.6875 C-3.995 11.120625 -4.49 11.55375 -5 12 C-9.56024983 18.84037474 -10.35253784 26.56794554 -10.69140625 34.62890625 C-10.84416016 35.80259766 -10.84416016 35.80259766 -11 37 C-11.99 37.495 -11.99 37.495 -13 38 C-12.85950482 39.47968324 -12.71245174 40.95874516 -12.5625 42.4375 C-12.48128906 43.26121094 -12.40007813 44.08492187 -12.31640625 44.93359375 C-12.21069185 46.98662025 -12.21069185 46.98662025 -11 48 C-10.70912617 52.26614956 -11.31769424 55.10966793 -13 59 C-13 59.99 -13 60.98 -13 62 C-11.68 62.33 -10.36 62.66 -9 63 C-9 64.32 -9 65.64 -9 67 C-9.66 67 -10.32 67 -11 67 C-10.67 69.64 -10.34 72.28 -10 75 C-9.34 75 -8.68 75 -8 75 C-7.67 75.99 -7.34 76.98 -7 78 C-5.35448038 78.71727778 -3.68577711 79.38325228 -2 80 C-1.34 80.66 -0.68 81.32 0 82 C0.66 81.01 1.32 80.02 2 79 C3.32 79 4.64 79 6 79 C6.33 77.68 6.66 76.36 7 75 C7.66 75 8.32 75 9 75 C9.33 75.99 9.66 76.98 10 78 C11.98 77.01 11.98 77.01 14 76 C13.01 76 12.02 76 11 76 C11.4640625 74.9171875 11.4640625 74.9171875 11.9375 73.8125 C13.75628042 68.99808123 14.02171556 65.99505384 13 61 C12.90887933 57.9980802 12.94112927 55.0024071 13 52 C11.515 51.505 11.515 51.505 10 51 C10.03480469 50.2265625 10.06960937 49.453125 10.10546875 48.65625 C10.27943033 41.96287095 9.81063067 37.08969979 7 31 C8.32 30.34 9.64 29.68 11 29 C11 29.66 11 30.32 11 31 C11.99 31 12.98 31 14 31 C14.33 29.02 14.66 27.04 15 25 C15.66 25 16.32 25 17 25 C17 23.02 17 21.04 17 19 C18.32 19.66 19.64 20.32 21 21 C20.505 19.515 20.505 19.515 20 18 C20.66 18 21.32 18 22 18 C22 17.34 22 16.68 22 16 C23.32 16.66 24.64 17.32 26 18 C25.62488281 18.43828125 25.24976563 18.8765625 24.86328125 19.328125 C17.06729096 28.98965453 13.30349601 39.60330578 14.22265625 52.00390625 C15.70876901 63.30124887 20.53001305 72.34639733 29 80 C32.22369205 82.23037182 35.52698558 84.18520763 39 86 C36.36749612 87.31625194 35.19820944 86.74813658 32.375 86.0625 C31.55773437 85.86785156 30.74046875 85.67320312 29.8984375 85.47265625 C29.27195313 85.31667969 28.64546875 85.16070312 28 85 C28.020625 85.969375 28.04125 86.93875 28.0625 87.9375 C27.29845663 93.6737025 22.36642548 97.62176555 18 101 C17.01 101 16.02 101 15 101 C15 102.32 15 103.64 15 105 C16.2065625 105.37125 16.2065625 105.37125 17.4375 105.75 C18.283125 106.1625 19.12875 106.575 20 107 C20.625 109.0625 20.625 109.0625 21 111 C21.99 111.33 22.98 111.66 24 112 C23.01 112.495 23.01 112.495 22 113 C19.72265625 111.85546875 19.72265625 111.85546875 17.0625 110.1875 C15.74958984 109.37345703 15.74958984 109.37345703 14.41015625 108.54296875 C12.59465305 107.38069361 10.79363014 106.19575343 9 105 C9 104.34 9 103.68 9 103 C7.68 102.34 6.36 101.68 5 101 C5 100.34 5 99.68 5 99 C4.41992188 98.77054687 3.83984375 98.54109375 3.2421875 98.3046875 C-4.7650592 93.64541851 -9.34374254 82.12760416 -13 74 C-13.34289063 73.26523438 -13.68578125 72.53046875 -14.0390625 71.7734375 C-16.65028355 64.2369865 -17.36433578 56.68235527 -17.3125 48.75 C-17.30686035 47.83541016 -17.3012207 46.92082031 -17.29541016 45.97851562 C-17.00237507 29.48731318 -12.00652664 12.00652664 0 0 Z " fill="#DACC11" transform="translate(57,65)"/>
<path d="M0 0 C1.06283203 -0.00322266 2.12566406 -0.00644531 3.22070312 -0.00976562 C20.73136389 0.10906057 34.55438462 7.02819449 48.3125 17.3125 C47.81571948 21.36954092 47.01716048 23.04455248 43.8125 25.5625 C40.50687732 28.28231613 37.40792296 31.1017824 34.375 34.125 C33.62347656 34.87394531 32.87195313 35.62289062 32.09765625 36.39453125 C30.25388867 38.19470438 30.25388867 38.19470438 29.3125 40.3125 C25.79220314 39.98247217 23.63425411 38.92827143 20.8125 36.9375 C11.54783953 30.88388663 0.05274992 30.19680418 -10.5 32.375 C-17.08650548 34.10740996 -22.15781404 37.44766572 -27.6875 41.3125 C-28.6775 41.8075 -28.6775 41.8075 -29.6875 42.3125 C-29.6875 40.3325 -29.6875 38.3525 -29.6875 36.3125 C-29.0275 36.3125 -28.3675 36.3125 -27.6875 36.3125 C-27.6875 36.9725 -27.6875 37.6325 -27.6875 38.3125 C-27.0275 38.3125 -26.3675 38.3125 -25.6875 38.3125 C-25.3575 36.9925 -25.0275 35.6725 -24.6875 34.3125 C-24.6875 34.9725 -24.6875 35.6325 -24.6875 36.3125 C-24.0275 36.3125 -23.3675 36.3125 -22.6875 36.3125 C-22.6875 35.3225 -22.6875 34.3325 -22.6875 33.3125 C-19.97870665 31.95810332 -17.67816732 32.24748549 -14.6875 32.3125 C-14.6875 31.6525 -14.6875 30.9925 -14.6875 30.3125 C-8.6038378 28.41135556 -2.6640603 27.95263665 3.67578125 27.74243164 C7.37347145 27.58524418 10.15394965 27.29787451 13.3125 25.3125 C13.9725 24.9825 14.6325 24.6525 15.3125 24.3125 C15.3125 25.6325 15.3125 26.9525 15.3125 28.3125 C15.9725 28.3125 16.6325 28.3125 17.3125 28.3125 C17.3125 29.3025 17.3125 30.2925 17.3125 31.3125 C18.570625 31.4775 19.82875 31.6425 21.125 31.8125 C21.83269531 31.9053125 22.54039062 31.998125 23.26953125 32.09375 C26.34134968 32.42266364 28.3520274 32.2993242 31.3125 31.3125 C30.3225 30.3225 30.3225 30.3225 29.3125 29.3125 C29.3125 28.3225 29.3125 27.3325 29.3125 26.3125 C32.57795761 24.42858215 35.59361761 23.81962033 39.3125 23.3125 C39.94987851 17.84316435 39.94987851 17.84316435 37.5625 13.3125 C35.11366138 12.04174102 35.11366138 12.04174102 31.3125 12.3125 C31.3125 11.3225 31.3125 10.3325 31.3125 9.3125 C30.68601562 9.26351562 30.05953125 9.21453125 29.4140625 9.1640625 C28.59679687 9.08929688 27.77953125 9.01453125 26.9375 8.9375 C25.71933594 8.83308594 25.71933594 8.83308594 24.4765625 8.7265625 C22.3125 8.3125 22.3125 8.3125 20.3125 6.3125 C17.8976804 6.25210781 17.8976804 6.25210781 15.25 6.625 C13.90228516 6.77388672 13.90228516 6.77388672 12.52734375 6.92578125 C10.34528122 7.08807027 10.34528122 7.08807027 9.3125 8.3125 C6.875 8.5 6.875 8.5 4.3125 8.3125 C3.6525 7.6525 2.9925 6.9925 2.3125 6.3125 C1.3225 6.3125 0.3325 6.3125 -0.6875 6.3125 C-0.6875 6.9725 -0.6875 7.6325 -0.6875 8.3125 C-1.6775 8.3125 -2.6675 8.3125 -3.6875 8.3125 C-3.6875 7.3225 -3.6875 6.3325 -3.6875 5.3125 C-6.3275 4.6525 -8.9675 3.9925 -11.6875 3.3125 C-12.0175 4.3025 -12.3475 5.2925 -12.6875 6.3125 C-16.17619383 8.52200609 -18.67683761 8.39500305 -22.75 8.0625 C-29.33893657 8.48084518 -34.99101267 11.22737008 -40.625 14.5625 C-43.6875 16.3125 -43.6875 16.3125 -46.6875 16.3125 C-33.06031972 4.75902107 -17.68068319 -0.27100986 0 0 Z " fill="#EC6865" transform="translate(112.6875,39.6875)"/>
<path d="M0 0 C3.43225111 1.91802268 6.33022976 4.10171826 9.30859375 6.66015625 C12.34568478 9.06598125 15.67678736 11.01788079 19 13 C16.36749612 14.31625194 15.19820944 13.74813658 12.375 13.0625 C11.55773437 12.86785156 10.74046875 12.67320312 9.8984375 12.47265625 C8.95871094 12.23869141 8.95871094 12.23869141 8 12 C8.020625 12.969375 8.04125 13.93875 8.0625 14.9375 C7.29845663 20.6737025 2.36642548 24.62176555 -2 28 C-2.99 28 -3.98 28 -5 28 C-5 29.32 -5 30.64 -5 32 C-4.195625 32.2475 -3.39125 32.495 -2.5625 32.75 C-1.716875 33.1625 -0.87125 33.575 0 34 C0.625 36.0625 0.625 36.0625 1 38 C2.485 38.495 2.485 38.495 4 39 C3.01 39.495 3.01 39.495 2 40 C-0.27734375 38.85546875 -0.27734375 38.85546875 -2.9375 37.1875 C-3.81277344 36.64480469 -4.68804687 36.10210937 -5.58984375 35.54296875 C-7.40534695 34.38069361 -9.20636986 33.19575343 -11 32 C-11 31.34 -11 30.68 -11 30 C-12.32 29.34 -13.64 28.68 -15 28 C-15 27.34 -15 26.68 -15 26 C-15.57234375 25.78601563 -16.1446875 25.57203125 -16.734375 25.3515625 C-19.77465229 23.53787984 -21.23223641 21.26712781 -23.25 18.375 C-23.95640625 17.37210938 -24.6628125 16.36921875 -25.390625 15.3359375 C-25.92171875 14.56507813 -26.4528125 13.79421875 -27 13 C-26.67 12.34 -26.34 11.68 -26 11 C-24.50260417 12.30208333 -23.00520833 13.60416667 -21.5078125 14.90625 C-20.04063579 16.19572458 -20.04063579 16.19572458 -18 16 C-17.67 15.34 -17.34 14.68 -17 14 C-16.319375 13.608125 -15.63875 13.21625 -14.9375 12.8125 C-11.5325152 10.71155193 -8.84862658 8.18393394 -5.96484375 5.42578125 C-4 4 -4 4 0 4 C0 2.68 0 1.36 0 0 Z " fill="#AAC825" transform="translate(77,138)"/>
<path d="M0 0 C23.76 0 47.52 0 72 0 C77.46807804 13.67019509 73.45874744 32.06108548 67.96484375 45.27734375 C67 47 67 47 65 48 C65 43 65 38 65 33 C65.66 33 66.32 33 67 33 C67.185625 31.700625 67.185625 31.700625 67.375 30.375 C68 27 68 27 69.125 23.875 C70.00891603 20.97070448 70.06822446 19.77738361 69 17 C69.66 17 70.32 17 71 17 C71 13.04 71 9.08 71 5 C69.02 5 67.04 5 65 5 C64.01 4.01 64.01 4.01 63 3 C60.93125966 2.3574765 60.93125966 2.3574765 59 2 C59 2.66 59 3.32 59 4 C58.41549072 3.97494385 57.83098145 3.9498877 57.22875977 3.92407227 C38.48978256 3.12893237 19.74762676 2.54290724 1 2 C1 10.58 1 19.16 1 28 C14.53 28 28.06 28 42 28 C42 28.33 42 28.66 42 29 C28.14 29 14.28 29 0 29 C-0.85574654 25.57701383 -1.12860553 23.11678148 -1.1328125 19.6484375 C-1.13410156 18.63265625 -1.13539062 17.616875 -1.13671875 16.5703125 C-1.13285156 15.51585938 -1.12898438 14.46140625 -1.125 13.375 C-1.12886719 12.3128125 -1.13273437 11.250625 -1.13671875 10.15625 C-1.13542969 9.14304687 -1.13414063 8.12984375 -1.1328125 7.0859375 C-1.13168457 6.1582959 -1.13055664 5.2306543 -1.12939453 4.27490234 C-1 2 -1 2 0 0 Z " fill="#9FC7EF" transform="translate(111,99)"/>
<path d="M0 0 C5.37026534 -0.3502347 9.47805643 0.62986852 14.5859375 2.265625 C23.66855025 5.02862046 32.00321724 4.24064362 41 2 C42.66534667 1.66013333 44.33129513 1.32297514 46 1 C42.56638098 4.63559661 39.2026393 7.36113346 35 10 C35 9.34 35 8.68 35 8 C33.824375 8.165 32.64875 8.33 31.4375 8.5 C27.60381529 8.98767721 23.86481395 9 20 9 C18.32900023 9.31088368 16.66128463 9.64080332 15 10 C13.68 10 12.36 10 11 10 C11 9.34 11 8.68 11 8 C4.26507107 10.52559835 -0.83547305 15.99288524 -4.234375 22.28515625 C-4.48703125 22.85105469 -4.7396875 23.41695312 -5 24 C-2.36 24.99 0.28 25.98 3 27 C3 27.66 3 28.32 3 29 C-3.625 28.25 -3.625 28.25 -7 26 C-7.268125 25.34 -7.53625 24.68 -7.8125 24 C-9.56016993 21.05655591 -11.79883842 20.83508563 -15 20 C-13.51114845 16.0748459 -11.53524258 15.08900698 -8 13 C-3.2359025 9.18403984 -1.19632788 5.98163941 0 0 Z " fill="#50C144" transform="translate(85,150)"/>
<path d="M0 0 C1.65 0 3.3 0 5 0 C4.67 0.99 4.34 1.98 4 3 C4.7425 2.484375 5.485 1.96875 6.25 1.4375 C9 0 9 0 11.3125 0.3125 C11.869375 0.539375 12.42625 0.76625 13 1 C13 2.66666667 13 4.33333333 13 6 C15.96687001 7.64826111 18.65626525 8.44271087 22 9 C21 12 21 12 20 13 C20.66 13.33 21.32 13.66 22 14 C21.06093007 16.41475126 20.14667138 18.73925087 18.875 21 C17.82384685 23.01812662 17.82384685 23.01812662 18.0625 25.5 C18 28 18 28 17 30.3125 C13.83674507 32.98149635 11.04679006 32.26536328 7 32 C6.34 33.32 5.68 34.64 5 36 C2.69 36 0.38 36 -2 36 C-1.01 35.071875 -1.01 35.071875 0 34.125 C5.73200471 28.39299529 10.63288353 21.81270169 15 15 C15.33 14.67 15.66 14.34 16 14 C-4.295 13.505 -4.295 13.505 -25 13 C-25 12.67 -25 12.34 -25 12 C-10.15 11.505 -10.15 11.505 5 11 C5.33 10.34 5.66 9.68 6 9 C3.36 9 0.72 9 -2 9 C-1.34 6.03 -0.68 3.06 0 0 Z " fill="#368CF5" transform="translate(138,112)"/>
<path d="M0 0 C2.91517292 1.07401108 4.77810176 1.77810176 7 4 C6.01 4.33 5.02 4.66 4 5 C3.34 4.67 2.68 4.34 2 4 C2.020625 4.969375 2.04125 5.93875 2.0625 6.9375 C1.29845663 12.6737025 -3.63357452 16.62176555 -8 20 C-8.99 20 -9.98 20 -11 20 C-11 21.32 -11 22.64 -11 24 C-10.195625 24.2475 -9.39125 24.495 -8.5625 24.75 C-7.716875 25.1625 -6.87125 25.575 -6 26 C-5.375 28.0625 -5.375 28.0625 -5 30 C-4.01 30.33 -3.02 30.66 -2 31 C-2.66 31.33 -3.32 31.66 -4 32 C-6.3125 30.9609375 -6.3125 30.9609375 -9 29.375 C-9.886875 28.86710937 -10.77375 28.35921875 -11.6875 27.8359375 C-14.3427992 25.72784523 -14.91082191 24.14824334 -16 21 C-18.01735205 19.65589738 -18.01735205 19.65589738 -20 19 C-19.67 17.68 -19.34 16.36 -19 15 C-17.68 15 -16.36 15 -15 15 C-14.87238281 14.12408203 -14.87238281 14.12408203 -14.7421875 13.23046875 C-13.78938009 10.36703173 -12.41734551 9.24797854 -10.125 7.3125 C-9.07699219 6.40951172 -9.07699219 6.40951172 -8.0078125 5.48828125 C-6 4 -6 4 -3 3 C-1.33289654 1.50014391 -1.33289654 1.50014391 0 0 Z " fill="#89C52E" transform="translate(83,146)"/>
<path d="M0 0 C0 4.04710474 -0.75802557 7.60277876 -3.5 10.6875 C-3.995 11.120625 -4.49 11.55375 -5 12 C-9.56024983 18.84037474 -10.35253784 26.56794554 -10.69140625 34.62890625 C-10.84416016 35.80259766 -10.84416016 35.80259766 -11 37 C-11.99 37.495 -11.99 37.495 -13 38 C-12.85950482 39.47968324 -12.71245174 40.95874516 -12.5625 42.4375 C-12.48128906 43.26121094 -12.40007813 44.08492187 -12.31640625 44.93359375 C-12.21069185 46.98662025 -12.21069185 46.98662025 -11 48 C-10.78571271 51.14288025 -10.70728218 53.38251497 -12.0703125 56.2578125 C-13.29846166 59.88033649 -12.73405575 62.38177209 -12.0625 66.125 C-10.90117484 72.70352453 -10.90117484 72.70352453 -12 76 C-16.19844343 67.22143646 -17.37571054 58.42301928 -17.3125 48.75 C-17.30686035 47.83541016 -17.3012207 46.92082031 -17.29541016 45.97851562 C-17.00237507 29.48731318 -12.00652664 12.00652664 0 0 Z " fill="#F0CE24" transform="translate(57,65)"/>
<path d="M0 0 C0.5497272 5.63470383 -1.04952165 8.38987758 -4 13 C-4.66 13 -5.32 13 -6 13 C-6.2475 13.78375 -6.495 14.5675 -6.75 15.375 C-8.15389099 18.32317108 -9.00675737 18.9024777 -12 20 C-12 20.66 -12 21.32 -12 22 C-13.390625 23.40234375 -13.390625 23.40234375 -15.25 24.9375 C-15.88808594 25.46472656 -16.52617187 25.99195313 -17.18359375 26.53515625 C-18.08271484 27.26025391 -18.08271484 27.26025391 -19 28 C-19.763125 28.61875 -20.52625 29.2375 -21.3125 29.875 C-23 31 -23 31 -25 31 C-25 30.01 -25 29.02 -25 28 C-24.34 27.67 -23.68 27.34 -23 27 C-23.33 26.01 -23.66 25.02 -24 24 C-24.03874921 22.33378384 -24.0450286 20.66605828 -24 19 C-19.375 16.875 -19.375 16.875 -16 18 C-16.04125 17.278125 -16.0825 16.55625 -16.125 15.8125 C-15.99078695 12.79270631 -15.24829381 10.73064271 -14 8 C-13.01 8 -12.02 8 -11 8 C-10.01 7.67 -9.02 7.34 -8 7 C-8 5.02 -8 3.04 -8 1 C-1.125 0 -1.125 0 0 0 Z " fill="#2B8FE6" transform="translate(176,143)"/>
<path d="M0 0 C1.32 0.66 2.64 1.32 4 2 C3.62488281 2.43828125 3.24976562 2.8765625 2.86328125 3.328125 C-4.93270904 12.98965453 -8.69650399 23.60330578 -7.77734375 36.00390625 C-6.94440356 42.33586904 -5.17559096 47.39325175 -2.0234375 52.94140625 C-1 55 -1 55 -1 58 C-1.99 58 -2.98 58 -4 58 C-4 56.35 -4 54.7 -4 53 C-4.66 53 -5.32 53 -6 53 C-8.5915262 47.06108578 -9.40368295 42.45892714 -9 36 C-9.99 35.67 -10.98 35.34 -12 35 C-11.96519531 34.2265625 -11.93039063 33.453125 -11.89453125 32.65625 C-11.72056967 25.96287095 -12.18936933 21.08969979 -15 15 C-13.68 14.34 -12.36 13.68 -11 13 C-11 13.66 -11 14.32 -11 15 C-10.01 15 -9.02 15 -8 15 C-7.67 13.02 -7.34 11.04 -7 9 C-6.34 9 -5.68 9 -5 9 C-5 7.02 -5 5.04 -5 3 C-3.68 3.66 -2.36 4.32 -1 5 C-1.33 4.01 -1.66 3.02 -2 2 C-1.34 2 -0.68 2 0 2 C0 1.34 0 0.68 0 0 Z " fill="#F6C960" transform="translate(79,81)"/>
<path d="M0 0 C1.32 0 2.64 0 4 0 C4 0.66 4 1.32 4 2 C10.27 2.66 16.54 3.32 23 4 C18.7014424 6.1492788 16.68841718 6.08225293 12 6 C10.32900023 6.31088368 8.66128463 6.64080332 7 7 C5.68 7 4.36 7 3 7 C3 6.34 3 5.68 3 5 C-3.73492893 7.52559835 -8.83547305 12.99288524 -12.234375 19.28515625 C-12.61335938 20.13400391 -12.61335938 20.13400391 -13 21 C-10.36 21.99 -7.72 22.98 -5 24 C-5 24.66 -5 25.32 -5 26 C-11.625 25.25 -11.625 25.25 -15 23 C-16.1875 20.375 -16.1875 20.375 -17 18 C-16.01 17.67 -15.02 17.34 -14 17 C-12.38092444 14.55419827 -12.38092444 14.55419827 -10.9375 11.625 C-6.4415212 2.95336658 -6.4415212 2.95336658 -1 1 C-0.67 0.67 -0.34 0.34 0 0 Z " fill="#31BF51" transform="translate(93,153)"/>
<path d="M0 0 C1.06283203 -0.00322266 2.12566406 -0.00644531 3.22070312 -0.00976562 C19.09797651 0.09797651 19.09797651 0.09797651 23.3125 4.3125 C21.49956911 4.17212479 19.6871557 4.02505111 17.875 3.875 C16.36099609 3.75318359 16.36099609 3.75318359 14.81640625 3.62890625 C12.3125 3.3125 12.3125 3.3125 11.3125 2.3125 C9.60477642 2.22536169 7.89351351 2.20549993 6.18359375 2.21484375 C5.14912109 2.21806641 4.11464844 2.22128906 3.04882812 2.22460938 C1.96021484 2.23298828 0.87160156 2.24136719 -0.25 2.25 C-1.34248047 2.25451172 -2.43496094 2.25902344 -3.56054688 2.26367188 C-6.26958495 2.27550174 -8.97851599 2.29198457 -11.6875 2.3125 C-11.87699219 3.26382813 -11.87699219 3.26382813 -12.0703125 4.234375 C-12.6875 6.3125 -12.6875 6.3125 -14.5625 7.5625 C-17.41234486 8.5683276 -19.75499001 8.30699061 -22.75 8.0625 C-29.33893657 8.48084518 -34.99101267 11.22737008 -40.625 14.5625 C-43.6875 16.3125 -43.6875 16.3125 -46.6875 16.3125 C-33.06031972 4.75902107 -17.68068319 -0.27100986 0 0 Z " fill="#F7695A" transform="translate(112.6875,39.6875)"/>
<path d="M0 0 C1.29442017 0.00616333 1.29442017 0.00616333 2.61499023 0.01245117 C4.01974609 0.01535156 4.01974609 0.01535156 5.45288086 0.01831055 C6.43321289 0.03055664 7.41354492 0.04280273 8.42358398 0.05541992 C9.4077832 0.05606445 10.39198242 0.05670898 11.40600586 0.05737305 C18.72090866 0.1027446 18.72090866 0.1027446 19.86108398 1.24291992 C21.87419848 1.63861101 23.89705606 1.98544183 25.92358398 2.30541992 C27.02831055 2.48202148 28.13303711 2.65862305 29.27124023 2.84057617 C30.12588867 2.97334961 30.98053711 3.10612305 31.86108398 3.24291992 C31.53108398 4.56291992 31.20108398 5.88291992 30.86108398 7.24291992 C29.87108398 6.58291992 28.88108398 5.92291992 27.86108398 5.24291992 C25.37051101 5.18009147 25.37051101 5.18009147 22.73608398 5.55541992 C21.84663086 5.65467773 20.95717773 5.75393555 20.04077148 5.85620117 C17.88989633 6.02320476 17.88989633 6.02320476 16.86108398 7.24291992 C14.42358398 7.43041992 14.42358398 7.43041992 11.86108398 7.24291992 C11.20108398 6.58291992 10.54108398 5.92291992 9.86108398 5.24291992 C8.87108398 5.24291992 7.88108398 5.24291992 6.86108398 5.24291992 C6.86108398 5.90291992 6.86108398 6.56291992 6.86108398 7.24291992 C5.87108398 7.24291992 4.88108398 7.24291992 3.86108398 7.24291992 C3.86108398 6.25291992 3.86108398 5.26291992 3.86108398 4.24291992 C1.22108398 3.58291992 -1.41891602 2.92291992 -4.13891602 2.24291992 C-2.13891602 0.24291992 -2.13891602 0.24291992 0 0 Z " fill="#F0483F" transform="translate(105.138916015625,40.757080078125)"/>
<path d="M0 0 C0.99 0 1.98 0 3 0 C4.78295213 4.79168384 6.09427355 8.46949242 4 13.3125 C0.83674507 15.98149635 -1.95320994 15.26536328 -6 15 C-6.66 16.32 -7.32 17.64 -8 19 C-10.31 19 -12.62 19 -15 19 C-14.34 18.38125 -13.68 17.7625 -13 17.125 C-8.00847068 12.13347068 -2.91534303 6.47355657 0 0 Z " fill="#3993E7" transform="translate(151,129)"/>
<path d="M0 0 C0.66 0 1.32 0 2 0 C2 0.99 2 1.98 2 3 C3.134375 3.433125 4.26875 3.86625 5.4375 4.3125 C6.613125 4.869375 7.78875 5.42625 9 6 C9.495 7.485 9.495 7.485 10 9 C8.2984375 8.566875 8.2984375 8.566875 6.5625 8.125 C5.0417863 7.74951514 3.52094608 7.37454246 2 7 C1.25621094 6.80921875 0.51242188 6.6184375 -0.25390625 6.421875 C-10.56165017 3.91216344 -20.69028245 4.54337212 -30.14453125 9.72265625 C-32.80937391 11.42354534 -35.40923922 13.18925322 -38 15 C-38.99 15.495 -38.99 15.495 -40 16 C-40 14.02 -40 12.04 -40 10 C-39.34 10 -38.68 10 -38 10 C-38 10.66 -38 11.32 -38 12 C-37.34 12 -36.68 12 -36 12 C-35.67 10.68 -35.34 9.36 -35 8 C-35 8.66 -35 9.32 -35 10 C-34.34 10 -33.68 10 -33 10 C-33 9.01 -33 8.02 -33 7 C-30.29120665 5.64560332 -27.99066732 5.93498549 -25 6 C-25 5.34 -25 4.68 -25 4 C-18.80072842 2.06272763 -12.82268297 1.6232417 -6.37304688 1.34204102 C-2.89189087 1.48790367 -2.89189087 1.48790367 0 0 Z " fill="#ED6764" transform="translate(123,66)"/>
<path d="M0 0 C1.65 0.66 3.3 1.32 5 2 C4.67 2.66 4.34 3.32 4 4 C2.68 3.67 1.36 3.34 0 3 C0.020625 3.969375 0.04125 4.93875 0.0625 5.9375 C-0.70154337 11.6737025 -5.63357452 15.62176555 -10 19 C-10.99 19 -11.98 19 -13 19 C-13 20.32 -13 21.64 -13 23 C-12.195625 23.2475 -11.39125 23.495 -10.5625 23.75 C-9.716875 24.1625 -8.87125 24.575 -8 25 C-7.375 27.0625 -7.375 27.0625 -7 29 C-6.01 29.33 -5.02 29.66 -4 30 C-4.66 30.33 -5.32 30.66 -6 31 C-8.34765625 29.92578125 -8.34765625 29.92578125 -11.0625 28.3125 C-11.96097656 27.79300781 -12.85945313 27.27351563 -13.78515625 26.73828125 C-16 25 -16 25 -16.92578125 22.91796875 C-16.96251953 21.96857422 -16.96251953 21.96857422 -17 21 C-15.71034824 19.62437146 -14.37310707 18.29233607 -13 17 C-12.2127322 14.8618034 -12.2127322 14.8618034 -12 13 C-11.01 13 -10.02 13 -9 13 C-8.731875 12.401875 -8.46375 11.80375 -8.1875 11.1875 C-7.00082594 9.00152146 -5.90400887 7.58667406 -4 6 C-3.34 6 -2.68 6 -2 6 C-1.34 4.02 -0.68 2.04 0 0 Z " fill="#6BC241" transform="translate(85,147)"/>
<path d="M0 0 C5.264829 1.81545828 9.4943313 3.73339019 14 7 C13.01 7.495 13.01 7.495 12 8 C9.66573861 6.85089449 7.50584503 5.48937312 5.2890625 4.12890625 C2.827475 2.7051271 2.827475 2.7051271 -1 3 C-1.33 3.99 -1.66 4.98 -2 6 C-2.99 5.67 -3.98 5.34 -5 5 C-3.35 3.35 -1.7 1.7 0 0 Z M-32 5 C-27.93210857 7.08891722 -26.116831 8.96794095 -24 13 C-23.01 14.485 -23.01 14.485 -22 16 C-17.68607774 15.5206753 -15.83430453 14.2542015 -13 11 C-12.01 11.33 -11.02 11.66 -10 12 C-10.99 12.33 -11.98 12.66 -13 13 C-13.73323796 15.01508358 -13.73323796 15.01508358 -14 17 C-15.32 17 -16.64 17 -18 17 C-18 18.32 -18 19.64 -18 21 C-15.525 21.99 -15.525 21.99 -13 23 C-13.33 23.99 -13.66 24.98 -14 26 C-14.66 26 -15.32 26 -16 26 C-16 25.34 -16 24.68 -16 24 C-17.32 23.34 -18.64 22.68 -20 22 C-20 21.34 -20 20.68 -20 20 C-20.85851562 19.67515625 -20.85851562 19.67515625 -21.734375 19.34375 C-24.74885559 17.55585116 -26.22666458 15.34765726 -28.25 12.5 C-28.95640625 11.5203125 -29.6628125 10.540625 -30.390625 9.53125 C-32 7 -32 7 -32 5 Z " fill="#ADD361" transform="translate(82,144)"/>
<path d="M0 0 C0.33 0 0.66 0 1 0 C2.44177951 13.96332111 1.55518677 24.26636133 -5 37 C-5.33 37 -5.66 37 -6 37 C-6 32 -6 27 -6 22 C-5.34 22 -4.68 22 -4 22 C-3.87625 21.13375 -3.7525 20.2675 -3.625 19.375 C-3 16 -3 16 -1.875 12.875 C-0.99108397 9.97070448 -0.93177554 8.77738361 -2 6 C-1.34 6 -0.68 6 0 6 C0 4.02 0 2.04 0 0 Z " fill="#4F91ED" transform="translate(182,110)"/>
<path d="M0 0 C0.71285156 0.20496094 1.42570312 0.40992188 2.16015625 0.62109375 C13.71088321 3.87022152 23.3630589 4.89817354 35 2 C36.66534667 1.66013333 38.33129513 1.32297514 40 1 C36.56638098 4.63559661 33.2026393 7.36113346 29 10 C29 9.34 29 8.68 29 8 C27.92621094 7.95101562 26.85242188 7.90203125 25.74609375 7.8515625 C24.30987358 7.77646602 22.87367681 7.70092124 21.4375 7.625 C20.73302734 7.5940625 20.02855469 7.563125 19.30273438 7.53125 C14.58704259 7.27047442 10.49614504 6.45341877 6 5 C6 4.34 6 3.68 6 3 C5.2575 3.309375 4.515 3.61875 3.75 3.9375 C1.49307824 4.8094925 -0.6450153 5.47667007 -3 6 C-2.01 4.02 -1.02 2.04 0 0 Z " fill="#4FBF8A" transform="translate(91,150)"/>
<path d="M0 0 C3.53600465 1.91135386 5.78972846 3.62642766 8 7 C5 5.5 5 5.5 2 4 C2 4.66 2 5.32 2 6 C1.278125 6.2475 0.55625 6.495 -0.1875 6.75 C-4.42009783 8.63115459 -7.31987873 11.23038908 -10.375 14.6875 C-13.58671198 17.51686532 -15.79496779 17.75264516 -20 18 C-17.737436 14.54661284 -15.50404963 13.10242978 -12 11 C-9.95018738 9.17885174 -7.94637006 7.32098364 -5.96484375 5.42578125 C-4 4 -4 4 0 4 C0 2.68 0 1.36 0 0 Z " fill="#C6CB18" transform="translate(77,138)"/>
<path d="M0 0 C0.33 0 0.66 0 1 0 C1.12534195 7.52051728 1.12534195 7.52051728 0.5078125 9.8828125 C-1.4025516 17.84756129 -0.28173205 27.20547007 2 35 C2.33 35.33 2.66 35.66 3 36 C3.23481693 38.18292774 3.41363323 40.37203174 3.5625 42.5625 C3.64628906 43.76003906 3.73007812 44.95757812 3.81640625 46.19140625 C3.87699219 47.11824219 3.93757813 48.04507813 4 49 C-1.96092087 43.03907913 -2.24144094 32.19584721 -2.27734375 24.2097168 C-2.26832031 23.33613525 -2.25929687 22.46255371 -2.25 21.5625 C-2.24613281 20.64960205 -2.24226563 19.7367041 -2.23828125 18.79614258 C-2.1560209 12.38154942 -1.63363127 6.22821921 0 0 Z " fill="#F7E781" transform="translate(42,92)"/>
<path d="M0 0 C1.79240663 0.11389875 3.58394835 0.24147687 5.375 0.375 C6.87160156 0.47941406 6.87160156 0.47941406 8.3984375 0.5859375 C11 1 11 1 13 3 C14.93991404 3.42137285 14.93991404 3.42137285 17.0625 3.5625 C21 4 21 4 22 5 C23.55948542 5.15686249 25.12542668 5.25076639 26.69140625 5.31640625 C27.63564453 5.35830078 28.57988281 5.40019531 29.55273438 5.44335938 C31.04256836 5.50233398 31.04256836 5.50233398 32.5625 5.5625 C33.55958984 5.60568359 34.55667969 5.64886719 35.58398438 5.69335938 C38.0558415 5.79980298 40.5278031 5.90181928 43 6 C43 6.33 43 6.66 43 7 C28.50455786 8.79838819 13.06110001 8.14663963 0 1 C0 0.67 0 0.34 0 0 Z " fill="#9BDFC0" transform="translate(81,178)"/>
<path d="M0 0 C3 1 3 1 5 3 C5.66 3.33 6.32 3.66 7 4 C5.7978674 8.67496012 3.45867887 10.46383341 -0.34375 13.08203125 C-2 14 -2 14 -4 14 C-4 13.01 -4 12.02 -4 11 C-3.34 10.67 -2.68 10.34 -2 10 C-2.33 9.01 -2.66 8.02 -3 7 C-3.25 4.4375 -3.25 4.4375 -3 2 C-2.01 1.34 -1.02 0.68 0 0 Z " fill="#219CBD" transform="translate(155,160)"/>
<path d="M0 0 C5.80389267 1.36338161 10.33578715 3.66183193 15.375 6.8125 C16.09816406 7.23853516 16.82132813 7.66457031 17.56640625 8.10351562 C22.76792874 11.32884993 22.76792874 11.32884993 23.9765625 14.82421875 C23.98429687 15.54222656 23.99203125 16.26023437 24 17 C22.68 17.33 21.36 17.66 20 18 C20 17.0925 20 16.185 20 15.25 C19.34741695 12.0007782 19.34741695 12.0007782 17.29296875 10.7109375 C13.53324128 8.77178307 11.33209794 8 7 8 C7 7.01 7 6.02 7 5 C6.401875 4.855625 5.80375 4.71125 5.1875 4.5625 C3.43849596 4.1127561 1.71322977 3.57107659 0 3 C0 2.01 0 1.02 0 0 Z " fill="#E78F86" transform="translate(137,44)"/>
<path d="M0 0 C0.66 1.32 1.32 2.64 2 4 C0.71937515 5.7074998 -0.61767557 7.37373596 -2 9 C-2.66 9 -3.32 9 -4 9 C-4 9.66 -4 10.32 -4 11 C-5.32 11 -6.64 11 -8 11 C-8.33 10.34 -8.66 9.68 -9 9 C-9.66 8.67 -10.32 8.34 -11 8 C-10.01 7.67 -9.02 7.34 -8 7 C-8 5.35 -8 3.7 -8 2 C-7.236875 1.855625 -6.47375 1.71125 -5.6875 1.5625 C-2.91827092 1.0367406 -2.91827092 1.0367406 0 0 Z " fill="#44A3D5" transform="translate(168,154)"/>
<path d="M0 0 C2.475 0.99 2.475 0.99 5 2 C5 3.32 5 4.64 5 6 C4.01 6.495 4.01 6.495 3 7 C2.87625 7.639375 2.7525 8.27875 2.625 8.9375 C2 11 2 11 -0.0625 12.25 C-0.701875 12.4975 -1.34125 12.745 -2 13 C-2 13.66 -2 14.32 -2 15 C-4.3125 16.125 -4.3125 16.125 -7 17 C-7.99 16.34 -8.98 15.68 -10 15 C-10 14.01 -10 13.02 -10 12 C-6.73454239 10.11608215 -3.71888239 9.50712033 0 9 C0 6.03 0 3.06 0 0 Z " fill="#F44539" transform="translate(152,54)"/>
<path d="M0 0 C0.33 0.66 0.66 1.32 1 2 C3.02463255 2.65213292 3.02463255 2.65213292 5 3 C-2.48768021 7.00503825 -8.85302515 7.20695559 -17.1875 7.25 C-18.7024707 7.2809375 -18.7024707 7.2809375 -20.24804688 7.3125 C-21.21162109 7.31765625 -22.17519531 7.3228125 -23.16796875 7.328125 C-24.04735107 7.3374707 -24.9267334 7.34681641 -25.83276367 7.35644531 C-26.90554565 7.18000488 -26.90554565 7.18000488 -28 7 C-28.66 6.01 -29.32 5.02 -30 4 C-29.01 3.67 -28.02 3.34 -27 3 C-27 3.99 -27 4.98 -27 6 C-24.24968413 5.85888117 -21.49984582 5.71228835 -18.75 5.5625 C-17.97269531 5.52318359 -17.19539063 5.48386719 -16.39453125 5.44335938 C-15.64042969 5.40146484 -14.88632813 5.35957031 -14.109375 5.31640625 C-13.41811523 5.27974854 -12.72685547 5.24309082 -12.01464844 5.20532227 C-9.93371671 4.99324476 -8.01427578 4.55491323 -6 4 C-6 3.34 -6 2.68 -6 2 C-4.02 1.34 -2.04 0.68 0 0 Z " fill="#1CAE6A" transform="translate(131,177)"/>
<path d="M0 0 C1.32 0 2.64 0 4 0 C4 0.66 4 1.32 4 2 C10.27 2.66 16.54 3.32 23 4 C18.7014424 6.1492788 16.68841718 6.08225293 12 6 C10.32900023 6.31088368 8.66128463 6.64080332 7 7 C5.68 7 4.36 7 3 7 C3 6.34 3 5.68 3 5 C1.02 5.99 1.02 5.99 -1 7 C-1.04254356 5.00045254 -1.04080783 2.99958364 -1 1 C-0.67 0.67 -0.34 0.34 0 0 Z " fill="#19BC5D" transform="translate(93,153)"/>
<path d="M0 0 C1.07445366 3.22336099 0.89800262 4.63642335 0.4375 7.9375 C-0.51223038 17.53610837 1.22043907 25.57007918 5.9765625 33.94140625 C7 36 7 36 7 39 C6.01 39 5.02 39 4 39 C4 37.35 4 35.7 4 34 C3.34 34 2.68 34 2 34 C-2.4270271 23.41363086 -3.11337265 12.27132078 -1 1 C-0.67 0.67 -0.34 0.34 0 0 Z " fill="#F7E381" transform="translate(71,100)"/>
<path d="M0 0 C0 4.04710474 -0.75802557 7.60277876 -3.5 10.6875 C-3.995 11.120625 -4.49 11.55375 -5 12 C-6.99919476 14.99879215 -7.91200025 17.59093411 -9 21 C-9.33 21.66 -9.66 22.32 -10 23 C-10.66 23 -11.32 23 -12 23 C-12 24.32 -12 25.64 -12 27 C-12.66 27 -13.32 27 -14 27 C-12.66416253 16.51522915 -6.73428391 7.88987109 0 0 Z " fill="#F4D474" transform="translate(57,65)"/>
<path d="M0 0 C2.0625 0.4375 2.0625 0.4375 4 1 C-2.71612903 8.23870968 -2.71612903 8.23870968 -8 10 C-8.53625 10.53625 -9.0725 11.0725 -9.625 11.625 C-10.07875 12.07875 -10.5325 12.5325 -11 13 C-11.99 13 -12.98 13 -14 13 C-14 13.66 -14 14.32 -14 15 C-14.99 15.33 -15.98 15.66 -17 16 C-17.33 14.68 -17.66 13.36 -18 12 C-16.329375 11.87625 -16.329375 11.87625 -14.625 11.75 C-13.42875 11.5025 -12.2325 11.255 -11 11 C-10.30559127 9.6809023 -9.64213895 8.34531773 -9 7 C-7.08984375 5.33203125 -7.08984375 5.33203125 -4.9375 3.8125 C-4.22464844 3.30332031 -3.51179688 2.79414063 -2.77734375 2.26953125 C-2.19082031 1.85058594 -1.60429688 1.43164062 -1 1 C-0.67 0.67 -0.34 0.34 0 0 Z " fill="#B8C91D" transform="translate(75,144)"/>
<path d="M0 0 C1.09441406 -0.01224609 2.18882813 -0.02449219 3.31640625 -0.03710938 C9.77794731 -0.04871693 15.53086418 0.37887377 21.75 2.1875 C22.41 2.8475 23.07 3.5075 23.75 4.1875 C21.93706911 4.04712479 20.1246557 3.90005111 18.3125 3.75 C16.79849609 3.62818359 16.79849609 3.62818359 15.25390625 3.50390625 C12.75 3.1875 12.75 3.1875 11.75 2.1875 C10.21218409 2.08847893 8.66990556 2.05670433 7.12890625 2.0546875 C6.19369141 2.05339844 5.25847656 2.05210938 4.29492188 2.05078125 C2.81862305 2.05658203 2.81862305 2.05658203 1.3125 2.0625 C0.33216797 2.05863281 -0.64816406 2.05476563 -1.65820312 2.05078125 C-2.59470703 2.05207031 -3.53121094 2.05335937 -4.49609375 2.0546875 C-5.35904053 2.05581543 -6.2219873 2.05694336 -7.11108398 2.05810547 C-9.30256423 2.05028731 -9.30256423 2.05028731 -11.25 3.1875 C-12.95702735 3.25746014 -14.66668003 3.27190154 -16.375 3.25 C-17.28507812 3.24097656 -18.19515625 3.23195312 -19.1328125 3.22265625 C-19.83148438 3.21105469 -20.53015625 3.19945312 -21.25 3.1875 C-14.55170351 -0.53377583 -7.45434781 0.00432889 0 0 Z " fill="#F3A8A5" transform="translate(112.25,39.8125)"/>
<path d="M0 0 C0.33 0.66 0.66 1.32 1 2 C1.99 2 2.98 2 4 2 C3.34 8.93 2.68 15.86 2 23 C1.34 22.67 0.68 22.34 0 22 C0.03480469 21.2265625 0.06960937 20.453125 0.10546875 19.65625 C0.27943033 12.96287095 -0.18936933 8.08969979 -3 2 C-2.01 1.34 -1.02 0.68 0 0 Z " fill="#F8D00F" transform="translate(67,94)"/>
<path d="M0 0 C0.66 0 1.32 0 2 0 C1.25 7.625 1.25 7.625 -1 11 C-1 11.66 -1 12.32 -1 13 C-1.763125 12.835 -2.52625 12.67 -3.3125 12.5 C-6.03596236 11.90854604 -6.03596236 11.90854604 -9 12 C-8.34 11.34 -7.68 10.68 -7 10 C-6.690625 9.195625 -6.38125 8.39125 -6.0625 7.5625 C-5.00456519 5.01101018 -4.14651162 3.6993217 -2 2 C-1.34 2 -0.68 2 0 2 C0 1.34 0 0.68 0 0 Z " fill="#F2AE41" transform="translate(64,57)"/>
<path d="M0 0 C1.34155445 4.02466335 0.22380042 5.72149865 -1.3125 9.625 C-1.76238281 10.79289063 -2.21226562 11.96078125 -2.67578125 13.1640625 C-4 16 -4 16 -6 17 C-6 12 -6 7 -6 2 C-4.02 2 -2.04 2 0 2 C0 1.34 0 0.68 0 0 Z " fill="#5A97ED" transform="translate(182,130)"/>
<path d="M0 0 C0.66 0 1.32 0 2 0 C2 1.32 2 2.64 2 4 C2.66 4 3.32 4 4 4 C4 4.99 4 5.98 4 7 C5.2375 7.144375 6.475 7.28875 7.75 7.4375 C10.56504499 7.78688502 13.2701497 8.20379366 16 9 C16 10.32 16 11.64 16 13 C15.071875 12.835 14.14375 12.67 13.1875 12.5 C10.04378647 11.92251612 10.04378647 11.92251612 7 12 C6.67 10.68 6.34 9.36 6 8 C4.35 8 2.7 8 1 8 C-0.42944945 5.64561267 -1.08661261 4.51967567 -0.625 1.75 C-0.41875 1.1725 -0.2125 0.595 0 0 Z " fill="#F2554B" transform="translate(126,64)"/>
<path d="M0 0 C3.3 0 6.6 0 10 0 C10 0.33 10 0.66 10 1 C9.26136719 1.13535156 8.52273437 1.27070312 7.76171875 1.41015625 C-0.37814243 3.13742031 -6.2226642 6.2631524 -13 11 C-13.99 11.495 -13.99 11.495 -15 12 C-15 10.02 -15 8.04 -15 6 C-14.34 6 -13.68 6 -13 6 C-13 6.66 -13 7.32 -13 8 C-12.34 8 -11.68 8 -11 8 C-10.67 6.68 -10.34 5.36 -10 4 C-10 4.66 -10 5.32 -10 6 C-9.34 6 -8.68 6 -8 6 C-8 5.01 -8 4.02 -8 3 C-5.29120665 1.64560332 -2.99066732 1.93498549 0 2 C0 1.34 0 0.68 0 0 Z " fill="#F1A380" transform="translate(98,70)"/>
<path d="M0 0 C-1.59529501 3.19059002 -4.81777949 3.79111176 -8 5 C-9.11568359 5.42539063 -9.11568359 5.42539063 -10.25390625 5.859375 C-14.64603685 7.43489393 -18.26569653 8.36417719 -23 8 C-23 7.67 -23 7.34 -23 7 C-19.37 6.01 -15.74 5.02 -12 4 C-12 3.01 -12 2.02 -12 1 C-7.93631321 0.22596442 -4.13574827 -0.0984702 0 0 Z " fill="#68CAAA" transform="translate(148,176)"/>
<path d="M0 0 C0.33 0 0.66 0 1 0 C1 1.65 1 3.3 1 5 C0.34 5 -0.32 5 -1 5 C-0.67 6.98 -0.34 8.96 0 11 C-2.97 10.505 -2.97 10.505 -6 10 C-6 9.34 -6 8.68 -6 8 C-6.66 7.34 -7.32 6.68 -8 6 C-5.63707344 3.47411298 -4.33537489 2.11179163 -1 1 C-0.67 0.67 -0.34 0.34 0 0 Z " fill="#0BB083" transform="translate(135,149)"/>
<path d="M0 0 C0.66 0.33 1.32 0.66 2 1 C2 2.32 2 3.64 2 5 C1.34 5 0.68 5 0 5 C0.33 7.64 0.66 10.28 1 13 C1.66 13 2.32 13 3 13 C3.33 15.97 3.66 18.94 4 22 C-1.3631277 16.11785994 -1.11010039 10.67141901 -1.1328125 3.07421875 C-1 1 -1 1 0 0 Z " fill="#F3D538" transform="translate(46,127)"/>
<path d="M0 0 C0.66 0.33 1.32 0.66 2 1 C1.01 2.485 1.01 2.485 0 4 C-0.63292383 6.11280345 -0.63292383 6.11280345 -1 8 C-1.33 7.34 -1.66 6.68 -2 6 C-4.31 6.33 -6.62 6.66 -9 7 C-9 7.66 -9 8.32 -9 9 C-10.65 9.33 -12.3 9.66 -14 10 C-14 9.34 -14 8.68 -14 8 C-9.56371012 4.4690754 -5.3492243 1.88796152 0 0 Z " fill="#F07230" transform="translate(80,49)"/>
<path d="M0 0 C0.33 0.66 0.66 1.32 1 2 C-0.65 3.65 -2.3 5.3 -4 7 C-4 4 -4 4 -2 1.8125 C-1.34 1.214375 -0.68 0.61625 0 0 Z M-7 7 C-6.34 7.33 -5.68 7.66 -5 8 C-5.99 9.485 -5.99 9.485 -7 11 C-7.99 11 -8.98 11 -10 11 C-10.061875 11.78375 -10.12375 12.5675 -10.1875 13.375 C-10.455625 14.24125 -10.72375 15.1075 -11 16 C-13.5625 17.3125 -13.5625 17.3125 -16 18 C-14.59928507 12.70841026 -11.14512755 10.22521956 -7 7 Z " fill="#78C538" transform="translate(83,149)"/>
<path d="M0 0 C0.99 1.32 1.98 2.64 3 4 C1.8125 5.5 1.8125 5.5 0 7 C-2.6875 7.1875 -2.6875 7.1875 -5 7 C-5.33 5.35 -5.66 3.7 -6 2 C-4.02 1.34 -2.04 0.68 0 0 Z " fill="#4195F1" transform="translate(133,104)"/>
<path d="M0 0 C1.32 0.66 2.64 1.32 4 2 C3.01 2.33 2.02 2.66 1 3 C0.01 3.495 0.01 3.495 -1 4 C-1.72886734 6.7696959 -2 9.12862585 -2 12 C-3.32 12 -4.64 12 -6 12 C-6.99 12.66 -7.98 13.32 -9 14 C-7.87548273 11.0280615 -6.77706209 8.66559313 -5 6 C-4.34 6 -3.68 6 -3 6 C-3 4.68 -3 3.36 -3 2 C-2.01 1.34 -1.02 0.68 0 0 Z " fill="#F9B80F" transform="translate(58,68)"/>
<path d="M0 0 C1.32 0 2.64 0 4 0 C4 0.66 4 1.32 4 2 C4.99 2.33 5.98 2.66 7 3 C6.67 3.66 6.34 4.32 6 5 C2.9375 5.625 2.9375 5.625 0 6 C0 6.66 0 7.32 0 8 C-1.65 8 -3.3 8 -5 8 C-4.360625 7.05125 -3.72125 6.1025 -3.0625 5.125 C-1.07379437 2.24712173 -1.07379437 2.24712173 0 0 Z " fill="#F84A3A" transform="translate(98,64)"/>
<path d="M0 0 C4.0845058 2.09744893 5.87992311 3.95258048 8 8 C8.53625 8.886875 9.0725 9.77375 9.625 10.6875 C10.46371542 12.09806684 11.26608688 13.53217375 12 15 C7.96369732 13.47275034 6.21014954 10.96243269 3.75 7.5 C3.04359375 6.5203125 2.3371875 5.540625 1.609375 4.53125 C0 2 0 2 0 0 Z " fill="#E1E17A" transform="translate(50,149)"/>
<path d="M0 0 C0.33 2.64 0.66 5.28 1 8 C0.34 8 -0.32 8 -1 8 C-1 7.34 -1 6.68 -1 6 C-2.65 5.67 -4.3 5.34 -6 5 C-6 3.35 -6 1.7 -6 0 C-3.50907189 -1.24546405 -2.58919267 -0.7767578 0 0 Z " fill="#F87C25" transform="translate(86,70)"/>
<path d="M0 0 C0.66 0 1.32 0 2 0 C2 0.66 2 1.32 2 2 C2.99 1.67 3.98 1.34 5 1 C3.89904638 4.30286086 3.3103981 4.78510901 0.5625 6.6875 C-0.36369141 7.34298828 -0.36369141 7.34298828 -1.30859375 8.01171875 C-3 9 -3 9 -5 9 C-5 8.01 -5 7.02 -5 6 C-4.34 5.67 -3.68 5.34 -3 5 C-3 4.01 -3 3.02 -3 2 C-2.01 2 -1.02 2 0 2 C0 1.34 0 0.68 0 0 Z " fill="#5DBBC6" transform="translate(156,165)"/>
<path d="M0 0 C3.53600465 1.91135386 5.78972846 3.62642766 8 7 C6 6 4 5 2 4 C2 4.66 2 5.32 2 6 C-0.64 6 -3.28 6 -6 6 C-5.34 5.34 -4.68 4.68 -4 4 C-2.68 4 -1.36 4 0 4 C0 2.68 0 1.36 0 0 Z " fill="#D0D33E" transform="translate(77,138)"/>
<path d="M0 0 C4.44504873 1.13305164 8.27769973 2.26301451 12 5 C12.33 5.99 12.66 6.98 13 8 C11.02 8 9.04 8 7 8 C7 7.01 7 6.02 7 5 C6.401875 4.855625 5.80375 4.71125 5.1875 4.5625 C3.43849596 4.1127561 1.71322977 3.57107659 0 3 C0 2.01 0 1.02 0 0 Z " fill="#E9665F" transform="translate(137,44)"/>
<path d="M0 0 C7.75 0.75 7.75 0.75 10 3 C10 3.99 10 4.98 10 6 C10.99 6.33 11.98 6.66 13 7 C12.01 7.495 12.01 7.495 11 8 C8.65234375 6.85546875 8.65234375 6.85546875 5.9375 5.1875 C5.03902344 4.64480469 4.14054687 4.10210937 3.21484375 3.54296875 C1 2 1 2 0 0 Z " fill="#95D698" transform="translate(68,170)"/>
<path d="M0 0 C0.66 0.33 1.32 0.66 2 1 C-0.66666667 5.66666667 -3.33333333 10.33333333 -6 15 C-6.99 15 -7.98 15 -9 15 C-8.39889717 10.99264783 -6.33397972 8.44530629 -3.9375 5.25 C-2.83728516 3.77273437 -2.83728516 3.77273437 -1.71484375 2.265625 C-1.14894531 1.51796875 -0.58304688 0.7703125 0 0 Z " fill="#41C04A" transform="translate(86,155)"/>
<path d="M0 0 C1.98 0 3.96 0 6 0 C6 1.98 6 3.96 6 6 C5.01 5.67 4.02 5.34 3 5 C3 6.98 3 8.96 3 11 C1.5 10 1.5 10 0 8 C-0.27345479 5.28153765 -0.13491285 2.74322801 0 0 Z " fill="#FAB111" transform="translate(72,80)"/>
<path d="M0 0 C0.66 0.33 1.32 0.66 2 1 C2 2.32 2 3.64 2 5 C2.66 5 3.32 5 4 5 C4 6.98 4 8.96 4 11 C3.21625 10.979375 2.4325 10.95875 1.625 10.9375 C-0.98114961 10.81315937 -0.98114961 10.81315937 -3 12 C-2.690625 11.278125 -2.38125 10.55625 -2.0625 9.8125 C-0.83163685 6.55433284 0 3.4941251 0 0 Z " fill="#F0CD0F" transform="translate(71,129)"/>
<path d="M0 0 C0.33 0.66 0.66 1.32 1 2 C3.02463255 2.65213292 3.02463255 2.65213292 5 3 C2.87707704 3.52923572 0.75157949 4.04815377 -1.375 4.5625 C-2.55835938 4.85253906 -3.74171875 5.14257812 -4.9609375 5.44140625 C-8 6 -8 6 -10 5 C-8.68 4.67 -7.36 4.34 -6 4 C-6 3.34 -6 2.68 -6 2 C-4.02 1.34 -2.04 0.68 0 0 Z " fill="#09B66A" transform="translate(131,177)"/>
<path d="M0 0 C0.33 1.32 0.66 2.64 1 4 C0.01 4.495 0.01 4.495 -1 5 C-1.66 4.67 -2.32 4.34 -3 4 C-3.33 4.66 -3.66 5.32 -4 6 C-4.99 6.33 -5.98 6.66 -7 7 C-7 5.02 -7 3.04 -7 1 C-3.535 0.505 -3.535 0.505 0 0 Z " fill="#3388EF" transform="translate(175,143)"/>
<path d="M0 0 C2.53507203 2.53507203 2.4618326 3.91679927 2.8125 7.4375 C2.92207031 8.40558594 3.03164063 9.37367187 3.14453125 10.37109375 C3 13 3 13 0 16 C0 10.72 0 5.44 0 0 Z " fill="#FDD104" transform="translate(43,106)"/>
<path d="M0 0 C1.09658936 3.28976808 0.79953138 4.71303767 0 8 C-2.64 8 -5.28 8 -8 8 C-5.33333333 5.33333333 -2.66666667 2.66666667 0 0 Z " fill="#67BACD" transform="translate(144,140)"/>
<path d="M0 0 C0.66 0 1.32 0 2 0 C2.20086443 3.71599191 2.1519437 4.77208445 0 8 C-0.66 8 -1.32 8 -2 8 C-2 9.32 -2 10.64 -2 12 C-2.66 12 -3.32 12 -4 12 C-3.45660208 7.43545749 -2.20536179 4.0271824 0 0 Z " fill="#F3DC66" transform="translate(47,80)"/>
<path d="M0 0 C5.94 0.33 11.88 0.66 18 1 C13.7174008 3.1412996 11.66874348 3.08337042 7 3 C4.68963085 3.42854995 4.68963085 3.42854995 3 4 C2.01 2.68 1.02 1.36 0 0 Z " fill="#07B961" transform="translate(98,156)"/>
<path d="M0 0 C5.445 1.485 5.445 1.485 11 3 C9.02 3.99 9.02 3.99 7 5 C6.67 4.34 6.34 3.68 6 3 C5.2575 3.309375 4.515 3.61875 3.75 3.9375 C1.49307824 4.8094925 -0.6450153 5.47667007 -3 6 C-2.01 4.02 -1.02 2.04 0 0 Z " fill="#57C272" transform="translate(91,150)"/>
<path d="M0 0 C0.66 0 1.32 0 2 0 C1.67 4.62 1.34 9.24 1 14 C0.34 14 -0.32 14 -1 14 C-1.027193 12.41676312 -1.04648306 10.83338938 -1.0625 9.25 C-1.07410156 8.36828125 -1.08570313 7.4865625 -1.09765625 6.578125 C-1.00826198 4.2181162 -0.66912821 2.25501476 0 0 Z " fill="#F9CE0C" transform="translate(45,88)"/>
<path d="M0 0 C0.33 0.99 0.66 1.98 1 3 C-1.31 4.98 -3.62 6.96 -6 9 C-6.99 8.34 -7.98 7.68 -9 7 C-7.88625 6.38125 -7.88625 6.38125 -6.75 5.75 C-4.09828315 4.06254382 -2.13325986 2.29127911 0 0 Z " fill="#5DC43E" transform="translate(83,154)"/>
<path d="M0 0 C-1.19899698 3.0831351 -2.47700477 6.06279492 -4 9 C-4.66 8.67 -5.32 8.34 -6 8 C-6 5.69 -6 3.38 -6 1 C-4 0 -4 0 0 0 Z " fill="#70AEE8" transform="translate(176,147)"/>
<path d="M0 0 C1.9582239 1.9582239 2.89415297 3.48948201 4.125 5.9375 C4.47820312 6.62714844 4.83140625 7.31679687 5.1953125 8.02734375 C6 10 6 10 6 13 C5.01 13 4.02 13 3 13 C3 11.35 3 9.7 3 8 C2.34 8 1.68 8 1 8 C0.67 5.36 0.34 2.72 0 0 Z " fill="#F2E16D" transform="translate(72,126)"/>
<path d="M0 0 C0.99 0.33 1.98 0.66 3 1 C2.745504 2.48206495 2.47088238 3.96068615 2.1875 5.4375 C2.03667969 6.26121094 1.88585937 7.08492188 1.73046875 7.93359375 C1.48941406 8.61550781 1.24835938 9.29742187 1 10 C0.01 10.33 -0.98 10.66 -2 11 C-1.34 7.37 -0.68 3.74 0 0 Z " fill="#F4D54F" transform="translate(72,90)"/>
<path d="M0 0 C1.8141927 0.28094582 3.62635001 0.57506433 5.4375 0.875 C6.95150391 1.11863281 6.95150391 1.11863281 8.49609375 1.3671875 C9.32238281 1.57601562 10.14867188 1.78484375 11 2 C11.33 2.66 11.66 3.32 12 4 C8.37 4 4.74 4 1 4 C0.67 2.68 0.34 1.36 0 0 Z " fill="#F7463C" transform="translate(106,64)"/>
<path d="M0 0 C-1 3 -1 3 -2.92578125 4.09765625 C-4.10720703 4.57525391 -4.10720703 4.57525391 -5.3125 5.0625 C-8.27083374 6.28006215 -11.15468579 7.53502129 -14 9 C-5.5 0 -5.5 0 0 0 Z " fill="#F2B897" transform="translate(80,48)"/>
<path d="M0 0 C0.33 0.66 0.66 1.32 1 2 C0.67 2.66 0.34 3.32 0 4 C0.99 3.67 1.98 3.34 3 3 C2.67 4.65 2.34 6.3 2 8 C1.01 8 0.02 8 -1 8 C-1.33 7.34 -1.66 6.68 -2 6 C-2.99 6.495 -2.99 6.495 -4 7 C-2.79618552 4.50638429 -1.54571278 2.31856917 0 0 Z " fill="#64AFE9" transform="translate(149,133)"/>
<path d="M0 0 C1.010625 0.0825 2.02125 0.165 3.0625 0.25 C3.7225 1.24 4.3825 2.23 5.0625 3.25 C4.0625 4.25 4.0625 4.25 0.5 4.3125 C-0.634375 4.291875 -1.76875 4.27125 -2.9375 4.25 C-3.2675 3.26 -3.5975 2.27 -3.9375 1.25 C-2.9375 0.25 -2.9375 0.25 0 0 Z " fill="#0ABA62" transform="translate(95.9375,177.75)"/>
<path d="M0 0 C3 1 3 1 4 3 C6.3140622 3.73075648 8.64828869 4.40138258 11 5 C11 5.66 11 6.32 11 7 C4.375 6.25 4.375 6.25 1 4 C0.3125 1.875 0.3125 1.875 0 0 Z " fill="#24B55B" transform="translate(77,172)"/>
<path d="M0 0 C0.99 0 1.98 0 3 0 C3 0.66 3 1.32 3 2 C3.66 2 4.32 2 5 2 C5.33 2.99 5.66 3.98 6 5 C5.34 5.66 4.68 6.32 4 7 C2.68 7 1.36 7 0 7 C0 6.34 0 5.68 0 5 C0.66 5 1.32 5 2 5 C1.34 3.35 0.68 1.7 0 0 Z " fill="#1CA895" transform="translate(144,169)"/>
<path d="M0 0 C0.66 0.33 1.32 0.66 2 1 C1.67 2.32 1.34 3.64 1 5 C-2.57314692 5 -3.82043338 4.64106664 -7 3 C-4.69631264 1.93347808 -2.35981813 0.93578995 0 0 Z " fill="#41B6B1" transform="translate(138,147)"/>
<path d="M0 0 C1.65 0.33 3.3 0.66 5 1 C3.8125 3 3.8125 3 2 5 C-0.6875 5.25 -0.6875 5.25 -3 5 C-3.33 4.01 -3.66 3.02 -4 2 C-2.68 2 -1.36 2 0 2 C0 1.34 0 0.68 0 0 Z " fill="#F9413C" transform="translate(120,43)"/>
<path d="M0 0 C0.99 0.33 1.98 0.66 3 1 C1.85546875 2.48828125 1.85546875 2.48828125 0 4 C-2.69921875 4.29296875 -2.69921875 4.29296875 -5.6875 4.1875 C-6.68136719 4.16042969 -7.67523438 4.13335937 -8.69921875 4.10546875 C-9.45847656 4.07066406 -10.21773438 4.03585938 -11 4 C-11 3.67 -11 3.34 -11 3 C-10.37351562 2.86722656 -9.74703125 2.73445312 -9.1015625 2.59765625 C-8.28429687 2.42105469 -7.46703125 2.24445313 -6.625 2.0625 C-5.81289062 1.88847656 -5.00078125 1.71445313 -4.1640625 1.53515625 C-1.970537 1.07669307 -1.970537 1.07669307 0 0 Z " fill="#82D9BB" transform="translate(128,151)"/>
<path d="M0 0 C2.97 0 5.94 0 9 0 C9 1.65 9 3.3 9 5 C8.67 4.34 8.34 3.68 8 3 C7.05125 3.061875 6.1025 3.12375 5.125 3.1875 C4.09375 3.125625 3.0625 3.06375 2 3 C1.34 2.01 0.68 1.02 0 0 Z " fill="#3A80F3" transform="translate(174,101)"/>
<path d="M0 0 C2.4375 0.375 2.4375 0.375 5 1 C5.33 1.66 5.66 2.32 6 3 C5.34 3 4.68 3 4 3 C3.67 3.66 3.34 4.32 3 5 C1.68 5 0.36 5 -1 5 C-0.67 3.35 -0.34 1.7 0 0 Z " fill="#F8443B" transform="translate(145,51)"/>
<path d="M0 0 C0 0.66 0 1.32 0 2 C-3.13498292 3.85776765 -5.37471432 4.20140476 -9 4 C-8.67 3.01 -8.34 2.02 -8 1 C-5.07175348 0.02391783 -3.04386724 -0.08226668 0 0 Z " fill="#E77B62" transform="translate(89,45)"/>
<path d="M0 0 C1.79240663 0.11389875 3.58394835 0.24147687 5.375 0.375 C6.87160156 0.47941406 6.87160156 0.47941406 8.3984375 0.5859375 C11 1 11 1 13 3 C9.01727361 4.32757546 6.9189808 3.3296542 3 2 C2.01 1.34 1.02 0.68 0 0 Z " fill="#5FC794" transform="translate(81,178)"/>
<path d="M0 0 C0.33 0.99 0.66 1.98 1 3 C1.66 3 2.32 3 3 3 C3.33 3.99 3.66 4.98 4 6 C2.02 6 0.04 6 -2 6 C-2.33 5.34 -2.66 4.68 -3 4 C-2.01 2.68 -1.02 1.36 0 0 Z " fill="#2A90CC" transform="translate(147,138)"/>
<path d="M0 0 C1.13643966 3.40931897 0.86747764 4.00335456 -0.4375 7.1875 C-0.86869141 8.26064453 -0.86869141 8.26064453 -1.30859375 9.35546875 C-1.53675781 9.89816406 -1.76492187 10.44085938 -2 11 C-2.33 11 -2.66 11 -3 11 C-3 8.36 -3 5.72 -3 3 C-2.01 2.67 -1.02 2.34 0 2 C0 1.34 0 0.68 0 0 Z " fill="#98BBF1" transform="translate(182,130)"/>
<path d="M0 0 C1.4606285 2.64738916 2 3.89448334 2 7 C0.68 7.33 -0.64 7.66 -2 8 C-1.125 1.125 -1.125 1.125 0 0 Z " fill="#3D7FF2" transform="translate(180,125)"/>
<path d="M0 0 C3.3 0 6.6 0 10 0 C9.67 0.99 9.34 1.98 9 3 C5.7 2.67 2.4 2.34 -1 2 C-0.67 1.34 -0.34 0.68 0 0 Z " fill="#EB4C3D" transform="translate(91,43)"/>
<path d="M0 0 C1.98 0 3.96 0 6 0 C4.37280823 3.25438355 1.26919189 3.70359632 -2 5 C-2.99 5.33 -3.98 5.66 -5 6 C-5 5.34 -5 4.68 -5 4 C-4.0409375 3.8453125 -4.0409375 3.8453125 -3.0625 3.6875 C-2.381875 3.460625 -1.70125 3.23375 -1 3 C-0.67 2.01 -0.34 1.02 0 0 Z " fill="#99DBCB" transform="translate(142,176)"/>
<path d="M0 0 C1.875 0.3125 1.875 0.3125 4 1 C5.0828125 1.185625 5.0828125 1.185625 6.1875 1.375 C7.0846875 1.684375 7.0846875 1.684375 8 2 C8.33 2.99 8.66 3.98 9 5 C5.37 4.01 1.74 3.02 -2 2 C-1.34 1.34 -0.68 0.68 0 0 Z " fill="#EF9895" transform="translate(124,70)"/>
<path d="M0 0 C0.33 0 0.66 0 1 0 C1.33 3.63 1.66 7.26 2 11 C1.01 10.67 0.02 10.34 -1 10 C-1.02689216 8.52093108 -1.04634621 7.04172517 -1.0625 5.5625 C-1.07410156 4.73878906 -1.08570312 3.91507812 -1.09765625 3.06640625 C-1 1 -1 1 0 0 Z " fill="#F5CD18" transform="translate(69,117)"/>
<path d="M0 0 C1.65 0 3.3 0 5 0 C5.33 0.66 5.66 1.32 6 2 C5.01 2 4.02 2 3 2 C2.67 3.65 2.34 5.3 2 7 C1.34 6.67 0.68 6.34 0 6 C0.33 5.34 0.66 4.68 1 4 C0.60061233 1.90178785 0.60061233 1.90178785 0 0 Z " fill="#3DB5B2" transform="translate(148,169)"/>
<path d="M0 0 C0.66 1.32 1.32 2.64 2 4 C1.01 4.495 1.01 4.495 0 5 C0 4.34 0 3.68 0 3 C-0.66 3 -1.32 3 -2 3 C-2.33 3.99 -2.66 4.98 -3 6 C-3.33 4.68 -3.66 3.36 -4 2 C-2.68 1.34 -1.36 0.68 0 0 Z " fill="#46A4E4" transform="translate(168,154)"/>
<path d="M0 0 C2.31 0.66 4.62 1.32 7 2 C7 2.99 7 3.98 7 5 C4.625 4.75 4.625 4.75 2 4 C0.6875 1.9375 0.6875 1.9375 0 0 Z " fill="#E28783" transform="translate(135,75)"/>
<path d="M0 0 C0.66 0 1.32 0 2 0 C2 1.32 2 2.64 2 4 C2.66 4 3.32 4 4 4 C4 4.99 4 5.98 4 7 C2.35 6.67 0.7 6.34 -1 6 C-0.67 4.02 -0.34 2.04 0 0 Z " fill="#F94739" transform="translate(126,64)"/>
<path d="M0 0 C-1.65 1.65 -3.3 3.3 -5 5 C-5.33 4.34 -5.66 3.68 -6 3 C-6.66 2.67 -7.32 2.34 -8 2 C-4.77208445 -0.1519437 -3.71599191 -0.20086443 0 0 Z " fill="#0CB56A" transform="translate(126,155)"/>
<path d="M0 0 C0.33 0 0.66 0 1 0 C1 1.65 1 3.3 1 5 C-0.98 5 -2.96 5 -5 5 C-4.67 4.01 -4.34 3.02 -4 2 C-3.01 1.67 -2.02 1.34 -1 1 C-0.67 0.67 -0.34 0.34 0 0 Z " fill="#1BA28C" transform="translate(135,149)"/>
<path d="M0 0 C2.475 0.495 2.475 0.495 5 1 C5.33 2.65 5.66 4.3 6 6 C1.125 3.375 1.125 3.375 0 0 Z " fill="#EDCD0C" transform="translate(50,144)"/>
<path d="M0 0 C2.35171131 0.59861742 4.6859378 1.26924352 7 2 C7.33 2.66 7.66 3.32 8 4 C5.36 3.67 2.72 3.34 0 3 C0 2.01 0 1.02 0 0 Z " fill="#E98980" transform="translate(137,44)"/>
<path d="M0 0 C3.93673644 1.31224548 6.22719294 2.91910327 9 6 C2.35384615 4.52307692 2.35384615 4.52307692 0.5625 1.875 C0.376875 1.25625 0.19125 0.6375 0 0 Z " fill="#EF9591" transform="translate(149,50)"/>
</svg>
