<?xml version="1.0" encoding="UTF-8"?>
<svg version="1.1" xmlns="http://www.w3.org/2000/svg" width="225" height="225">
<path d="M0 0 C8.25 0 16.5 0 25 0 C25.33 15.51 25.66 31.02 26 47 C36.03080372 33.98826903 36.03080372 33.98826903 45.625 20.6875 C46.59587065 19.29523562 47.56720863 17.90329698 48.5390625 16.51171875 C48.96735352 15.89731934 49.39564453 15.28291992 49.83691406 14.64990234 C51.1857679 12.73647787 52.57634323 10.8583976 54 9 C57.27957731 9.62054747 59.41036005 10.78018337 62.109375 12.72265625 C62.86347656 13.26083984 63.61757812 13.79902344 64.39453125 14.35351562 C65.17183594 14.91748047 65.94914063 15.48144531 66.75 16.0625 C67.54277344 16.63033203 68.33554688 17.19816406 69.15234375 17.78320312 C71.10555025 19.18339333 73.05451502 20.58911094 75 22 C74.38640287 25.27115144 73.26276617 27.30638015 71.26171875 29.94921875 C70.69404785 30.7074292 70.12637695 31.46563965 69.54150391 32.24682617 C68.62377197 33.45495972 68.62377197 33.45495972 67.6875 34.6875 C66.41649468 36.3843135 65.14699501 38.08225574 63.87890625 39.78125 C63.23453613 40.64363281 62.59016602 41.50601563 61.92626953 42.39453125 C57.16047661 48.8407343 52.59916617 55.43456663 48 62 C49.10400146 61.64695801 50.20800293 61.29391602 51.34545898 60.93017578 C55.47603281 59.61044097 59.60825262 58.29592558 63.7409668 56.98291016 C65.52298945 56.41595428 67.30457404 55.84761944 69.08569336 55.27783203 C71.65882813 54.45494771 74.23354339 53.63717982 76.80859375 52.8203125 C77.59334579 52.56814972 78.37809784 52.31598694 79.18663025 52.05618286 C84.40582068 50.40758073 89.63911779 49.10223003 95 48 C102 64.70050761 102 64.70050761 102 72 C100.42702148 72.52170776 100.42702148 72.52170776 98.82226562 73.05395508 C94.90052303 74.35513089 90.97946151 75.65834884 87.05859375 76.9621582 C85.36737025 77.52423181 83.67596698 78.08576483 81.984375 78.64672852 C79.54118178 79.45704466 77.09865973 80.26935704 74.65625 81.08203125 C73.53700134 81.45253349 73.53700134 81.45253349 72.3951416 81.83052063 C67.55194972 83.4447486 62.77082005 85.18265699 58 87 C59.03817871 87.34256836 60.07635742 87.68513672 61.14599609 88.03808594 C65.04222425 89.3246511 68.93707275 90.61535082 72.83154297 91.90722656 C74.50891074 92.46302168 76.1866378 93.01773383 77.86474609 93.57128906 C95.74749787 99.47185159 95.74749787 99.47185159 104 103 C103.08225757 107.90682697 101.62848109 112.51825858 100.0625 117.25 C99.79759766 118.07757813 99.53269531 118.90515625 99.25976562 119.7578125 C99.00001953 120.54414063 98.74027344 121.33046875 98.47265625 122.140625 C98.12086304 123.21618652 98.12086304 123.21618652 97.76196289 124.31347656 C97 126 97 126 95 127 C93.12704468 126.58876038 93.12704468 126.58876038 90.82568359 125.82836914 C89.96494232 125.54800308 89.10420105 125.26763702 88.21737671 124.97877502 C87.28712677 124.66738083 86.35687683 124.35598663 85.3984375 124.03515625 C84.44683746 123.72299667 83.49523743 123.4108371 82.51480103 123.08921814 C79.46585722 122.08727134 76.42044911 121.07501357 73.375 120.0625 C71.31272404 119.38278342 69.25022671 118.70373809 67.1875 118.02539062 C62.12240233 116.35805069 57.06017213 114.68222514 52 113 C52.92499377 115.77498131 53.78943552 117.28221582 55.484375 119.59765625 C56.00169189 120.30857422 56.51900879 121.01949219 57.05200195 121.75195312 C57.61234131 122.51443359 58.17268066 123.27691406 58.75 124.0625 C59.32258545 124.84947266 59.8951709 125.63644531 60.48510742 126.44726562 C62.94528093 129.82803533 65.41479146 133.20190576 67.88720703 136.57373047 C69.69926343 139.04652624 71.50595361 141.52317755 73.3125 144 C73.88129883 144.77093994 74.45009766 145.54187988 75.03613281 146.33618164 C75.5565918 147.0502417 76.07705078 147.76430176 76.61328125 148.5 C77.07516846 149.1290625 77.53705566 149.758125 78.01293945 150.40625 C79 152 79 152 79 154 C76.27392609 156.46427363 73.22569395 158.53559862 70.25 160.6875 C69.425 161.30689453 68.6 161.92628906 67.75 162.56445312 C66.95078125 163.14517578 66.1515625 163.72589844 65.328125 164.32421875 C64.22839355 165.1299231 64.22839355 165.1299231 63.10644531 165.9519043 C61 167 61 167 58.89599609 166.86132812 C56.65438293 165.84299034 55.77713838 164.87972299 54.3359375 162.89453125 C53.85842041 162.24734131 53.38090332 161.60015137 52.88891602 160.93334961 C52.38932373 160.23346924 51.88973145 159.53358887 51.375 158.8125 C50.85156006 158.09650635 50.32812012 157.3805127 49.78881836 156.64282227 C48.18089771 154.43670744 46.58882596 152.21989475 45 150 C44.05609594 148.69002753 43.11209103 147.38012771 42.16796875 146.0703125 C39.76368182 142.72409012 37.38087067 139.36292824 35 136 C33.35 133.69 31.7 131.38 30 129 C29.67 145.5 29.34 162 29 179 C20.75 179 12.5 179 4 179 C3.67 163.49 3.34 147.98 3 132 C-5.3141663 142.78243789 -5.3141663 142.78243789 -13.25 153.8125 C-17.06351035 159.29055608 -20.96301735 164.68392941 -25 170 C-28.27957731 169.37945253 -30.41036005 168.21981663 -33.109375 166.27734375 C-33.86347656 165.73916016 -34.61757813 165.20097656 -35.39453125 164.64648438 C-36.56048828 163.80053711 -36.56048828 163.80053711 -37.75 162.9375 C-38.54277344 162.36966797 -39.33554687 161.80183594 -40.15234375 161.21679688 C-42.10555025 159.81660667 -44.05451502 158.41088906 -46 157 C-45.38640287 153.72884856 -44.26276617 151.69361985 -42.26171875 149.05078125 C-41.69404785 148.2925708 -41.12637695 147.53436035 -40.54150391 146.75317383 C-39.92968262 145.94775146 -39.31786133 145.1423291 -38.6875 144.3125 C-37.41649468 142.6156865 -36.14699501 140.91774426 -34.87890625 139.21875 C-34.23453613 138.35636719 -33.59016602 137.49398437 -32.92626953 136.60546875 C-28.16047661 130.1592657 -23.59916617 123.56543337 -19 117 C-20.10400146 117.35304199 -21.20800293 117.70608398 -22.34545898 118.06982422 C-26.47603281 119.38955903 -30.60825262 120.70407442 -34.7409668 122.01708984 C-36.52298945 122.58404572 -38.30457404 123.15238056 -40.08569336 123.72216797 C-42.65882813 124.54505229 -45.23354339 125.36282018 -47.80859375 126.1796875 C-48.59334579 126.43185028 -49.37809784 126.68401306 -50.18663025 126.94381714 C-55.40582068 128.59241927 -60.63911779 129.89776997 -66 131 C-68.12452927 125.63276817 -69.90706702 120.19860583 -71.61328125 114.6875 C-71.84358032 113.94693359 -72.07387939 113.20636719 -72.31115723 112.44335938 C-72.87514669 110.62922983 -73.43771688 108.81465915 -74 107 C-67.9330939 104.99999552 -61.86395902 103.00687259 -55.79321289 101.01855469 C-53.72758651 100.34110847 -51.66247865 99.66207909 -49.59790039 98.98144531 C-46.6330181 98.00430899 -43.66632757 97.03285108 -40.69921875 96.0625 C-39.7741301 95.75626709 -38.84904144 95.45003418 -37.8959198 95.13452148 C-37.03525406 94.85423096 -36.17458832 94.57394043 -35.2878418 94.28515625 C-34.53061325 94.03644775 -33.7733847 93.78773926 -32.99320984 93.53149414 C-31 93 -31 93 -28 93 C-28 92.34 -28 91.68 -28 91 C-28.54599854 90.88671356 -29.09199707 90.77342712 -29.65454102 90.65670776 C-35.17918927 89.47482407 -40.55104542 88.01914487 -45.9375 86.3203125 C-47.14672119 85.93925858 -47.14672119 85.93925858 -48.38037109 85.55050659 C-50.06505853 85.01672095 -51.74897343 84.48049133 -53.43212891 83.94189453 C-55.15603101 83.39348452 -56.88233135 82.85256143 -58.61083984 82.31884766 C-61.12094821 81.54370195 -63.62332541 80.74720005 -66.125 79.9453125 C-66.90093506 79.7097464 -67.67687012 79.4741803 -68.47631836 79.23147583 C-70.6328125 78.52392578 -70.6328125 78.52392578 -74 77 C-75.28238569 73.62234116 -74.8241751 71.63772926 -73.63671875 68.26953125 C-73.32669922 67.38458984 -73.01667969 66.49964844 -72.69726562 65.58789062 C-72.19743164 64.21407227 -72.19743164 64.21407227 -71.6875 62.8125 C-71.36587891 61.88501953 -71.04425781 60.95753906 -70.71289062 60.00195312 C-68.26575017 53.13287508 -68.26575017 53.13287508 -66 52 C-64.12704468 52.41123962 -64.12704468 52.41123962 -61.82568359 53.17163086 C-60.96494232 53.45199692 -60.10420105 53.73236298 -59.21737671 54.02122498 C-58.28712677 54.33261917 -57.35687683 54.64401337 -56.3984375 54.96484375 C-55.44683746 55.27700333 -54.49523743 55.5891629 -53.51480103 55.91078186 C-50.46585722 56.91272866 -47.42044911 57.92498643 -44.375 58.9375 C-42.31272404 59.61721658 -40.25022671 60.29626191 -38.1875 60.97460938 C-33.12240233 62.64194931 -28.06017213 64.31777486 -23 66 C-23.92499377 63.22501869 -24.78943552 61.71778418 -26.484375 59.40234375 C-27.00177246 58.69150635 -27.51916992 57.98066895 -28.05224609 57.24829102 C-28.61250488 56.48572998 -29.17276367 55.72316895 -29.75 54.9375 C-30.60779053 53.75595337 -30.60779053 53.75595337 -31.48291016 52.55053711 C-34.55791418 48.3178993 -37.66119754 44.10776648 -40.7890625 39.9140625 C-41.39008789 39.10074463 -41.99111328 38.28742676 -42.61035156 37.44946289 C-43.77282398 35.87703721 -44.94387325 34.31091076 -46.12402344 32.75170898 C-46.64770508 32.04087158 -47.17138672 31.33003418 -47.7109375 30.59765625 C-48.41162354 29.66191772 -48.41162354 29.66191772 -49.12646484 28.70727539 C-49.41473145 28.14387451 -49.70299805 27.58047363 -50 27 C-48.6660303 22.99809089 -46.06058099 21.71942137 -42.6875 19.5 C-38.13679322 16.49517184 -38.13679322 16.49517184 -33.83203125 13.15625 C-32 12 -32 12 -30.05200195 12.23364258 C-27.61432014 13.14403915 -26.85275461 14.01611894 -25.3359375 16.10546875 C-24.85842041 16.75265869 -24.38090332 17.39984863 -23.88891602 18.06665039 C-23.38932373 18.76653076 -22.88973145 19.46641113 -22.375 20.1875 C-21.85156006 20.90349365 -21.32812012 21.6194873 -20.78881836 22.35717773 C-19.18089771 24.56329256 -17.58882596 26.78010525 -16 29 C-15.05609594 30.30997247 -14.11209103 31.61987229 -13.16796875 32.9296875 C-10.76368182 36.27590988 -8.38087067 39.63707176 -6 43 C-4.35 45.31 -2.7 47.62 -1 50 C-0.67 33.5 -0.34 17 0 0 Z M23 54 C22.52949219 54.54269531 22.05898437 55.08539063 21.57421875 55.64453125 C20.95160156 56.35996094 20.32898438 57.07539062 19.6875 57.8125 C19.07261719 58.52019531 18.45773438 59.22789063 17.82421875 59.95703125 C16.26665665 61.70136739 14.67341125 63.36778041 13 65 C9.55426177 63.55476763 7.67928465 61.7397849 5.3125 58.875 C4.226472 57.56804553 3.12692599 56.27185873 2 55 C1.67 55 1.34 55 1 55 C0.34 60.61 -0.32 66.22 -1 72 C-3.734375 71.44661458 -6.46875 70.89322917 -9.203125 70.33984375 C-12.22661281 69.80322249 -12.22661281 69.80322249 -16 71 C-13.69 75.29 -11.38 79.58 -9 84 C-13.29 86.31 -17.58 88.62 -22 91 C-18.95966506 93.2802512 -16.75349671 94.71293873 -13.375 96.1875 C-12.59898438 96.53167969 -11.82296875 96.87585938 -11.0234375 97.23046875 C-9.04924201 98.11849001 -9.04924201 98.11849001 -7 98 C-9.31 102.62 -11.62 107.24 -14 112 C-5.46311868 111.2895075 -5.46311868 111.2895075 3 110 C3.04898438 110.74765625 3.09796875 111.4953125 3.1484375 112.265625 C3.22320312 113.25046875 3.29796875 114.2353125 3.375 115.25 C3.44460937 116.22453125 3.51421875 117.1990625 3.5859375 118.203125 C3.98465249 120.89633189 4.63507063 122.66963279 6 125 C6.60328125 124.278125 7.2065625 123.55625 7.828125 122.8125 C8.62734375 121.884375 9.4265625 120.95625 10.25 120 C11.03890625 119.071875 11.8278125 118.14375 12.640625 117.1875 C15 115 15 115 19 115 C21.10546875 116.96875 21.10546875 116.96875 23.1875 119.5 C24.44470289 121.01144244 25.71209308 122.51463367 27 124 C27.33 124 27.66 124 28 124 C28.66 118.39 29.32 112.78 30 107 C32.734375 107.55338542 35.46875 108.10677083 38.203125 108.66015625 C41.22661281 109.19677751 41.22661281 109.19677751 45 108 C42.69 103.71 40.38 99.42 38 95 C41.96 92.69 45.92 90.38 50 88 C47.28443311 85.28443311 45.8303737 84.2713798 42.4375 82.8125 C41.65246094 82.46832031 40.86742187 82.12414062 40.05859375 81.76953125 C38.05405588 80.88328356 38.05405588 80.88328356 36 81 C36.433125 80.16855469 36.86625 79.33710937 37.3125 78.48046875 C37.869375 77.39378906 38.42625 76.30710937 39 75.1875 C39.556875 74.10855469 40.11375 73.02960938 40.6875 71.91796875 C42.20510619 69.07726534 42.20510619 69.07726534 42 66 C34.08 67.485 34.08 67.485 26 69 C25.8046875 66.265625 25.609375 63.53125 25.4140625 60.796875 C25.01534751 58.10366811 24.36492937 56.33036721 23 54 Z " fill="#F10256" transform="translate(98,23)"/>
<path d="M0 0 C1.7015625 0.8353125 1.7015625 0.8353125 3.4375 1.6875 C4.283125 2.120625 5.12875 2.55375 6 3 C4.48525928 7.81714842 2.58417449 11.69304252 0 16 C5.28 15.67 10.56 15.34 16 15 C16.99 19.62 17.98 24.24 19 29 C20.093125 27.741875 21.18625 26.48375 22.3125 25.1875 C24.46890382 22.70560126 26.64600809 20.29604749 29 18 C34.28602699 20.339171 38.27294989 23.69670569 41.15203857 28.77838135 C44.54269018 37.66172747 42.85462074 48.87209408 42.5625 58.1875 C42.51730566 60.69068325 42.47624983 63.19394485 42.43945312 65.69726562 C42.3484629 71.8016987 42.1723566 77.89517177 42 84 C33.75 84 25.5 84 17 84 C16.67 68.49 16.34 52.98 16 37 C7.6858337 47.78243789 7.6858337 47.78243789 -0.25 58.8125 C-4.06351035 64.29055608 -7.96301735 69.68392941 -12 75 C-15.27957731 74.37945253 -17.41036005 73.21981663 -20.109375 71.27734375 C-20.86347656 70.73916016 -21.61757813 70.20097656 -22.39453125 69.64648438 C-23.56048828 68.80053711 -23.56048828 68.80053711 -24.75 67.9375 C-25.54277344 67.36966797 -26.33554687 66.80183594 -27.15234375 66.21679688 C-29.10555025 64.81660667 -31.05451502 63.41088906 -33 62 C-32.38640287 58.72884856 -31.26276617 56.69361985 -29.26171875 54.05078125 C-28.69404785 53.2925708 -28.12637695 52.53436035 -27.54150391 51.75317383 C-26.92968262 50.94775146 -26.31786133 50.1423291 -25.6875 49.3125 C-24.41649468 47.6156865 -23.14699501 45.91774426 -21.87890625 44.21875 C-21.23453613 43.35636719 -20.59016602 42.49398437 -19.92626953 41.60546875 C-15.16047661 35.1592657 -10.59916617 28.56543337 -6 22 C-7.10400146 22.35304199 -8.20800293 22.70608398 -9.34545898 23.06982422 C-13.47603281 24.38955903 -17.60825262 25.70407442 -21.7409668 27.01708984 C-23.52298945 27.58404572 -25.30457404 28.15238056 -27.08569336 28.72216797 C-29.65882813 29.54505229 -32.23354339 30.36282018 -34.80859375 31.1796875 C-35.59334579 31.43185028 -36.37809784 31.68401306 -37.18663025 31.94381714 C-42.40582068 33.59241927 -47.63911779 34.89776997 -53 36 C-55.12452927 30.63276817 -56.90706702 25.19860583 -58.61328125 19.6875 C-58.84358032 18.94693359 -59.07387939 18.20636719 -59.31115723 17.44335938 C-59.87514669 15.62922983 -60.43771688 13.81465915 -61 12 C-54.60090889 9.84697007 -48.19575608 7.71277652 -41.78613281 5.59130859 C-39.60827358 4.86805222 -37.43181572 4.1405613 -35.25683594 3.40869141 C-32.12276989 2.35492263 -28.98391049 1.3166949 -25.84375 0.28125 C-24.39639465 -0.21091003 -24.39639465 -0.21091003 -22.9197998 -0.7130127 C-14.38316522 -3.49852549 -8.31333457 -4.15666728 0 0 Z " fill="#F10256" transform="translate(85,118)"/>
<path d="M0 0 C1.14815437 0.38529877 1.14815437 0.38529877 2.31950378 0.77838135 C3.93219206 1.32163421 5.54320502 1.86988329 7.15258789 2.42285156 C9.58465239 3.25847281 12.02114624 4.07983219 14.45898438 4.8984375 C22.32662012 7.5547045 30.14149617 10.27693199 37.79296875 13.515625 C36.87522632 18.42245197 35.42144984 23.03388358 33.85546875 27.765625 C33.59056641 28.59320313 33.32566406 29.42078125 33.05273438 30.2734375 C32.79298828 31.05976563 32.53324219 31.84609375 32.265625 32.65625 C31.91383179 33.73181152 31.91383179 33.73181152 31.55493164 34.82910156 C30.79296875 36.515625 30.79296875 36.515625 28.79296875 37.515625 C26.92001343 37.10438538 26.92001343 37.10438538 24.61865234 36.34399414 C23.75791107 36.06362808 22.8971698 35.78326202 22.01034546 35.49440002 C21.08009552 35.18300583 20.14984558 34.87161163 19.19140625 34.55078125 C18.23980621 34.23862167 17.28820618 33.9264621 16.30776978 33.60484314 C13.25882597 32.60289634 10.21341786 31.59063857 7.16796875 30.578125 C5.10569279 29.89840842 3.04319546 29.21936309 0.98046875 28.54101562 C-4.08462892 26.87367569 -9.14685912 25.19785014 -14.20703125 23.515625 C-13.28203748 26.29060631 -12.41759573 27.79784082 -10.72265625 30.11328125 C-10.20533936 30.82419922 -9.68802246 31.53511719 -9.1550293 32.26757812 C-8.59468994 33.03005859 -8.03435059 33.79253906 -7.45703125 34.578125 C-6.59815308 35.75858398 -6.59815308 35.75858398 -5.72192383 36.96289062 C-3.26175032 40.34366033 -0.79223979 43.71753076 1.68017578 47.08935547 C3.49223218 49.56215124 5.29892236 52.03880255 7.10546875 54.515625 C7.67426758 55.28656494 8.24306641 56.05750488 8.82910156 56.85180664 C9.34956055 57.5658667 9.87001953 58.27992676 10.40625 59.015625 C10.86813721 59.6446875 11.33002441 60.27375 11.8059082 60.921875 C12.79296875 62.515625 12.79296875 62.515625 12.79296875 64.515625 C10.06689484 66.97989863 7.0186627 69.05122362 4.04296875 71.203125 C3.21796875 71.82251953 2.39296875 72.44191406 1.54296875 73.08007812 C0.74375 73.66080078 -0.05546875 74.24152344 -0.87890625 74.83984375 C-1.9786377 75.6455481 -1.9786377 75.6455481 -3.10058594 76.4675293 C-5.20703125 77.515625 -5.20703125 77.515625 -7.31103516 77.37695312 C-9.55264832 76.35861534 -10.42989287 75.39534799 -11.87109375 73.41015625 C-12.34844971 72.76320801 -12.82580566 72.11625977 -13.31762695 71.44970703 C-14.06725708 70.39952393 -14.06725708 70.39952393 -14.83203125 69.328125 C-15.35692139 68.60995605 -15.88181152 67.89178711 -16.42260742 67.15185547 C-18.02875915 64.94773305 -19.61931264 62.73305064 -21.20703125 60.515625 C-22.12736271 59.24071108 -23.04792164 57.96596132 -23.96875 56.69140625 C-25.64711084 54.36577242 -27.29660568 52.02283974 -28.93359375 49.66796875 C-31.10260316 46.54977426 -31.10260316 46.54977426 -33.41796875 44.01953125 C-38.09341472 38.54020426 -38.68743218 34.49633742 -38.20703125 27.515625 C-37.57736815 20.25629881 -37.57736815 20.25629881 -36.20703125 17.515625 C-29.27703125 18.010625 -29.27703125 18.010625 -22.20703125 18.515625 C-24.51703125 13.895625 -26.82703125 9.275625 -29.20703125 4.515625 C-27.04140625 3.360625 -24.87578125 2.205625 -22.64453125 1.015625 C-21.97736084 0.65017578 -21.31019043 0.28472656 -20.62280273 -0.09179688 C-20.07180908 -0.37603516 -19.52081543 -0.66027344 -18.953125 -0.953125 C-18.40325928 -1.24638672 -17.85339355 -1.53964844 -17.28686523 -1.84179688 C-11.20317142 -3.72139332 -5.75400755 -1.99753753 0 0 Z " fill="#29B5F4" transform="translate(164.20703125,112.484375)"/>
<path d="M0 0 C2.43768181 0.91039657 3.19924734 1.78247636 4.71606445 3.87182617 C5.19342041 4.51877441 5.67077637 5.16572266 6.16259766 5.83227539 C6.66235107 6.53239746 7.16210449 7.23251953 7.67700195 7.95385742 C8.20189209 8.67202637 8.72678223 9.39019531 9.26757812 10.13012695 C10.87372985 12.33424938 12.46428335 14.54893178 14.05200195 16.76635742 C14.97233341 18.04127134 15.89289235 19.3160211 16.8137207 20.59057617 C18.48583094 22.91050321 20.13978237 25.2419328 21.7824707 27.58276367 C23.22128502 29.60106602 24.69920583 31.59250097 26.2277832 33.54370117 C29.8119869 38.20532081 31.9342173 41.46378549 31.4309082 47.44995117 C30.75338138 51.59194506 29.97514396 55.66991478 29.05200195 59.76635742 C22.12200195 59.27135742 22.12200195 59.27135742 15.05200195 58.76635742 C17.36200195 63.38635742 19.67200195 68.00635742 22.05200195 72.76635742 C18.86543945 74.52979492 18.86543945 74.52979492 15.61450195 76.32885742 C14.96553955 76.70341064 14.31657715 77.07796387 13.64794922 77.46386719 C7.06198368 80.92254379 1.01036814 79.4319703 -5.90112305 77.43115234 C-7.66982275 76.87947292 -9.43537085 76.31761001 -11.19799805 75.74682617 C-12.13732178 75.44698318 -13.07664551 75.1471402 -14.04443359 74.83821106 C-16.01228707 74.20641412 -17.97866674 73.57000974 -19.94360352 72.92919922 C-22.96159089 71.94944466 -25.98740019 70.99713133 -29.0144043 70.0456543 C-30.93030273 69.42686207 -32.84568734 68.80647614 -34.76049805 68.18432617 C-35.66767578 67.90187546 -36.57485352 67.61942474 -37.50952148 67.32841492 C-38.75717285 66.91327385 -38.75717285 66.91327385 -40.0300293 66.48974609 C-40.76455322 66.25293625 -41.49907715 66.0161264 -42.25585938 65.7721405 C-43.94799805 64.76635742 -43.94799805 64.76635742 -44.72395325 62.80078125 C-45.01086365 60.19551054 -44.45485252 58.50401258 -43.5847168 56.03588867 C-43.27469727 55.15094727 -42.96467773 54.26600586 -42.64526367 53.35424805 C-42.14542969 51.98042969 -42.14542969 51.98042969 -41.63549805 50.57885742 C-41.31387695 49.65137695 -40.99225586 48.72389648 -40.66088867 47.76831055 C-38.21374821 40.89923251 -38.21374821 40.89923251 -35.94799805 39.76635742 C-34.07504272 40.17759705 -34.07504272 40.17759705 -31.77368164 40.93798828 C-30.91294037 41.21835434 -30.0521991 41.4987204 -29.16537476 41.7875824 C-28.23512482 42.09897659 -27.30487488 42.41037079 -26.34643555 42.73120117 C-25.39483551 43.04336075 -24.44323547 43.35552032 -23.46279907 43.67713928 C-20.41385526 44.67908609 -17.36844716 45.69134385 -14.32299805 46.70385742 C-12.26072209 47.383574 -10.19822476 48.06261933 -8.13549805 48.7409668 C-3.07040038 50.40830673 1.99182982 52.08413228 7.05200195 53.76635742 C6.12700818 50.99137611 5.26256643 49.48414161 3.56762695 47.16870117 C3.05022949 46.45786377 2.53283203 45.74702637 1.99975586 45.01464844 C1.43949707 44.2520874 0.87923828 43.48952637 0.30200195 42.70385742 C-0.55578857 41.52231079 -0.55578857 41.52231079 -1.4309082 40.31689453 C-4.50591223 36.08425673 -7.60919559 31.8741239 -10.73706055 27.68041992 C-11.33808594 26.86710205 -11.93911133 26.05378418 -12.55834961 25.21582031 C-13.72082203 23.64339463 -14.8918713 22.07726818 -16.07202148 20.51806641 C-16.59570312 19.807229 -17.11938477 19.0963916 -17.65893555 18.36401367 C-18.35962158 17.42827515 -18.35962158 17.42827515 -19.07446289 16.47363281 C-19.36272949 15.91023193 -19.65099609 15.34683105 -19.94799805 14.76635742 C-18.61402834 10.76444831 -16.00857904 9.48577879 -12.63549805 7.26635742 C-8.08479127 4.26152926 -8.08479127 4.26152926 -3.7800293 0.92260742 C-1.94799805 -0.23364258 -1.94799805 -0.23364258 0 0 Z " fill="#29B5F3" transform="translate(67.947998046875,35.233642578125)"/>
<path d="M0 0 C1.00488281 1.79418945 1.00488281 1.79418945 1.703125 4.11328125 C2.08984375 5.3672168 2.08984375 5.3672168 2.484375 6.64648438 C2.73703125 7.52626953 2.9896875 8.40605469 3.25 9.3125 C3.518125 10.18068359 3.78625 11.04886719 4.0625 11.94335938 C5.2418228 15.8634043 6 18.85722486 6 23 C-25.67358398 33.55786133 -25.67358398 33.55786133 -27.81211853 34.26954651 C-29.34913985 34.78270163 -30.88515711 35.29886922 -32.42042542 35.81724548 C-33.21303268 36.08412674 -34.00563995 36.351008 -34.82226562 36.62597656 C-35.53684937 36.86761536 -36.25143311 37.10925415 -36.9876709 37.35821533 C-41.67498584 38.85312333 -45.20253792 39.60414353 -49.74609375 37.56640625 C-50.98633243 36.91675742 -52.21691059 36.248355 -53.4375 35.5625 C-54.07365234 35.22412109 -54.70980469 34.88574219 -55.36523438 34.53710938 C-56.91895395 33.70768013 -58.4607945 32.85606297 -60 32 C-58.58868847 25.56890996 -56.44548335 18.98496802 -52 14 C-47.53513694 11.62942295 -42.90344374 10.78106992 -38.00634766 9.74316406 C-34.31950168 8.83178196 -30.73535046 7.6658391 -27.13671875 6.4609375 C-26.44490509 6.23003418 -25.75309143 5.99913086 -25.04031372 5.76123047 C-22.21895728 4.81633588 -19.3992924 3.86659678 -16.58178711 2.91027832 C-14.58236226 2.23510953 -12.5789031 1.57342204 -10.57421875 0.9140625 C-9.40463623 0.5217041 -8.23505371 0.1293457 -7.0300293 -0.27490234 C-2.58765483 -1.33797963 -2.58765483 -1.33797963 0 0 Z " fill="#D301F8" transform="translate(194,72)"/>
<path d="M0 0 C6.5508985 0.45759953 12.6753842 1.2100144 19 3 C18.34 4.65 17.68 6.3 17 8 C17.721875 8.226875 18.44375 8.45375 19.1875 8.6875 C25.17625404 11.48225189 28.85713965 17.24023167 32.6875 22.4375 C33.4604541 23.47898193 33.4604541 23.47898193 34.24902344 24.54150391 C35.83875724 26.68993789 37.42047651 28.84405109 39 31 C39.50418457 31.68562012 40.00836914 32.37124023 40.52783203 33.07763672 C41.94191139 35.00533141 43.34783441 36.93862745 44.75 38.875 C45.18014404 39.46337646 45.61028809 40.05175293 46.0534668 40.65795898 C49 44.76677984 49 44.76677984 49 47 C46.27392609 49.46427363 43.22569395 51.53559862 40.25 53.6875 C39.0125 54.6165918 39.0125 54.6165918 37.75 55.56445312 C36.95078125 56.14517578 36.1515625 56.72589844 35.328125 57.32421875 C34.5949707 57.86135498 33.86181641 58.39849121 33.10644531 58.9519043 C31 60 31 60 28.89599609 59.86132812 C26.65438293 58.84299034 25.77713838 57.87972299 24.3359375 55.89453125 C23.85858154 55.24758301 23.38122559 54.60063477 22.8894043 53.93408203 C22.38965088 53.23395996 21.88989746 52.53383789 21.375 51.8125 C20.85010986 51.09433105 20.32521973 50.37616211 19.78442383 49.63623047 C18.1782721 47.43210805 16.58771861 45.21742564 15 43 C14.07966854 41.72508608 13.15910961 40.45033632 12.23828125 39.17578125 C10.55992041 36.85014742 8.91042557 34.50721474 7.2734375 32.15234375 C5.10442809 29.03414926 5.10442809 29.03414926 2.7890625 26.50390625 C-1.88638347 21.02457926 -2.48040093 16.98071242 -2 10 C-1.3703369 2.74067381 -1.3703369 2.74067381 0 0 Z " fill="#06E3FA" transform="translate(128,130)"/>
<path d="M0 0 C1.7015625 0.8353125 1.7015625 0.8353125 3.4375 1.6875 C4.283125 2.120625 5.12875 2.55375 6 3 C4.77182905 6.93703399 3.39426327 10.52642468 1.375 14.125 C0.92898437 14.95257813 0.48296875 15.78015625 0.0234375 16.6328125 C-4.69043286 22.14749481 -12.67861523 24.08821451 -19.390625 26.26953125 C-20.25766052 26.55479172 -21.12469604 26.84005219 -22.01800537 27.13395691 C-23.8354911 27.72950222 -25.65405284 28.32177297 -27.47363281 28.91088867 C-30.26002429 29.81575534 -33.04011963 30.73839788 -35.8203125 31.66210938 C-37.593396 32.24066935 -39.36682204 32.81818084 -41.140625 33.39453125 C-41.96983459 33.67150345 -42.79904419 33.94847565 -43.65338135 34.23384094 C-44.42808777 34.48127548 -45.20279419 34.72871002 -46.00097656 34.98364258 C-46.67856018 35.20474197 -47.3561438 35.42584137 -48.05426025 35.65364075 C-50.37171648 36.06616889 -51.80868009 35.83965295 -54 35 C-55.09667969 32.86694336 -55.09667969 32.86694336 -55.921875 30.08984375 C-56.22480469 29.10048828 -56.52773438 28.11113281 -56.83984375 27.09179688 C-57.14019531 26.05087891 -57.44054687 25.00996094 -57.75 23.9375 C-58.06582031 22.89271484 -58.38164063 21.84792969 -58.70703125 20.77148438 C-59.48648899 18.18510187 -60.24997689 15.59504201 -61 13 C-58.44650225 11.29766817 -56.68177335 10.43496298 -53.83911133 9.48779297 C-53.00426712 9.2076535 -52.16942291 8.92751404 -51.3092804 8.6388855 C-50.40928818 8.34297516 -49.50929596 8.04706482 -48.58203125 7.7421875 C-47.65081955 7.43427277 -46.71960785 7.12635803 -45.76017761 6.80911255 C-43.78813767 6.15942685 -41.81523747 5.51234748 -39.84155273 4.86767578 C-36.83758757 3.88322165 -33.83976987 2.88143592 -30.84179688 1.87890625 C-28.92222934 1.24891931 -27.00231784 0.61997926 -25.08203125 -0.0078125 C-24.19216019 -0.3077713 -23.30228912 -0.6077301 -22.38545227 -0.91677856 C-14.09216882 -3.58663407 -8.04720287 -4.02360143 0 0 Z " fill="#D202F6" transform="translate(85,118)"/>
<path d="M0 0 C2.43768181 0.91039657 3.19924734 1.78247636 4.71606445 3.87182617 C5.19342041 4.51877441 5.67077637 5.16572266 6.16259766 5.83227539 C6.66235107 6.53239746 7.16210449 7.23251953 7.67700195 7.95385742 C8.20189209 8.67202637 8.72678223 9.39019531 9.26757812 10.13012695 C10.87372985 12.33424938 12.46428335 14.54893178 14.05200195 16.76635742 C14.97233341 18.04127134 15.89289235 19.3160211 16.8137207 20.59057617 C18.48583094 22.91050321 20.13978237 25.2419328 21.7824707 27.58276367 C23.22128502 29.60106602 24.69920583 31.59250097 26.2277832 33.54370117 C29.8119869 38.20532081 31.9342173 41.46378549 31.4309082 47.44995117 C30.75338138 51.59194506 29.97514396 55.66991478 29.05200195 59.76635742 C25.42200195 59.43635742 21.79200195 59.10635742 18.05200195 58.76635742 C18.05200195 57.77635742 18.05200195 56.78635742 18.05200195 55.76635742 C16.38137695 55.85916992 16.38137695 55.85916992 14.67700195 55.95385742 C13.48075195 55.89198242 12.28450195 55.83010742 11.05200195 55.76635742 C9.05200195 52.76635742 9.05200195 52.76635742 9.05200195 49.76635742 C8.48739258 49.71866211 7.9227832 49.6709668 7.34106445 49.62182617 C3.99908274 48.37286031 2.45535086 45.8730404 0.42700195 43.07885742 C-0.00249756 42.50377441 -0.43199707 41.92869141 -0.87451172 41.33618164 C-2.24628646 39.48936039 -3.59966783 37.63035299 -4.94799805 35.76635742 C-5.61968018 34.83944092 -5.61968018 34.83944092 -6.30493164 33.89379883 C-8.81168587 30.42410081 -11.30437419 26.94483992 -13.75512695 23.43530273 C-14.6090753 22.24054406 -15.48963804 21.06463313 -16.38696289 19.90209961 C-17.6481116 18.24404336 -18.80640987 16.50889093 -19.94799805 14.76635742 C-18.61402834 10.76444831 -16.00857904 9.48577879 -12.63549805 7.26635742 C-8.08479127 4.26152926 -8.08479127 4.26152926 -3.7800293 0.92260742 C-1.94799805 -0.23364258 -1.94799805 -0.23364258 0 0 Z " fill="#06E2FA" transform="translate(67.947998046875,35.233642578125)"/>
<path d="M0 0 C8.25 0 16.5 0 25 0 C25.04599264 6.85034822 25.08579477 13.70015734 25.10986328 20.55053711 C25.11990049 22.87933165 25.13353314 25.20811366 25.15087891 27.53686523 C25.17522727 30.89049379 25.18650615 34.24395521 25.1953125 37.59765625 C25.20563507 38.63334244 25.21595764 39.66902863 25.22659302 40.73609924 C25.22765556 47.63265662 25.18931841 53.36205076 20.6171875 58.87109375 C19.71226563 59.71800781 18.80734375 60.56492188 17.875 61.4375 C16.96492188 62.30246094 16.05484375 63.16742188 15.1171875 64.05859375 C14.41851562 64.69925781 13.71984375 65.33992188 13 66 C7.71397301 63.660829 3.72705011 60.30329431 0.84796143 55.22161865 C-2.54269018 46.33827253 -0.85462074 35.12790592 -0.5625 25.8125 C-0.51730566 23.30931675 -0.47624983 20.80605515 -0.43945312 18.30273438 C-0.3484629 12.1983013 -0.1723566 6.10482823 0 0 Z " fill="#536E79" transform="translate(98,23)"/>
<path d="M0 0 C5.28602699 2.339171 9.27294989 5.69670569 12.15203857 10.77838135 C15.54269018 19.66172747 13.85462074 30.87209408 13.5625 40.1875 C13.51730566 42.69068325 13.47624983 45.19394485 13.43945312 47.69726562 C13.3484629 53.8016987 13.1723566 59.89517177 13 66 C4.75 66 -3.5 66 -12 66 C-12.04596128 59.13134232 -12.08577276 52.26322029 -12.10986328 45.39453125 C-12.11990831 43.05890086 -12.13354677 40.723283 -12.15087891 38.38769531 C-12.17519277 35.02666119 -12.18649827 31.66579366 -12.1953125 28.3046875 C-12.20563507 27.26384003 -12.21595764 26.22299255 -12.22659302 25.15060425 C-12.22771698 17.85481352 -11.70815437 12.35652761 -6.5625 6.8125 C-5.96566406 6.15894531 -5.36882812 5.50539062 -4.75390625 4.83203125 C-3.19022509 3.19869837 -1.60864298 1.58896539 0 0 Z " fill="#536D78" transform="translate(114,136)"/>
<path d="M0 0 C8.25 0 16.5 0 25 0 C25.04599264 6.85034822 25.08579477 13.70015734 25.10986328 20.55053711 C25.11990049 22.87933165 25.13353314 25.20811366 25.15087891 27.53686523 C25.17522727 30.89049379 25.18650615 34.24395521 25.1953125 37.59765625 C25.20563507 38.63334244 25.21595764 39.66902863 25.22659302 40.73609924 C25.22743392 46.19405725 25.05603653 50.90518078 23 56 C22.01 56.66 21.02 57.32 20 58 C20.14305573 57.43546112 20.28611145 56.87092224 20.4335022 56.28927612 C22.30145295 48.74069424 23.27304883 41.83798693 22.9765625 34.0546875 C22.95153656 33.15879913 22.92651062 32.26291077 22.90072632 31.33987427 C22.81947564 28.51780832 22.72252775 25.6965454 22.625 22.875 C22.56666306 20.94534382 22.50936214 19.01565602 22.453125 17.0859375 C22.31595844 12.39 22.1575091 7.69547395 22 3 C15.07 2.67 8.14 2.34 1 2 C1.33 19.16 1.66 36.32 2 54 C1.34 53.67 0.68 53.34 0 53 C0 35.51 0 18.02 0 0 Z " fill="#4C5F67" transform="translate(98,23)"/>
<path d="M0 0 C1.35219824 2.70439649 0.68578409 4.73652747 0.27786255 7.64526367 C-0.22250397 11.88560202 -0.23901718 16.14073413 -0.31640625 20.40625 C-0.33718735 21.3715564 -0.35796844 22.33686279 -0.37937927 23.3314209 C-0.44428962 26.38754787 -0.50348516 29.44375408 -0.5625 32.5 C-0.60574099 34.58334123 -0.64935698 36.66667471 -0.69335938 38.75 C-0.79991025 43.833254 -0.90133915 48.91658699 -1 54 C4.94 54 10.88 54 17 54 C17 54.33 17 54.66 17 55 C10.4 55.33 3.8 55.66 -3 56 C-3.04951216 49.13152106 -3.08577302 42.2631465 -3.10986328 35.39453125 C-3.11990831 33.05890086 -3.13354677 30.723283 -3.15087891 28.38769531 C-3.17519277 25.02666119 -3.18649827 21.66579366 -3.1953125 18.3046875 C-3.20563507 17.26384003 -3.21595764 16.22299255 -3.22659302 15.15060425 C-3.22737878 10.05014048 -3.11679457 5.74827234 -1 1 C-0.67 0.67 -0.34 0.34 0 0 Z " fill="#54636E" transform="translate(105,146)"/>
<path d="M0 0 C1.00488281 1.79418945 1.00488281 1.79418945 1.703125 4.11328125 C2.08984375 5.3672168 2.08984375 5.3672168 2.484375 6.64648438 C2.73703125 7.52626953 2.9896875 8.40605469 3.25 9.3125 C3.518125 10.18068359 3.78625 11.04886719 4.0625 11.94335938 C5.2418228 15.8634043 6 18.85722486 6 23 C3.09399739 24.25664978 1.20395416 25 -2 25 C-2 24.34 -2 23.68 -2 23 C-0.68 22.67 0.64 22.34 2 22 C1.67 21.01 1.34 20.02 1 19 C0.9314505 17.10529184 0.91519628 15.2083166 0.9375 13.3125 C0.94652344 12.31863281 0.95554688 11.32476562 0.96484375 10.30078125 C0.97644531 9.54152344 0.98804688 8.78226563 1 8 C-1.31 7.67 -3.62 7.34 -6 7 C-5.34 5.35 -4.68 3.7 -4 2 C-5.12148437 2.34224609 -5.12148437 2.34224609 -6.265625 2.69140625 C-7.25046875 2.97886719 -8.2353125 3.26632813 -9.25 3.5625 C-10.22453125 3.85253906 -11.1990625 4.14257812 -12.203125 4.44140625 C-14.96243932 4.99249836 -16.3912824 4.93789609 -19 4 C-16.58732675 3.132758 -14.17095531 2.28103064 -11.75 1.4375 C-11.06808594 1.19064453 -10.38617188 0.94378906 -9.68359375 0.68945312 C-3.38984667 -1.47975097 -3.38984667 -1.47975097 0 0 Z " fill="#C017DE" transform="translate(194,72)"/>
<path d="M0 0 C-0.99 0.33 -1.98 0.66 -3 1 C-3.33 1.99 -3.66 2.98 -4 4 C-7.63805758 6.09463921 -10.7367722 6.06326028 -14.86328125 5.9375 C-18.40959485 6.04123129 -21.59886802 7.02824801 -25 8 C-25 9.65 -25 11.3 -25 13 C-26.32 13.33 -27.64 13.66 -29 14 C-27.125 8.25 -27.125 8.25 -26 6 C-23.29456876 5.07648299 -20.62650457 4.2591944 -17.875 3.5 C-17.12734375 3.28730469 -16.3796875 3.07460937 -15.609375 2.85546875 C-14.12355528 2.43353737 -12.63624962 2.01680148 -11.14746094 1.60546875 C-9.74433894 1.20986364 -8.34607408 0.79648702 -6.95410156 0.36328125 C-2.20690484 -1.10345242 -2.20690484 -1.10345242 0 0 Z " fill="#C515C9" transform="translate(168,80)"/>
<path d="M0 0 C-0.99 0.33 -1.98 0.66 -3 1 C-3 1.66 -3 2.32 -3 3 C-4.423125 3.0928125 -4.423125 3.0928125 -5.875 3.1875 C-7.421875 3.5896875 -7.421875 3.5896875 -9 4 C-10.45291273 6.46255685 -10.45291273 6.46255685 -11 9 C-12.98 9 -14.96 9 -17 9 C-16.67 10.32 -16.34 11.64 -16 13 C-16.99 13.495 -16.99 13.495 -18 14 C-18.99 11.69 -19.98 9.38 -21 7 C-18.82075876 5.81516981 -16.63370585 4.65261867 -14.4375 3.5 C-13.82841797 3.16613281 -13.21933594 2.83226563 -12.59179688 2.48828125 C-8.23984839 0.23171537 -5.00414429 -0.36065905 0 0 Z " fill="#36AFEA" transform="translate(156,110)"/>
<path d="M0 0 C1.42002108 6.7831364 2.22731216 13.06697907 2 20 C1.34 20 0.68 20 0 20 C-0.19916016 18.66195312 -0.19916016 18.66195312 -0.40234375 17.296875 C-0.57894531 16.12640625 -0.75554687 14.9559375 -0.9375 13.75 C-1.11152344 12.58984375 -1.28554687 11.4296875 -1.46484375 10.234375 C-1.8727736 7.76893039 -2.33901303 5.40575438 -3 3 C-5.33294775 2.95758277 -7.66702567 2.95907063 -10 3 C-10.33 3.33 -10.66 3.66 -11 4 C-12.99958364 4.04080783 -15.00045254 4.04254356 -17 4 C-17 3.34 -17 2.68 -17 2 C-5.47835991 -0.29612756 -5.47835991 -0.29612756 0 0 Z " fill="#CF1A5B" transform="translate(101,133)"/>
<path d="M0 0 C0.6703125 0.37125 1.340625 0.7425 2.03125 1.125 C2.5159375 1.41375 3.000625 1.7025 3.5 2 C0.36650268 3.04449911 -0.48968256 2.93423645 -3.5 2 C-3.5 1.34 -3.5 0.68 -3.5 0 C-8.05464804 -0.38762962 -10.86797697 -0.01285513 -15 2 C-19.13202303 4.01285513 -21.94535196 4.38762962 -26.5 4 C-26.83 4.99 -27.16 5.98 -27.5 7 C-30.47 6.505 -30.47 6.505 -33.5 6 C-30.39839238 2.89839238 -26.49869313 2.17689103 -22.375 0.875 C-21.54484375 0.59785156 -20.7146875 0.32070312 -19.859375 0.03515625 C-13.11819665 -2.10976413 -6.51489968 -3.72279982 0 0 Z " fill="#B220DA" transform="translate(82.5,117)"/>
<path d="M0 0 C0.6875 1.6875 0.6875 1.6875 1 4 C-0.4375 6.75 -0.4375 6.75 -2 9 C-1.34 9.0825 -0.68 9.165 0 9.25 C3.35399294 10.08849823 6.01491488 11.48506914 9.0625 13.078125 C11.33699824 14.16034593 13.50456174 14.68807022 16 15 C16 14.34 16 13.68 16 13 C19.3 12.67 22.6 12.34 26 12 C21.25018071 15.16654619 16.73773713 16.78609313 11 17 C5.64225352 15.53668485 0.79321211 12.74365557 -4 10 C-3.18174726 6.34566735 -1.73565302 3.3203797 0 0 Z " fill="#B422D8" transform="translate(138,94)"/>
<path d="M0 0 C3.96814965 3.75365507 7.16796503 7.7292482 10.3125 12.1875 C10.76689453 12.81591797 11.22128906 13.44433594 11.68945312 14.09179688 C15 18.74647556 15 18.74647556 15 21 C13 22.625 13 22.625 11 24 C10.34 23.67 9.68 23.34 9 23 C9 20.36 9 17.72 9 15 C8.01 14.67 7.02 14.34 6 14 C5.67 12.35 5.34 10.7 5 9 C4.01 8.67 3.02 8.34 2 8 C1.26953125 6.15234375 1.26953125 6.15234375 0.8125 3.9375 C0.65394531 3.20402344 0.49539062 2.47054687 0.33203125 1.71484375 C0.22246094 1.14894531 0.11289063 0.58304688 0 0 Z " fill="#26D7EB" transform="translate(162,156)"/>
<path d="M0 0 C6.70646429 1.3631025 13.04905921 3.2259958 19.5 5.5 C20.40492187 5.80808594 21.30984375 6.11617188 22.2421875 6.43359375 C23.10070312 6.73394531 23.95921875 7.03429687 24.84375 7.34375 C26.00680664 7.74883789 26.00680664 7.74883789 27.19335938 8.16210938 C29 9 29 9 30 11 C27.69 10.67 25.38 10.34 23 10 C23 9.34 23 8.68 23 8 C21.02 8.33 19.04 8.66 17 9 C16.67 8.34 16.34 7.68 16 7 C12.97065509 6.34227572 12.97065509 6.34227572 10 6 C10 5.34 10 4.68 10 4 C9.34 4 8.68 4 8 4 C7.67 4.66 7.34 5.32 7 6 C7 5.34 7 4.68 7 4 C6.01 4.33 5.02 4.66 4 5 C2.68 3.35 1.36 1.7 0 0 Z " fill="#38AEE0" transform="translate(48,81)"/>
<path d="M0 0 C1.32 0.66 2.64 1.32 4 2 C3.39386998 5.12413285 2.39972557 7.13369924 0.49609375 9.671875 C0.00302734 10.33574219 -0.49003906 10.99960937 -0.99804688 11.68359375 C-1.51431641 12.36550781 -2.03058594 13.04742187 -2.5625 13.75 C-3.08263672 14.44738281 -3.60277344 15.14476562 -4.13867188 15.86328125 C-5.42014181 17.57974556 -6.70932798 19.29044431 -8 21 C-8.33 20.34 -8.66 19.68 -9 19 C-8.505 17.515 -8.505 17.515 -8 16 C-7.34 16 -6.68 16 -6 16 C-6.0825 15.0925 -6.165 14.185 -6.25 13.25 C-6 10 -6 10 -4 7.625 C-3.34 7.08875 -2.68 6.5525 -2 6 C-2 6.66 -2 7.32 -2 8 C-1.34 8 -0.68 8 0 8 C0 5.36 0 2.72 0 0 Z " fill="#DA1156" transform="translate(169,43)"/>
<path d="M0 0 C1 2 1 2 0.5390625 4.171875 C-2.00181729 11.33845902 -5.31552618 14.48636633 -12 18 C-10.46906512 13.32800909 -7.89242605 9.97829995 -4.875 6.1875 C-4.40707031 5.59001953 -3.93914062 4.99253906 -3.45703125 4.37695312 C-2.30994435 2.91383208 -1.15568766 1.45633703 0 0 Z " fill="#D81057" transform="translate(73,149)"/>
<path d="M0 0 C2.475 0.495 2.475 0.495 5 1 C4.98259766 1.90492188 4.98259766 1.90492188 4.96484375 2.828125 C4.95582031 3.62734375 4.94679688 4.4265625 4.9375 5.25 C4.92589844 6.03890625 4.91429687 6.8278125 4.90234375 7.640625 C4.99614694 9.90691002 5.36758937 11.8288895 6 14 C8.64 13.67 11.28 13.34 14 13 C10.81237635 15.12508244 8.73487777 15.5020163 5 16 C2.91864693 10.70201036 1.28708387 5.54436129 0 0 Z " fill="#C514E2" transform="translate(27,138)"/>
<path d="M0 0 C2.97 0.495 2.97 0.495 6 1 C7.18771723 4.42943519 6.80226223 6.37784675 5.5625 9.75 C5.27503906 10.54921875 4.98757812 11.3484375 4.69140625 12.171875 C4.46324219 12.77515625 4.23507813 13.3784375 4 14 C3.67 14 3.34 14 3 14 C1.23384882 9.29026351 0.51405169 4.96916636 0 0 Z " fill="#2EB2ED" transform="translate(195,124)"/>
<path d="M0 0 C-3.93940757 2.62627171 -8.00955852 3.76964144 -12.5 5.1875 C-13.36753906 5.47302734 -14.23507813 5.75855469 -15.12890625 6.05273438 C-16.37994141 6.45008789 -16.37994141 6.45008789 -17.65625 6.85546875 C-18.41744141 7.09934326 -19.17863281 7.34321777 -19.96289062 7.59448242 C-22 8 -22 8 -25 7 C-21.27034861 4.96564469 -19.33094958 4 -15 4 C-15 3.34 -15 2.68 -15 2 C-9.92523206 0.73694665 -5.27203646 -0.27036084 0 0 Z " fill="#BA23D4" transform="translate(192,97)"/>
<path d="M0 0 C2 0 2 0 3.5 1.25 C5.05889736 3.06871358 5.93435591 4.86871183 7 7 C7.66 7.33 8.32 7.66 9 8 C9.66666667 9.66666667 10.33333333 11.33333333 11 13 C11.66 13.33 12.32 13.66 13 14 C14.59343064 16.24656829 15.74269309 18.5287416 17 21 C16.67 21.66 16.34 22.32 16 23 C14.07648834 20.48432542 12.162499 17.96155391 10.25 15.4375 C9.71117187 14.73302734 9.17234375 14.02855469 8.6171875 13.30273438 C5.37895272 9.01799689 2.55751088 4.72394606 0 0 Z " fill="#2BD9E8" transform="translate(54,57)"/>
<path d="M0 0 C7.625 0.875 7.625 0.875 11 2 C14.58343976 2.16677282 14.58343976 2.16677282 18 2 C18.33 1.67 18.66 1.34 19 1 C20.66617115 0.95936168 22.33388095 0.957279 24 1 C19.325859 4.5835081 17.31015787 5.16063205 11.53125 4.45703125 C7.53750711 3.73593878 3.79127716 2.42509 0 1 C0 0.67 0 0.34 0 0 Z " fill="#4B9AE0" transform="translate(58,110)"/>
<path d="M0 0 C1.125 1.5625 1.125 1.5625 2 4 C1.125 7.75 1.125 7.75 0 11 C-2.475 10.01 -2.475 10.01 -5 9 C-4.42647107 5.12867972 -2.51295648 2.91827204 0 0 Z " fill="#DC0F57" transform="translate(57,171)"/>
<path d="M0 0 C3.3502463 3.81234923 5.16974789 7.33285711 7 12 C5.03533587 13.06775224 3.03144641 14.06553465 1 15 C0.34 14.67 -0.32 14.34 -1 14 C-0.34 13.34 0.32 12.68 1 12 C0.67 11.34 0.34 10.68 0 10 C0.66 9.34 1.32 8.68 2 8 C1.67 7.236875 1.34 6.47375 1 5.6875 C0 3 0 3 0 0 Z " fill="#39AFE1" transform="translate(83,96)"/>
<path d="M0 0 C-1.23944276 0.86941494 -2.49207059 1.72005457 -3.75 2.5625 C-4.44609375 3.03816406 -5.1421875 3.51382813 -5.859375 4.00390625 C-8 5 -8 5 -10.265625 4.65234375 C-10.83796875 4.43707031 -11.4103125 4.22179687 -12 4 C-12 6.31 -12 8.62 -12 11 C-13.41898766 8.35122304 -14.31911019 5.91985181 -15 3 C-13.06643218 2.30151736 -11.12797702 1.61655186 -9.1875 0.9375 C-8.10855469 0.55464844 -7.02960937 0.17179687 -5.91796875 -0.22265625 C-3 -1 -3 -1 0 0 Z " fill="#B827D1" transform="translate(39,127)"/>
<path d="M0 0 C0.66 0 1.32 0 2 0 C2.96205088 6.37358711 3.10655578 12.55929529 3 19 C4.65 19 6.3 19 8 19 C8 19.33 8 19.66 8 20 C6.02 20 4.04 20 2 20 C0.57997892 13.2168636 -0.22731216 6.93302093 0 0 Z " fill="#C9255B" transform="translate(122,72)"/>
<path d="M0 0 C0.99 0 1.98 0 3 0 C4.82421875 1.96875 4.82421875 1.96875 6.6875 4.5 C7.31011719 5.3353125 7.93273437 6.170625 8.57421875 7.03125 C9.04472656 7.6809375 9.51523438 8.330625 10 9 C9.67 9.66 9.34 10.32 9 11 C7.35 10.67 5.7 10.34 4 10 C3.4465236 7.92446352 3 6.15634036 3 4 C1.68 3.34 0.36 2.68 -1 2 C-0.67 1.34 -0.34 0.68 0 0 Z " fill="#436B74" transform="translate(117,140)"/>
<path d="M0 0 C0.99 0.495 0.99 0.495 2 1 C2 1.66 2 2.32 2 3 C3.77067416 3.16834933 5.54154612 3.33461909 7.3125 3.5 C8.79169922 3.63921875 8.79169922 3.63921875 10.30078125 3.78125 C13.04702139 4.04038857 13.04702139 4.04038857 16 4 C15.67 4.99 15.34 5.98 15 7 C15.99 7.33 16.98 7.66 18 8 C14.73579359 9.63210321 11.72509605 7.89615515 8.4375 6.8125 C7.73947266 6.60302734 7.04144531 6.39355469 6.32226562 6.17773438 C4.30859375 5.51953125 4.30859375 5.51953125 1 4 C0.03515625 1.82421875 0.03515625 1.82421875 0 0 Z " fill="#39A9DD" transform="translate(23,96)"/>
<path d="M0 0 C1.77155654 0.11429397 3.54226229 0.24183037 5.3125 0.375 C6.79169922 0.47941406 6.79169922 0.47941406 8.30078125 0.5859375 C11 1 11 1 14 3 C12.20841511 3.02696365 10.41671527 3.04637917 8.625 3.0625 C7.62726563 3.07410156 6.62953125 3.08570313 5.6015625 3.09765625 C3 3 3 3 1 2 C0.67 3.65 0.34 5.3 0 7 C-0.33 7 -0.66 7 -1 7 C-0.67 4.69 -0.34 2.38 0 0 Z " fill="#2FD6E9" transform="translate(128,130)"/>
<path d="M0 0 C1.65 0.33 3.3 0.66 5 1 C3.58707905 5.8274799 1.57025846 9.7162359 -1 14 C-2.24546405 11.50907189 -1.7767578 10.58919267 -1 8 C-0.34 8 0.32 8 1 8 C0.67 5.36 0.34 2.72 0 0 Z " fill="#B91FD2" transform="translate(86,120)"/>
<path d="M0 0 C-0.99 0.33 -1.98 0.66 -3 1 C-3.33 1.99 -3.66 2.98 -4 4 C-6.90018326 5.61121292 -8.50161669 6.06645111 -11.8125 5.625 C-12.534375 5.41875 -13.25625 5.2125 -14 5 C-13.360625 4.896875 -12.72125 4.79375 -12.0625 4.6875 C-11.381875 4.460625 -10.70125 4.23375 -10 4 C-9.67 3.01 -9.34 2.02 -9 1 C-2.63157895 -1.31578947 -2.63157895 -1.31578947 0 0 Z " fill="#C512E1" transform="translate(168,80)"/>
<path d="M0 0 C-5.90377651 2.8751252 -11.53287812 4.83805848 -18 6 C-17.34 5.67 -16.68 5.34 -16 5 C-16 4.34 -16 3.68 -16 3 C-14.7625 2.71125 -13.525 2.4225 -12.25 2.125 C-9.8388183 1.53493969 -7.95555415 0.97654247 -5.75 -0.1875 C-3.46526892 -1.248268 -2.35863566 -0.6871232 0 0 Z " fill="#BE1ED1" transform="translate(81,138)"/>
<path d="M0 0 C0 3.51716303 -0.82445585 4.37121748 -3 7 C-6.99455527 6.38545304 -9.74466336 4.29353263 -13 2 C-11.68 1.67 -10.36 1.34 -9 1 C-9 1.66 -9 2.32 -9 3 C-7.02 3.66 -5.04 4.32 -3 5 C-3 3.68 -3 2.36 -3 1 C-2.01 0.67 -1.02 0.34 0 0 Z " fill="#CB1B56" transform="translate(76,186)"/>
<path d="M0 0 C0.66 0.33 1.32 0.66 2 1 C1.67 3.64 1.34 6.28 1 9 C-0.98 7.68 -2.96 6.36 -5 5 C-3.35 3.35 -1.7 1.7 0 0 Z " fill="#E60954" transform="translate(62,178)"/>
<path d="M0 0 C1.50416548 3.00833096 0.60839737 5.34961578 0.0625 8.625 C-0.13214844 9.81351563 -0.32679687 11.00203125 -0.52734375 12.2265625 C-0.68332031 13.14179688 -0.83929688 14.05703125 -1 15 C-2.84398144 11.8936005 -3.2039901 9.94718528 -2.75 6.375 C-2.66234375 5.59898437 -2.5746875 4.82296875 -2.484375 4.0234375 C-2 2 -2 2 0 0 Z " fill="#5E5365" transform="translate(105,146)"/>
<path d="M0 0 C0.99 0.33 1.98 0.66 3 1 C1.22054913 5.04420651 -1.39529673 8.46078487 -4 12 C-4.33 10.68 -4.66 9.36 -5 8 C-4.01 7.67 -3.02 7.34 -2 7 C-2 6.01 -2 5.02 -2 4 C-1.34 4 -0.68 4 0 4 C0 2.68 0 1.36 0 0 Z " fill="#D81057" transform="translate(156,64)"/>
<path d="M0 0 C0 0.99 0 1.98 0 3 C0.3062434 4.33981486 0.63451555 5.67511887 1 7 C0.34 7 -0.32 7 -1 7 C-1 7.66 -1 8.32 -1 9 C-2.98 9.33 -4.96 9.66 -7 10 C-6.02223933 8.51990357 -5.0427506 7.04094856 -4.0625 5.5625 C-3.51722656 4.73878906 -2.97195312 3.91507813 -2.41015625 3.06640625 C-1 1 -1 1 0 0 Z " fill="#D61655" transform="translate(150,35)"/>
<path d="M0 0 C1.32 0 2.64 0 4 0 C3.38461538 5.53846154 3.38461538 5.53846154 1.4375 7.875 C0.7259375 8.431875 0.7259375 8.431875 0 9 C-0.99 8.34 -1.98 7.68 -3 7 C-1.68 6.67 -0.36 6.34 1 6 C0.67 4.02 0.34 2.04 0 0 Z " fill="#3BAADA" transform="translate(193,141)"/>
<path d="M0 0 C2.1796875 0.19921875 2.1796875 0.19921875 4.875 0.6875 C5.75929687 0.83574219 6.64359375 0.98398438 7.5546875 1.13671875 C10.49087167 2.17329495 11.39390588 3.3887675 13 6 C11.22739369 5.54857225 9.4569632 5.08859477 7.6875 4.625 C6.20830078 4.24214844 6.20830078 4.24214844 4.69921875 3.8515625 C2 3 2 3 -1 1 C-0.67 0.67 -0.34 0.34 0 0 Z " fill="#3CB0DD" transform="translate(151,134)"/>
<path d="M0 0 C0.66 0.33 1.32 0.66 2 1 C1.01 2.485 1.01 2.485 0 4 C0.26676204 5.98491642 0.26676204 5.98491642 1 8 C1.33333333 9.33333333 1.66666667 10.66666667 2 12 C-1.08089673 9.22719294 -2.68775452 6.93673644 -4 3 C-2.68 2.01 -1.36 1.02 0 0 Z " fill="#34D6E6" transform="translate(52,45)"/>
<path d="M0 0 C0.33 0.66 0.66 1.32 1 2 C-0.78150459 6.65170644 -2.51851506 8.81981814 -7 11 C-5.22054913 6.95579349 -2.60470327 3.53921513 0 0 Z " fill="#CB1C5A" transform="translate(131,61)"/>
<path d="M0 0 C1.5 1.375 1.5 1.375 3 3 C3 3.66 3 4.32 3 5 C5.64 4.67 8.28 4.34 11 4 C7.81237635 6.12508244 5.73487777 6.5020163 2 7 C0.5393715 4.35261084 0 3.10551666 0 0 Z " fill="#BA27D1" transform="translate(30,147)"/>
<path d="M0 0 C1.4391134 0.28359887 2.87625518 0.57721399 4.3125 0.875 C5.11300781 1.03742188 5.91351563 1.19984375 6.73828125 1.3671875 C9 2 9 2 12 4 C10.56344146 4.08131463 9.1255517 4.13933559 7.6875 4.1875 C6.48673828 4.23970703 6.48673828 4.23970703 5.26171875 4.29296875 C2.51075586 3.93662641 1.67775411 3.15556111 0 1 C0 0.67 0 0.34 0 0 Z " fill="#42ACE0" transform="translate(171,116)"/>
<path d="M0 0 C-0.99 0.33 -1.98 0.66 -3 1 C-3 1.66 -3 2.32 -3 3 C-5.3125 3.625 -5.3125 3.625 -8 4 C-8.99 3.34 -9.98 2.68 -11 2 C-7.36576791 -0.32590854 -4.22911669 -0.16265833 0 0 Z " fill="#4E9FF3" transform="translate(156,110)"/>
<path d="M0 0 C1.46015291 0.28241641 2.91809793 0.57626614 4.375 0.875 C5.18710938 1.03742188 5.99921875 1.19984375 6.8359375 1.3671875 C9 2 9 2 11 4 C10.01 4.33 9.02 4.66 8 5 C8 4.34 8 3.68 8 3 C6.8553125 3.2784375 6.8553125 3.2784375 5.6875 3.5625 C3 4 3 4 0 3 C0 2.01 0 1.02 0 0 Z " fill="#3EACE3" transform="translate(159,112)"/>
<path d="M0 0 C0.33 0.99 0.66 1.98 1 3 C1.66 3.33 2.32 3.66 3 4 C2.67 5.65 2.34 7.3 2 9 C1.34 9 0.68 9 0 9 C0 7.68 0 6.36 0 5 C-0.66 4.67 -1.32 4.34 -2 4 C-1.34 2.68 -0.68 1.36 0 0 Z " fill="#E10B55" transform="translate(76,145)"/>
<path d="M0 0 C1.11375 0.598125 2.2275 1.19625 3.375 1.8125 C4.00148437 2.14894531 4.62796875 2.48539063 5.2734375 2.83203125 C7 4 7 4 9 7 C4.71193127 6.52354792 2.73352513 5.34097516 0 2 C0 1.34 0 0.68 0 0 Z " fill="#D41456" transform="translate(159,36)"/>
<path d="M0 0 C1.33176248 3.99528745 0.41870859 6.09855137 -1 10 C-1.99 10.66 -2.98 11.32 -4 12 C-3.33989524 9.15449988 -2.48275034 6.47674001 -1.4375 3.75 C-1.16808594 3.04359375 -0.89867188 2.3371875 -0.62109375 1.609375 C-0.41613281 1.07828125 -0.21117188 0.5471875 0 0 Z " fill="#5F5663" transform="translate(122,69)"/>
<path d="M0 0 C1.98 0.99 1.98 0.99 4 2 C3.37611108 5.61855575 2.8290723 6.1709277 0 9 C0 6.03 0 3.06 0 0 Z " fill="#C61C5D" transform="translate(169,43)"/>
<path d="M0 0 C0.66 0 1.32 0 2 0 C3.6875 2.375 3.6875 2.375 5 5 C4.67 5.66 4.34 6.32 4 7 C2.35 6.01 0.7 5.02 -1 4 C-0.67 2.68 -0.34 1.36 0 0 Z " fill="#21D9F1" transform="translate(146,134)"/>
<path d="M0 0 C-2.64 1.65 -5.28 3.3 -8 5 C-8 4.01 -8 3.02 -8 2 C-3.71900826 -1.23966942 -3.71900826 -1.23966942 0 0 Z " fill="#C519E1" transform="translate(39,127)"/>
<path d="M0 0 C0.33 1.32 0.66 2.64 1 4 C-1.90600261 5.25664978 -3.79604584 6 -7 6 C-7 5.34 -7 4.68 -7 4 C-5.35 4 -3.7 4 -2 4 C-1.34 2.68 -0.68 1.36 0 0 Z " fill="#B629D2" transform="translate(199,91)"/>
<path d="M0 0 C2.97 0.495 2.97 0.495 6 1 C6.625 2.875 6.625 2.875 7 5 C6.34 5.66 5.68 6.32 5 7 C4.87625 6.071875 4.87625 6.071875 4.75 5.125 C4.18741541 2.81562433 4.18741541 2.81562433 1.9375 1.75 C1.298125 1.5025 0.65875 1.255 0 1 C0 0.67 0 0.34 0 0 Z " fill="#3EB3D4" transform="translate(195,124)"/>
<path d="M0 0 C3.26954202 0.56371414 4.82575883 1.49962266 7 4 C4.36 3.67 1.72 3.34 -1 3 C-0.67 2.01 -0.34 1.02 0 0 Z " fill="#CB1957" transform="translate(152,32)"/>
</svg>
