<?xml version="1.0" encoding="UTF-8"?>
<svg version="1.1" xmlns="http://www.w3.org/2000/svg" width="153" height="148">
<path d="M0 0 C3.96167387 3.49004603 6.6392531 7.09383996 7.625 12.3125 C7.69048492 13.89461573 7.71078381 15.47920081 7.6875 17.0625 C7.67847656 17.86171875 7.66945312 18.6609375 7.66015625 19.484375 C7.64855469 20.08765625 7.63695312 20.6909375 7.625 21.3125 C8.615 20.8175 8.615 20.8175 9.625 20.3125 C15.46960492 19.9162556 19.39696458 20.35323467 24.625 23.3125 C28.21687316 26.70511596 29.90838026 28.82604162 30.21875 33.80859375 C30.21348246 35.45601716 30.18164124 37.10354216 30.125 38.75 C30.12886719 39.98073242 30.12886719 39.98073242 30.1328125 41.23632812 C30.02465311 48.01251368 28.72523066 52.88915694 24.1875 58.125 C20.13345161 61.58577302 17.18829704 62.55797878 11.875 62.9375 C10.39773437 63.04964844 10.39773437 63.04964844 8.890625 63.1640625 C8.14296875 63.21304688 7.3953125 63.26203125 6.625 63.3125 C6.851875 64.281875 7.07875 65.25125 7.3125 66.25 C7.98191471 71.02321796 6.76964367 75.04795854 4.625 79.3125 C0.52564811 83.62760726 -3.07543354 84.2017706 -8.86328125 84.48046875 C-25.57358448 84.56581248 -25.57358448 84.56581248 -31.25 80 C-35.44452733 74.69515662 -36.18559924 68.82889776 -37.375 62.3125 C-38.58736328 62.07466797 -38.58736328 62.07466797 -39.82421875 61.83203125 C-50.52004099 59.49675522 -50.52004099 59.49675522 -54.375 54.3125 C-56.35462548 50.35324904 -55.64753472 45.41605114 -55.6875 41.0625 C-55.71650391 40.02480469 -55.74550781 38.98710938 -55.77539062 37.91796875 C-55.82683333 31.72110125 -55.5894941 27.98759455 -51.375 23.3125 C-46.41079466 19.88483441 -41.23457131 19.64832523 -35.375 19.3125 C-35.436875 18.3225 -35.49875 17.3325 -35.5625 16.3125 C-35.52660575 10.40191269 -33.74909087 5.97587316 -30 1.4375 C-22.24495572 -4.27268186 -8.36968861 -4.18484431 0 0 Z M-26.375 6.3125 C-27.035 7.6325 -27.695 8.9525 -28.375 10.3125 C-26.395 11.3025 -26.395 11.3025 -24.375 12.3125 C-24.045 10.6625 -23.715 9.0125 -23.375 7.3125 C-24.365 6.9825 -25.355 6.6525 -26.375 6.3125 Z M-3.375 70.3125 C-4.035 71.6325 -4.695 72.9525 -5.375 74.3125 C-2.9 74.8075 -2.9 74.8075 -0.375 75.3125 C-0.705 73.6625 -1.035 72.0125 -1.375 70.3125 C-2.035 70.3125 -2.695 70.3125 -3.375 70.3125 Z " fill="#FAC739" transform="translate(90.375,26.6875)"/>
<path d="M0 0 C3.50459331 3.08737982 6.24654675 5.88844166 6.99316406 10.6706543 C7.12669118 13.39547381 7.12145819 16.0852083 7.0625 18.8125 C7.06958984 19.73675781 7.07667969 20.66101563 7.08398438 21.61328125 C7.01890819 28.61147409 5.82791677 32.74654255 1.18359375 38.15625 C-4.01458565 42.17236886 -11.31242671 40.85997529 -17.52148438 40.76171875 C-24.51776207 40.80536365 -28.22125101 41.43221524 -33.375 46.3125 C-35.57510789 49.38527639 -35.73393234 52.33755271 -36 56.0625 C-36.07476562 57.04734375 -36.14953125 58.0321875 -36.2265625 59.046875 C-36.27554688 59.79453125 -36.32453125 60.5421875 -36.375 61.3125 C-41.71919583 61.64651224 -46.78252395 61.32364925 -51.375 58.3125 C-56.26398506 52.99951446 -55.98081771 47.78765087 -55.875 40.8125 C-55.89046875 39.79285156 -55.9059375 38.77320313 -55.921875 37.72265625 C-55.89014765 31.623073 -55.48316049 27.92477542 -51.375 23.3125 C-46.41079466 19.88483441 -41.23457131 19.64832523 -35.375 19.3125 C-35.436875 18.3225 -35.49875 17.3325 -35.5625 16.3125 C-35.52660575 10.40191269 -33.74909087 5.97587316 -30 1.4375 C-22.24495572 -4.27268186 -8.36968861 -4.18484431 0 0 Z M-26.375 6.3125 C-27.035 7.6325 -27.695 8.9525 -28.375 10.3125 C-26.395 11.3025 -26.395 11.3025 -24.375 12.3125 C-24.045 10.6625 -23.715 9.0125 -23.375 7.3125 C-24.365 6.9825 -25.355 6.6525 -26.375 6.3125 Z " fill="#356891" transform="translate(90.375,26.6875)"/>
<path d="M0 0 C0.33 0 0.66 0 1 0 C1 2.97 1 5.94 1 9 C1.66 8.67 2.32 8.34 3 8 C8.84460492 7.6037556 12.77196458 8.04073467 18 11 C21.59187316 14.39261596 23.28338026 16.51354162 23.59375 21.49609375 C23.58848246 23.14351716 23.55664124 24.79104216 23.5 26.4375 C23.50386719 27.66823242 23.50386719 27.66823242 23.5078125 28.92382812 C23.42161568 34.32405903 22.43793706 38.18248075 20 43 C19.67 43 19.34 43 19 43 C18.505 30.13 18.505 30.13 18 17 C15.525 16.01 15.525 16.01 13 15 C12.01 14.34 11.02 13.68 10 13 C7.37468476 12.83286431 7.37468476 12.83286431 5 13 C4.896875 13.66 4.79375 14.32 4.6875 15 C4.460625 15.99 4.23375 16.98 4 18 C3.81050781 18.94166016 3.81050781 18.94166016 3.6171875 19.90234375 C2.47350658 24.09852514 0.7229543 26.79627699 -2.75 29.4375 C-10.7043523 33.84207419 -20.74929091 32.84446009 -29.59326172 32.77636719 C-32.16976373 33.01577435 -33.78398553 33.70009247 -36 35 C-36 35.99 -36 36.98 -36 38 C-36.99 38 -37.98 38 -39 38 C-39 45.92 -39 53.84 -39 62 C-38.34 62 -37.68 62 -37 62 C-35.98133771 63.65532623 -34.98189187 65.32260138 -34 67 C-31.44276771 68.27861615 -29.63262898 68.11336609 -26.7734375 68.09765625 C-25.7421875 68.09443359 -24.7109375 68.09121094 -23.6484375 68.08789062 C-22.56820312 68.07951172 -21.48796875 68.07113281 -20.375 68.0625 C-19.28703125 68.05798828 -18.1990625 68.05347656 -17.078125 68.04882812 C-14.38536211 68.03701776 -11.69270812 68.02054778 -9 68 C-9 67.34 -9 66.68 -9 66 C-10.32 66 -11.64 66 -13 66 C-15 63 -15 63 -14.6875 59.875 C-14 57 -14 57 -13 56 C-7.26388889 55.72685185 -7.26388889 55.72685185 -5 56 C-3 58 -3 58 -3 61 C-2.34 61 -1.68 61 -1 61 C-1 58.03 -1 55.06 -1 52 C-7.6 52 -14.2 52 -21 52 C-20.67 51.01 -20.34 50.02 -20 49 C-9.77 49 0.46 49 11 49 C11 49.33 11 49.66 11 50 C7.37 50.33 3.74 50.66 0 51 C0.226875 51.969375 0.45375 52.93875 0.6875 53.9375 C1.35691471 58.71071796 0.14464367 62.73545854 -2 67 C-6.09935189 71.31510726 -9.70043354 71.8892706 -15.48828125 72.16796875 C-32.19858448 72.25331248 -32.19858448 72.25331248 -37.875 67.6875 C-43.23647582 60.90680999 -44.36977747 51.62172991 -43.875 43.1875 C-43.13788642 37.23975596 -41.0864756 33.85842688 -36.60546875 29.8671875 C-31.18405016 26.3457872 -23.96343041 27.52849929 -17.765625 27.59960938 C-11.13919036 27.64337595 -11.13919036 27.64337595 -5.375 24.77734375 C-0.87873191 19.51937235 -0.64305414 14.84976239 -0.375 8.1875 C-0.33632812 7.39923828 -0.29765625 6.61097656 -0.2578125 5.79882812 C-0.16411156 3.8662462 -0.08099221 1.93315624 0 0 Z M-10 58 C-10.66 59.32 -11.32 60.64 -12 62 C-9.525 62.495 -9.525 62.495 -7 63 C-7.33 61.35 -7.66 59.7 -8 58 C-8.66 58 -9.32 58 -10 58 Z " fill="#E9C859" transform="translate(97,39)"/>
<path d="M0 0 C0.33 0 0.66 0 1 0 C1 2.97 1 5.94 1 9 C1.66 8.67 2.32 8.34 3 8 C8.84460492 7.6037556 12.77196458 8.04073467 18 11 C21.59187316 14.39261596 23.28338026 16.51354162 23.59375 21.49609375 C23.58848246 23.14351716 23.55664124 24.79104216 23.5 26.4375 C23.50386719 27.66823242 23.50386719 27.66823242 23.5078125 28.92382812 C23.42161568 34.32405903 22.43793706 38.18248075 20 43 C19.67 42.34 19.34 41.68 19 41 C19.495 40.01 19.495 40.01 20 39 C20.2383036 35.92247918 20.18519377 32.83573603 20.1875 29.75 C20.19974609 28.90308594 20.21199219 28.05617188 20.22460938 27.18359375 C20.23570977 22.42522439 20.02747444 18.40546142 18 14 C13.53323305 10.91580377 9.27394963 10.45465083 4 10 C3.81824219 10.87011719 3.81824219 10.87011719 3.6328125 11.7578125 C3.28462219 13.38091503 2.92049702 15.00065704 2.54296875 16.6171875 C2.11785672 18.48278707 1.76381765 20.36460912 1.4375 22.25 C-0.82602866 26.58022874 -4.55629197 28.20233127 -9 30 C-12.57576871 30.63505278 -16.06174315 30.70049554 -19.6875 30.6875 C-28.03992951 30.67580149 -28.03992951 30.67580149 -36 33 C-39.57894904 36.70236107 -40.08053984 40.5599851 -40.31640625 45.546875 C-40.35830078 46.39121094 -40.40019531 47.23554687 -40.44335938 48.10546875 C-40.48267578 48.97816406 -40.52199219 49.85085937 -40.5625 50.75 C-40.60568359 51.63816406 -40.64886719 52.52632812 -40.69335938 53.44140625 C-40.79913615 55.62745963 -40.90122546 57.81362089 -41 60 C-41.33 60 -41.66 60 -42 60 C-44.03083709 51.32278697 -45.36486251 42.81731252 -41.3125 34.5625 C-37.9517903 30.83847033 -35.41121929 28.30444125 -30.3605957 27.66674805 C-26.15893419 27.52553594 -21.96883109 27.55138418 -17.765625 27.59960938 C-11.13919036 27.64337595 -11.13919036 27.64337595 -5.375 24.77734375 C-0.87873191 19.51937235 -0.64305414 14.84976239 -0.375 8.1875 C-0.33632812 7.39923828 -0.29765625 6.61097656 -0.2578125 5.79882812 C-0.16411156 3.8662462 -0.08099221 1.93315624 0 0 Z " fill="#E6EAD0" transform="translate(97,39)"/>
<path d="M0 0 C6.38501163 -0.44807099 9.84177904 0.07975207 15 4 C17.39667265 9.15840141 17.30086138 14.18067906 17.25 19.75 C17.26160156 21.04357422 17.26160156 21.04357422 17.2734375 22.36328125 C17.27085938 23.18699219 17.26828125 24.01070312 17.265625 24.859375 C17.26336914 25.60670898 17.26111328 26.35404297 17.25878906 27.12402344 C17 29 17 29 15 31 C14.67 23.08 14.34 15.16 14 7 C11.525 6.01 11.525 6.01 9 5 C8.01 4.34 7.02 3.68 6 3 C3.37468476 2.83286431 3.37468476 2.83286431 1 3 C0.896875 3.66 0.79375 4.32 0.6875 5 C0.460625 5.99 0.23375 6.98 0 8 C-0.18949219 8.94166016 -0.18949219 8.94166016 -0.3828125 9.90234375 C-1.52649342 14.09852514 -3.2770457 16.79627699 -6.75 19.4375 C-14.7043523 23.84207419 -24.74929091 22.84446009 -33.59326172 22.77636719 C-36.16976373 23.01577435 -37.78398553 23.70009247 -40 25 C-40 25.99 -40 26.98 -40 28 C-40.99 28 -41.98 28 -43 28 C-43 35.92 -43 43.84 -43 52 C-42.34 52 -41.68 52 -41 52 C-40.01 53.98 -39.02 55.96 -38 58 C-40.375 57.6875 -40.375 57.6875 -43 57 C-46.0163328 52.4755008 -45.32898871 48.07255633 -45.3125 42.75 C-45.32861328 41.72519531 -45.34472656 40.70039062 -45.36132812 39.64453125 C-45.36572785 32.80736045 -44.76020276 27.76391286 -40.625 22.125 C-37.28326787 19.81149314 -33.11550152 19.87891403 -29.1640625 19.82421875 C-28.26429687 19.80037109 -27.36453125 19.77652344 -26.4375 19.75195312 C-24.57054119 19.70916865 -22.70328347 19.6778181 -20.8359375 19.65820312 C-14.67674983 19.46902808 -11.13674034 18.39512785 -6 15 C-5.34 15 -4.68 15 -4 15 C-3.896875 14.195625 -3.79375 13.39125 -3.6875 12.5625 C-2.84899627 8.21752614 -1.47178341 4.16542473 0 0 Z " fill="#E8CC70" transform="translate(101,49)"/>
<path d="M0 0 C0.5775 0.20625 1.155 0.4125 1.75 0.625 C-2.82898116 4.20096624 -6.20654453 5.22397466 -12.0546875 5.234375 C-12.7786673 5.25091125 -13.50264709 5.26744751 -14.24856567 5.28448486 C-16.54079877 5.33272545 -18.83236976 5.35428056 -21.125 5.375 C-22.68753288 5.40318001 -24.25003524 5.43311027 -25.8125 5.46484375 C-29.6249454 5.53847678 -33.43702843 5.58819648 -37.25 5.625 C-37.58 6.285 -37.91 6.945 -38.25 7.625 C-31.65 7.625 -25.05 7.625 -18.25 7.625 C-18.25 10.595 -18.25 13.565 -18.25 16.625 C-18.91 16.295 -19.57 15.965 -20.25 15.625 C-19.92 13.975 -19.59 12.325 -19.25 10.625 C-20.10549438 10.63285522 -20.10549438 10.63285522 -20.97827148 10.64086914 C-23.54800323 10.66158221 -26.11771747 10.6746419 -28.6875 10.6875 C-30.03424805 10.70006836 -30.03424805 10.70006836 -31.40820312 10.71289062 C-32.68920898 10.71772461 -32.68920898 10.71772461 -33.99609375 10.72265625 C-34.78685303 10.72789307 -35.5776123 10.73312988 -36.39233398 10.73852539 C-38.25 10.625 -38.25 10.625 -39.25 9.625 C-39.29092937 7.29202567 -39.29241723 4.95794775 -39.25 2.625 C-35.34952731 1.69748459 -31.78081357 1.5335156 -27.77734375 1.59765625 C-26.54822266 1.60990234 -25.31910156 1.62214844 -24.05273438 1.63476562 C-21.47194978 1.66997593 -18.89121506 1.70905033 -16.31054688 1.75195312 C-15.08271484 1.76291016 -13.85488281 1.77386719 -12.58984375 1.78515625 C-11.46956787 1.80199463 -10.34929199 1.81883301 -9.19506836 1.83618164 C-5.71702861 1.58678229 -3.32961546 -0.55493591 0 0 Z " fill="#EDC951" transform="translate(114.25,83.375)"/>
<path d="M0 0 C-0.66 0.33 -1.32 0.66 -2 1 C-3.02673828 0.53980469 -3.02673828 0.53980469 -4.07421875 0.0703125 C-8.04645479 -1.38281524 -11.62290674 -1.21630715 -15.8125 -1.125 C-16.60076172 -1.11597656 -17.38902344 -1.10695313 -18.20117188 -1.09765625 C-20.13424666 -1.07422504 -22.0671638 -1.03835838 -24 -1 C-23.67 -0.34 -23.34 0.32 -23 1 C-24.65 1 -26.3 1 -28 1 C-28.33 1.99 -28.66 2.98 -29 4 C-27.35 4.33 -25.7 4.66 -24 5 C-23.375 7.375 -23.375 7.375 -23 10 C-25 12 -25 12 -27.4375 12.3125 C-30.46402642 11.94341141 -31.0065385 11.17468527 -33 9 C-33.99 9 -34.98 9 -36 9 C-35.0094763 4.7407481 -33.6447476 1.7334884 -30.08984375 -0.9609375 C-21.55091509 -5.20646091 -7.84261076 -6.01266825 0 0 Z M-28 5 C-28.66 6.32 -29.32 7.64 -30 9 C-28.02 9.99 -28.02 9.99 -26 11 C-25.67 9.35 -25.34 7.7 -25 6 C-25.99 5.67 -26.98 5.34 -28 5 Z " fill="#94ADBB" transform="translate(92,28)"/>
<path d="M0 0 C6.38501163 -0.44807099 9.84177904 0.07975207 15 4 C17.39667265 9.15840141 17.30086138 14.18067906 17.25 19.75 C17.25773437 20.61238281 17.26546875 21.47476563 17.2734375 22.36328125 C17.27085938 23.18699219 17.26828125 24.01070312 17.265625 24.859375 C17.26336914 25.60670898 17.26111328 26.35404297 17.25878906 27.12402344 C17 29 17 29 15 31 C14.67 23.08 14.34 15.16 14 7 C11.525 6.01 11.525 6.01 9 5 C8.01 4.34 7.02 3.68 6 3 C3.37468476 2.83286431 3.37468476 2.83286431 1 3 C0.67 4.65 0.34 6.3 0 8 C-0.33 8 -0.66 8 -1 8 C-0.67 5.36 -0.34 2.72 0 0 Z " fill="#E7CA5B" transform="translate(101,49)"/>
<path d="M0 0 C5.77210575 0.10325771 9.82535314 1.78631896 14.05078125 5.77734375 C17.26593315 9.79127229 17.04557918 13.72907345 16.875 18.6875 C16.87886719 19.91823242 16.87886719 19.91823242 16.8828125 21.17382812 C16.79661568 26.57405903 15.81293706 30.43248075 13.375 35.25 C13.045 34.59 12.715 33.93 12.375 33.25 C12.705 32.59 13.035 31.93 13.375 31.25 C13.6133036 28.17247918 13.56019377 25.08573603 13.5625 22 C13.58086914 20.72962891 13.58086914 20.72962891 13.59960938 19.43359375 C13.61070977 14.67522439 13.40247444 10.65546142 11.375 6.25 C6.90823305 3.16580377 2.64894963 2.70465083 -2.625 2.25 C-2.955 4.56 -3.285 6.87 -3.625 9.25 C-3.955 9.25 -4.285 9.25 -4.625 9.25 C-4.72265625 3.09765625 -4.72265625 3.09765625 -4.625 1.25 C-3.625 0.25 -3.625 0.25 0 0 Z " fill="#F3E2A6" transform="translate(103.625,46.75)"/>
<path d="M0 0 C10.23 0 20.46 0 31 0 C31 0.33 31 0.66 31 1 C27.37 1.33 23.74 1.66 20 2 C20.20625 3.010625 20.4125 4.02125 20.625 5.0625 C21.0471494 9.49506869 20.4359485 11.86108962 19 16 C18 12 18 12 19 3 C12.4 3 5.8 3 -1 3 C-0.67 2.01 -0.34 1.02 0 0 Z " fill="#F6DE8C" transform="translate(77,88)"/>
<path d="M0 0 C0.33 0 0.66 0 1 0 C1 1.98 1 3.96 1 6 C7.6 6 14.2 6 21 6 C21 6.99 21 7.98 21 9 C10.77 9 0.54 9 -10 9 C-10 8.67 -10 8.34 -10 8 C-6.7 7.67 -3.4 7.34 0 7 C0 4.69 0 2.38 0 0 Z " fill="#B1CDDB" transform="translate(55,39)"/>
<path d="M0 0 C2.49361571 1.20381448 4.68143083 2.45428722 7 4 C7 4.66 7 5.32 7 6 C10.63 6.33 14.26 6.66 18 7 C18 7.66 18 8.32 18 9 C11.73 9 5.46 9 -1 9 C-1 1 -1 1 0 0 Z " fill="#3A627E" transform="translate(57,36)"/>
<path d="M0 0 C0 0.99 0 1.98 0 3 C-5.48953482 8.28621871 -13.19101862 7.20885911 -20.30859375 7.16015625 C-24.57363302 6.97511222 -27.99334564 6.44239557 -32 5 C-32.33 4.34 -32.66 3.68 -33 3 C-32.28521484 3.16008545 -31.57042969 3.3201709 -30.83398438 3.48510742 C-26.07841376 4.34912348 -21.32213689 4.26734891 -16.5 4.3125 C-14.95119141 4.35600586 -14.95119141 4.35600586 -13.37109375 4.40039062 C-7.251356 4.48932446 -7.251356 4.48932446 -1.78125 1.98046875 C-1.1934375 1.32691406 -0.605625 0.67335938 0 0 Z " fill="#F5E3A4" transform="translate(94,104)"/>
<path d="M0 0 C0.495 1.98 0.495 1.98 1 4 C-4.97908909 5.95107118 -10.43100921 6.37625609 -16.68359375 6.56640625 C-22.87546402 6.82393431 -28.52402651 7.93345484 -34 11 C-34 10.01 -34 9.02 -34 8 C-31.06944276 5.09078073 -28.87489613 4.63217674 -24.82421875 4.62890625 C-23.83099609 4.61150391 -22.83777344 4.59410156 -21.81445312 4.57617188 C-19.74154973 4.56710859 -17.66862592 4.56185637 -15.59570312 4.56054688 C-9.17780188 4.44023716 -5.27096802 3.73948789 0 0 Z " fill="#F3C848" transform="translate(95,66)"/>
<path d="M0 0 C-0.11486425 2.37587624 -0.24158156 4.75015171 -0.375 7.125 C-0.4059375 7.79015625 -0.436875 8.4553125 -0.46875 9.140625 C-0.71919633 13.39821262 -1.47528197 17.02085783 -3 21 C-3.33 21 -3.66 21 -4 21 C-4 14.4 -4 7.8 -4 1 C-2 0 -2 0 0 0 Z " fill="#39607C" transform="translate(39,58)"/>
<path d="M0 0 C0.33 0 0.66 0 1 0 C1.08144943 2.70894767 1.14070614 5.41541263 1.1875 8.125 C1.22520508 9.26582031 1.22520508 9.26582031 1.26367188 10.4296875 C1.33877661 16.23778671 0.32422468 20.41752813 -3.6875 24.875 C-4.3371875 25.431875 -4.3371875 25.431875 -5 26 C-5.99 25.67 -6.98 25.34 -8 25 C-7.34 25 -6.68 25 -6 25 C-6 23.35 -6 21.7 -6 20 C-4.68 20 -3.36 20 -2 20 C-1.34 13.4 -0.68 6.8 0 0 Z " fill="#3D5D75" transform="translate(96,39)"/>
<path d="M0 0 C1.98 0.99 1.98 0.99 4 2 C4 2.66 4 3.32 4 4 C5.5778125 3.9690625 5.5778125 3.9690625 7.1875 3.9375 C10.32704904 3.98896802 12.96883396 4.26517187 16 5 C16 3.35 16 1.7 16 0 C16.33 0 16.66 0 17 0 C17 2.64 17 5.28 17 8 C10.54445945 7.74484029 5.96400336 7.32759267 1 3 C0.67 2.01 0.34 1.02 0 0 Z " fill="#41657D" transform="translate(36,80)"/>
<path d="M0 0 C0 4 0 4 -1.6796875 5.921875 C-2.40414062 6.52515625 -3.12859375 7.1284375 -3.875 7.75 C-4.95394531 8.67039062 -4.95394531 8.67039062 -6.0546875 9.609375 C-8 11 -8 11 -10 11 C-9.49697411 6.59852343 -7.97554199 4.24604581 -5 1 C-3 0 -3 0 0 0 Z " fill="#406C82" transform="translate(45,48)"/>
<path d="M0 0 C0.5775 0.20625 1.155 0.4125 1.75 0.625 C-3.45506467 5.52388439 -8.47989161 4.96616256 -15.3984375 4.765625 C-16.33945313 4.71921875 -17.28046875 4.6728125 -18.25 4.625 C-18.25 3.965 -18.25 3.305 -18.25 2.625 C-17.43015625 2.57601562 -16.6103125 2.52703125 -15.765625 2.4765625 C-14.68796875 2.40179688 -13.6103125 2.32703125 -12.5 2.25 C-11.43265625 2.18039063 -10.3653125 2.11078125 -9.265625 2.0390625 C-5.84791422 1.56979133 -3.32667004 -0.55444501 0 0 Z " fill="#EECB60" transform="translate(114.25,83.375)"/>
<path d="M0 0 C1.16499023 -0.01836914 1.16499023 -0.01836914 2.35351562 -0.03710938 C6.27482309 -0.04724195 8.22868745 -0.0350417 11.5625 2.1875 C-4.59026968 4.58050292 -4.59026968 4.58050292 -10.4375 1.1875 C-7.16938198 -0.44655901 -3.58750593 0.00296243 0 0 Z " fill="#517087" transform="translate(76.4375,25.8125)"/>
<path d="M0 0 C1.5 1.375 1.5 1.375 3 3 C3 3.66 3 4.32 3 5 C4.32 5 5.64 5 7 5 C7 5.66 7 6.32 7 7 C4.11734851 7.96088383 2.32337729 8.11670941 -0.66796875 8.09765625 C-1.56064453 8.09443359 -2.45332031 8.09121094 -3.37304688 8.08789062 C-4.76620117 8.07532227 -4.76620117 8.07532227 -6.1875 8.0625 C-7.59805664 8.05573242 -7.59805664 8.05573242 -9.03710938 8.04882812 C-11.35813712 8.03704626 -13.67903644 8.02059558 -16 8 C-16 7.67 -16 7.34 -16 7 C-10.39 7 -4.78 7 1 7 C0.67 4.69 0.34 2.38 0 0 Z " fill="#F3C943" transform="translate(81,100)"/>
<path d="M0 0 C3.0625 0.1875 3.0625 0.1875 5.0625 2.1875 C4.6875 4.8125 4.6875 4.8125 4.0625 7.1875 C1.1875 7.8125 1.1875 7.8125 -1.9375 8.1875 C-3.9375 6.1875 -3.9375 6.1875 -4.125 3.625 C-3.8509967 0.06295712 -3.62735131 0.23153306 0 0 Z M-0.9375 1.1875 C-1.5975 2.5075 -2.2575 3.8275 -2.9375 5.1875 C-0.4625 5.6825 -0.4625 5.6825 2.0625 6.1875 C1.7325 4.5375 1.4025 2.8875 1.0625 1.1875 C0.4025 1.1875 -0.2575 1.1875 -0.9375 1.1875 Z " fill="#F8E59B" transform="translate(87.9375,95.8125)"/>
<path d="M0 0 C5.26159459 -0.64165788 7.68592849 0.79422999 11.6796875 3.90625 C12.11539063 4.2671875 12.55109375 4.628125 13 5 C12.67 5.66 12.34 6.32 12 7 C11.113125 6.34 10.22625 5.68 9.3125 5 C6.01888014 3.01139933 4.71748127 2.56264926 1 3 C0.67 4.65 0.34 6.3 0 8 C-0.33 8 -0.66 8 -1 8 C-0.67 5.36 -0.34 2.72 0 0 Z " fill="#F1C950" transform="translate(101,49)"/>
<path d="M0 0 C1.5625 1.1875 1.5625 1.1875 3 3 C2.6875 5.6875 2.6875 5.6875 2 8 C2.66 8.33 3.32 8.66 4 9 C-0.455 8.01 -0.455 8.01 -5 7 C-5 6.34 -5 5.68 -5 5 C-4.360625 4.731875 -3.72125 4.46375 -3.0625 4.1875 C-0.66868314 3.11332248 -0.66868314 3.11332248 0 0 Z " fill="#406A8A" transform="translate(69,35)"/>
<path d="M0 0 C0.66 0 1.32 0 2 0 C2 6.6 2 13.2 2 20 C1.67 20 1.34 20 1 20 C-0.59295252 12.95678017 -1.1710655 7.14349955 0 0 Z " fill="#F8F3CC" transform="translate(54,79)"/>
<path d="M0 0 C0.598125 0.20625 1.19625 0.4125 1.8125 0.625 C2.4375 3 2.4375 3 2.8125 5.625 C0.8125 7.625 0.8125 7.625 -1.75 7.8125 C-4.1875 7.625 -4.1875 7.625 -5.1875 6.625 C-5.4375 4.1875 -5.4375 4.1875 -5.1875 1.625 C-2.1875 -0.375 -2.1875 -0.375 0 0 Z M-2.1875 0.625 C-2.8475 1.945 -3.5075 3.265 -4.1875 4.625 C-2.2075 5.615 -2.2075 5.615 -0.1875 6.625 C0.1425 4.975 0.4725 3.325 0.8125 1.625 C-0.1775 1.295 -1.1675 0.965 -2.1875 0.625 Z " fill="#C3DEEC" transform="translate(66.1875,32.375)"/>
<path d="M0 0 C0.66 0.33 1.32 0.66 2 1 C1.8125 3.3125 1.8125 3.3125 1 6 C-1.5625 7.8125 -1.5625 7.8125 -4 9 C-4 7.35 -4 5.7 -4 4 C-3.01 3.67 -2.02 3.34 -1 3 C-0.67 2.01 -0.34 1.02 0 0 Z " fill="#E1CC68" transform="translate(93,99)"/>
<path d="M0 0 C0 1.32 0 2.64 0 4 C-2.375 4.625 -2.375 4.625 -5 5 C-5.66 4.34 -6.32 3.68 -7 3 C-3.375 0 -3.375 0 0 0 Z " fill="#53778E" transform="translate(45,48)"/>
<path d="M0 0 C0.66 0.66 1.32 1.32 2 2 C1.625 5.125 1.625 5.125 1 8 C-0.32 7.34 -1.64 6.68 -3 6 C-2.01 4.02 -1.02 2.04 0 0 Z " fill="#D4D4BF" transform="translate(96,56)"/>
<path d="M0 0 C4.67692308 1.47692308 4.67692308 1.47692308 6.3125 4.125 C6.539375 4.74375 6.76625 5.3625 7 6 C4.69 5.34 2.38 4.68 0 4 C0 2.68 0 1.36 0 0 Z " fill="#386084" transform="translate(63,28)"/>
<path d="M0 0 C1.0209375 0.2165625 1.0209375 0.2165625 2.0625 0.4375 C5.36273082 1.06945909 8.67144426 1.54313941 12 2 C12 2.33 12 2.66 12 3 C10.56344146 3.08131463 9.1255517 3.13933559 7.6875 3.1875 C6.48673828 3.23970703 6.48673828 3.23970703 5.26171875 3.29296875 C2.52148416 2.93801608 1.70828921 2.10633718 0 0 Z " fill="#EFD888" transform="translate(61,107)"/>
</svg>
